  0
SECTION
  2
HEADER
  9
$ACADVER
  1
AC1009
  9
$EXTMIN
 10
0.0
 20
0.0
 30
0.0
  9
$EXTMAX
 10
1000.0
 20
1000.0
 30
0.0
  9
$FILLMODE
 70
 0
  9
$SPLFRAME
 70
 1
  0
ENDSEC
  0
SECTION
  2
TABLES
  0
TABLE
  2
LAYER
 70
1
  0
LAYER
  2
0
 70
     0
 62
     7
  6
CONTINUOUS
  0
ENDTAB
  0
ENDSEC
  0
SECTION
  2
ENTITIES
  0
LINE
  8
0
 62
     1
 10
25.0817
 20
60.5261
 30
0.0
 11
23.191
 21
60.3359
 31
0.0
  0
LINE
  8
0
 62
     1
 10
23.191
 20
60.3359
 30
0.0
 11
21.4313
 21
59.7902
 31
0.0
  0
LINE
  8
0
 62
     1
 10
21.4313
 20
59.7902
 30
0.0
 11
19.8382
 21
58.9262
 31
0.0
  0
LINE
  8
0
 62
     1
 10
19.8382
 20
58.9262
 30
0.0
 11
18.4506
 21
57.7811
 31
0.0
  0
LINE
  8
0
 62
     1
 10
18.4506
 20
57.7811
 30
0.0
 11
17.3054
 21
56.3933
 31
0.0
  0
LINE
  8
0
 62
     1
 10
17.3054
 20
56.3933
 30
0.0
 11
16.44
 21
54.8005
 31
0.0
  0
LINE
  8
0
 62
     1
 10
16.44
 20
54.8005
 30
0.0
 11
15.8943
 21
53.0408
 31
0.0
  0
LINE
  8
0
 62
     1
 10
15.8943
 20
53.0408
 30
0.0
 11
15.7041
 21
51.15
 31
0.0
  0
LINE
  8
0
 62
     1
 10
15.7041
 20
51.15
 30
0.0
 11
15.9274
 21
49.0636
 31
0.0
  0
LINE
  8
0
 62
     1
 10
15.9274
 20
49.0636
 30
0.0
 11
16.5172
 21
47.3068
 31
0.0
  0
LINE
  8
0
 62
     1
 10
16.5172
 20
47.3068
 30
0.0
 11
17.3523
 21
45.8668
 31
0.0
  0
LINE
  8
0
 62
     1
 10
17.3523
 20
45.8668
 30
0.0
 11
18.3086
 21
44.7241
 31
0.0
  0
LINE
  8
0
 62
     1
 10
18.3086
 20
44.7241
 30
0.0
 11
19.265
 21
43.8658
 31
0.0
  0
LINE
  8
0
 62
     1
 10
19.265
 20
43.8658
 30
0.0
 11
20.1001
 21
43.2717
 31
0.0
  0
LINE
  8
0
 62
     1
 10
20.1001
 20
43.2717
 30
0.0
 11
20.6899
 21
42.9274
 31
0.0
  0
LINE
  8
0
 62
     1
 10
20.6899
 20
42.9274
 30
0.0
 11
20.9145
 21
42.8156
 31
0.0
  0
LINE
  8
0
 62
     1
 10
20.9145
 20
42.8156
 30
0.0
 11
19.3298
 21
42.8156
 31
0.0
  0
LINE
  8
0
 62
     1
 10
19.3298
 20
42.8156
 30
0.0
 11
16.8603
 21
42.4462
 31
0.0
  0
LINE
  8
0
 62
     1
 10
16.8603
 20
42.4462
 30
0.0
 11
14.6086
 21
41.3674
 31
0.0
  0
LINE
  8
0
 62
     1
 10
14.6086
 20
41.3674
 30
0.0
 11
4.09003
 21
34.2374
 31
0.0
  0
LINE
  8
0
 62
     1
 10
4.09003
 20
34.2374
 30
0.0
 11
2.37436
 21
32.727
 31
0.0
  0
LINE
  8
0
 62
     1
 10
2.37436
 20
32.727
 30
0.0
 11
1.36839
 21
30.7564
 31
0.0
  0
LINE
  8
0
 62
     1
 10
1.36839
 20
30.7564
 30
0.0
 11
1.13826
 21
28.5543
 31
0.0
  0
LINE
  8
0
 62
     1
 10
1.13826
 20
28.5543
 30
0.0
 11
1.75562
 21
26.3522
 31
0.0
  0
LINE
  8
0
 62
     1
 10
1.75562
 20
26.3522
 30
0.0
 11
3.22737
 21
24.4685
 31
0.0
  0
LINE
  8
0
 62
     1
 10
3.22737
 20
24.4685
 30
0.0
 11
5.23794
 21
23.3343
 31
0.0
  0
LINE
  8
0
 62
     1
 10
5.23794
 20
23.3343
 30
0.0
 11
7.52683
 21
23.0353
 31
0.0
  0
LINE
  8
0
 62
     1
 10
7.52683
 20
23.0353
 30
0.0
 11
9.83643
 21
23.6595
 31
0.0
  0
LINE
  8
0
 62
     1
 10
9.83643
 20
23.6595
 30
0.0
 11
14.6623
 21
26.1469
 31
0.0
  0
LINE
  8
0
 62
     1
 10
14.6623
 20
26.1469
 30
0.0
 11
14.6623
 21
5.31234
 31
0.0
  0
LINE
  8
0
 62
     1
 10
14.6623
 20
5.31234
 30
0.0
 11
14.7119
 21
4.53513
 31
0.0
  0
LINE
  8
0
 62
     1
 10
14.7119
 20
4.53513
 30
0.0
 11
14.8732
 21
3.78273
 31
0.0
  0
LINE
  8
0
 62
     1
 10
14.8732
 20
3.78273
 30
0.0
 11
15.1557
 21
3.07854
 31
0.0
  0
LINE
  8
0
 62
     1
 10
15.1557
 20
3.07854
 30
0.0
 11
15.5732
 21
2.4474
 31
0.0
  0
LINE
  8
0
 62
     1
 10
15.5732
 20
2.4474
 30
0.0
 11
16.1368
 21
1.91409
 31
0.0
  0
LINE
  8
0
 62
     1
 10
16.1368
 20
1.91409
 30
0.0
 11
16.8589
 21
1.50344
 31
0.0
  0
LINE
  8
0
 62
     1
 10
16.8589
 20
1.50344
 30
0.0
 11
17.7519
 21
1.23748
 31
0.0
  0
LINE
  8
0
 62
     1
 10
17.7519
 20
1.23748
 30
0.0
 11
18.8295
 21
1.14377
 31
0.0
  0
LINE
  8
0
 62
     1
 10
18.8295
 20
1.14377
 30
0.0
 11
20.9145
 21
1.14377
 31
0.0
  0
LINE
  8
0
 62
     1
 10
20.9145
 20
1.14377
 30
0.0
 11
22.5364
 21
1.47175
 31
0.0
  0
LINE
  8
0
 62
     1
 10
22.5364
 20
1.47175
 30
0.0
 11
23.8607
 21
2.36472
 31
0.0
  0
LINE
  8
0
 62
     1
 10
23.8607
 20
2.36472
 30
0.0
 11
24.7537
 21
3.69037
 31
0.0
  0
LINE
  8
0
 62
     1
 10
24.7537
 20
3.69037
 30
0.0
 11
25.0817
 21
5.31234
 31
0.0
  0
LINE
  8
0
 62
     1
 10
25.0817
 20
5.31234
 30
0.0
 11
25.4083
 21
3.69037
 31
0.0
  0
LINE
  8
0
 62
     1
 10
25.4083
 20
3.69037
 30
0.0
 11
26.3012
 21
2.36472
 31
0.0
  0
LINE
  8
0
 62
     1
 10
26.3012
 20
2.36472
 30
0.0
 11
27.6255
 21
1.47175
 31
0.0
  0
LINE
  8
0
 62
     1
 10
27.6255
 20
1.47175
 30
0.0
 11
29.2489
 21
1.14377
 31
0.0
  0
LINE
  8
0
 62
     1
 10
29.2489
 20
1.14377
 30
0.0
 11
31.3325
 21
1.14377
 31
0.0
  0
LINE
  8
0
 62
     1
 10
31.3325
 20
1.14377
 30
0.0
 11
32.4087
 21
1.23748
 31
0.0
  0
LINE
  8
0
 62
     1
 10
32.4087
 20
1.23748
 30
0.0
 11
33.3017
 21
1.50344
 31
0.0
  0
LINE
  8
0
 62
     1
 10
33.3017
 20
1.50344
 30
0.0
 11
34.0238
 21
1.91409
 31
0.0
  0
LINE
  8
0
 62
     1
 10
34.0238
 20
1.91409
 30
0.0
 11
34.5874
 21
2.4474
 31
0.0
  0
LINE
  8
0
 62
     1
 10
34.5874
 20
2.4474
 30
0.0
 11
35.0049
 21
3.07854
 31
0.0
  0
LINE
  8
0
 62
     1
 10
35.0049
 20
3.07854
 30
0.0
 11
35.2873
 21
3.78273
 31
0.0
  0
LINE
  8
0
 62
     1
 10
35.2873
 20
3.78273
 30
0.0
 11
35.4485
 21
4.53513
 31
0.0
  0
LINE
  8
0
 62
     1
 10
35.4485
 20
4.53513
 30
0.0
 11
35.4997
 21
5.31234
 31
0.0
  0
LINE
  8
0
 62
     1
 10
35.4997
 20
5.31234
 30
0.0
 11
35.4997
 21
26.1469
 31
0.0
  0
LINE
  8
0
 62
     1
 10
35.4997
 20
26.1469
 30
0.0
 11
40.3271
 21
23.6595
 31
0.0
  0
LINE
  8
0
 62
     1
 10
40.3271
 20
23.6595
 30
0.0
 11
42.6339
 21
23.0353
 31
0.0
  0
LINE
  8
0
 62
     1
 10
42.6339
 20
23.0353
 30
0.0
 11
44.9241
 21
23.3343
 31
0.0
  0
LINE
  8
0
 62
     1
 10
44.9241
 20
23.3343
 30
0.0
 11
46.9346
 21
24.4685
 31
0.0
  0
LINE
  8
0
 62
     1
 10
46.9346
 20
24.4685
 30
0.0
 11
48.4064
 21
26.3522
 31
0.0
  0
LINE
  8
0
 62
     1
 10
48.4064
 20
26.3522
 30
0.0
 11
49.0224
 21
28.5543
 31
0.0
  0
LINE
  8
0
 62
     1
 10
49.0224
 20
28.5543
 30
0.0
 11
48.7938
 21
30.7564
 31
0.0
  0
LINE
  8
0
 62
     1
 10
48.7938
 20
30.7564
 30
0.0
 11
47.7876
 21
32.727
 31
0.0
  0
LINE
  8
0
 62
     1
 10
47.7876
 20
32.727
 30
0.0
 11
46.0735
 21
34.2374
 31
0.0
  0
LINE
  8
0
 62
     1
 10
46.0735
 20
34.2374
 30
0.0
 11
35.5533
 21
41.3674
 31
0.0
  0
LINE
  8
0
 62
     1
 10
35.5533
 20
41.3674
 30
0.0
 11
33.3017
 21
42.4462
 31
0.0
  0
LINE
  8
0
 62
     1
 10
33.3017
 20
42.4462
 30
0.0
 11
30.8322
 21
42.8156
 31
0.0
  0
LINE
  8
0
 62
     1
 10
30.8322
 20
42.8156
 30
0.0
 11
29.2489
 21
42.8156
 31
0.0
  0
LINE
  8
0
 62
     1
 10
29.2489
 20
42.8156
 30
0.0
 11
29.4721
 21
42.9274
 31
0.0
  0
LINE
  8
0
 62
     1
 10
29.4721
 20
42.9274
 30
0.0
 11
30.0619
 21
43.2717
 31
0.0
  0
LINE
  8
0
 62
     1
 10
30.0619
 20
43.2717
 30
0.0
 11
30.897
 21
43.8658
 31
0.0
  0
LINE
  8
0
 62
     1
 10
30.897
 20
43.8658
 30
0.0
 11
31.8534
 21
44.7241
 31
0.0
  0
LINE
  8
0
 62
     1
 10
31.8534
 20
44.7241
 30
0.0
 11
32.8083
 21
45.8668
 31
0.0
  0
LINE
  8
0
 62
     1
 10
32.8083
 20
45.8668
 30
0.0
 11
33.6434
 21
47.3068
 31
0.0
  0
LINE
  8
0
 62
     1
 10
33.6434
 20
47.3068
 30
0.0
 11
34.2332
 21
49.0636
 31
0.0
  0
LINE
  8
0
 62
     1
 10
34.2332
 20
49.0636
 30
0.0
 11
34.4579
 21
51.15
 31
0.0
  0
LINE
  8
0
 62
     1
 10
34.4579
 20
51.15
 30
0.0
 11
34.2663
 21
53.0408
 31
0.0
  0
LINE
  8
0
 62
     1
 10
34.2663
 20
53.0408
 30
0.0
 11
33.7206
 21
54.8005
 31
0.0
  0
LINE
  8
0
 62
     1
 10
33.7206
 20
54.8005
 30
0.0
 11
32.8566
 21
56.3933
 31
0.0
  0
LINE
  8
0
 62
     1
 10
32.8566
 20
56.3933
 30
0.0
 11
31.7114
 21
57.7811
 31
0.0
  0
LINE
  8
0
 62
     1
 10
31.7114
 20
57.7811
 30
0.0
 11
30.3237
 21
58.9262
 31
0.0
  0
LINE
  8
0
 62
     1
 10
30.3237
 20
58.9262
 30
0.0
 11
28.7307
 21
59.7902
 31
0.0
  0
LINE
  8
0
 62
     1
 10
28.7307
 20
59.7902
 30
0.0
 11
26.971
 21
60.3359
 31
0.0
  0
LINE
  8
0
 62
     1
 10
26.971
 20
60.3359
 30
0.0
 11
25.0817
 21
60.5261
 31
0.0
  0
LINE
  8
0
 62
     0
 10
25.0817
 20
61.6133
 30
0.0
 11
22.9719
 21
61.4013
 31
0.0
  0
LINE
  8
0
 62
     0
 10
22.9719
 20
61.4013
 30
0.0
 11
21.0054
 21
60.7882
 31
0.0
  0
LINE
  8
0
 62
     0
 10
21.0054
 20
60.7882
 30
0.0
 11
19.2236
 21
59.8205
 31
0.0
  0
LINE
  8
0
 62
     0
 10
19.2236
 20
59.8205
 30
0.0
 11
17.672
 21
58.5392
 31
0.0
  0
LINE
  8
0
 62
     0
 10
17.672
 20
58.5392
 30
0.0
 11
16.389
 21
56.986
 31
0.0
  0
LINE
  8
0
 62
     0
 10
16.389
 20
56.986
 30
0.0
 11
15.4216
 21
55.2055
 31
0.0
  0
LINE
  8
0
 62
     0
 10
15.4216
 20
55.2055
 30
0.0
 11
14.8084
 21
53.2391
 31
0.0
  0
LINE
  8
0
 62
     0
 10
14.8084
 20
53.2391
 30
0.0
 11
14.5962
 21
51.1295
 31
0.0
  0
LINE
  8
0
 62
     0
 10
14.5962
 20
51.1295
 30
0.0
 11
14.8718
 21
48.7123
 31
0.0
  0
LINE
  8
0
 62
     0
 10
14.8718
 20
48.7123
 30
0.0
 11
15.5952
 21
46.6933
 31
0.0
  0
LINE
  8
0
 62
     0
 10
15.5952
 20
46.6933
 30
0.0
 11
16.6054
 21
45.0508
 31
0.0
  0
LINE
  8
0
 62
     0
 10
16.6054
 20
45.0508
 30
0.0
 11
17.7478
 21
43.761
 31
0.0
  0
LINE
  8
0
 62
     0
 10
17.7478
 20
43.761
 30
0.0
 11
15.7896
 21
43.2167
 31
0.0
  0
LINE
  8
0
 62
     0
 10
15.7896
 20
43.2167
 30
0.0
 11
13.9857
 21
42.2631
 31
0.0
  0
LINE
  8
0
 62
     0
 10
13.9857
 20
42.2631
 30
0.0
 11
3.46715
 21
35.1331
 31
0.0
  0
LINE
  8
0
 62
     0
 10
3.46715
 20
35.1331
 30
0.0
 11
3.5264
 21
35.1703
 31
0.0
  0
LINE
  8
0
 62
     0
 10
3.5264
 20
35.1703
 30
0.0
 11
1.49931
 21
33.383
 31
0.0
  0
LINE
  8
0
 62
     0
 10
1.49931
 20
33.383
 30
0.0
 11
0.308681
 21
31.0472
 31
0.0
  0
LINE
  8
0
 62
     0
 10
0.308681
 20
31.0472
 30
0.0
 11
0.0372071
 21
28.4386
 31
0.0
  0
LINE
  8
0
 62
     0
 10
0.0372071
 20
28.4386
 30
0.0
 11
0.764812
 21
25.8355
 31
0.0
  0
LINE
  8
0
 62
     0
 10
0.764812
 20
25.8355
 30
0.0
 11
2.50527
 21
23.6086
 31
0.0
  0
LINE
  8
0
 62
     0
 10
2.50527
 20
23.6086
 30
0.0
 11
4.88929
 21
22.2663
 31
0.0
  0
LINE
  8
0
 62
     0
 10
4.88929
 20
22.2663
 30
0.0
 11
7.60127
 21
21.9108
 31
0.0
  0
LINE
  8
0
 62
     0
 10
7.60127
 20
21.9108
 30
0.0
 11
10.3312
 21
22.6467
 31
0.0
  0
LINE
  8
0
 62
     0
 10
10.3312
 20
22.6467
 30
0.0
 11
10.3436
 21
22.6522
 31
0.0
  0
LINE
  8
0
 62
     0
 10
10.3436
 20
22.6522
 30
0.0
 11
13.5544
 21
24.3072
 31
0.0
  0
LINE
  8
0
 62
     0
 10
13.5544
 20
24.3072
 30
0.0
 11
13.5544
 21
5.28891
 31
0.0
  0
LINE
  8
0
 62
     0
 10
13.5544
 20
5.28891
 30
0.0
 11
13.8121
 21
3.43407
 31
0.0
  0
LINE
  8
0
 62
     0
 10
13.8121
 20
3.43407
 30
0.0
 11
14.723
 21
1.71428
 31
0.0
  0
LINE
  8
0
 62
     0
 10
14.723
 20
1.71428
 30
0.0
 11
15.4754
 21
1.0101
 31
0.0
  0
LINE
  8
0
 62
     0
 10
15.4754
 20
1.0101
 30
0.0
 11
16.4221
 21
0.474045
 31
0.0
  0
LINE
  8
0
 62
     0
 10
16.4221
 20
0.474045
 30
0.0
 11
17.5466
 21
0.135048
 31
0.0
  0
LINE
  8
0
 62
     0
 10
17.5466
 20
0.135048
 30
0.0
 11
18.8295
 21
0.0151584
 31
0.0
  0
LINE
  8
0
 62
     0
 10
18.8295
 20
0.0151584
 30
0.0
 11
20.9145
 21
0.0151584
 31
0.0
  0
LINE
  8
0
 62
     0
 10
20.9145
 20
0.0151584
 30
0.0
 11
22.1451
 21
0.163987
 31
0.0
  0
LINE
  8
0
 62
     0
 10
22.1451
 20
0.163987
 30
0.0
 11
23.2709
 21
0.585668
 31
0.0
  0
LINE
  8
0
 62
     0
 10
23.2709
 20
0.585668
 30
0.0
 11
24.2604
 21
1.24299
 31
0.0
  0
LINE
  8
0
 62
     0
 10
24.2604
 20
1.24299
 30
0.0
 11
25.0817
 21
2.09737
 31
0.0
  0
LINE
  8
0
 62
     0
 10
25.0817
 20
2.09737
 30
0.0
 11
25.9002
 21
1.24299
 31
0.0
  0
LINE
  8
0
 62
     0
 10
25.9002
 20
1.24299
 30
0.0
 11
26.8897
 21
0.585668
 31
0.0
  0
LINE
  8
0
 62
     0
 10
26.8897
 20
0.585668
 30
0.0
 11
28.0155
 21
0.163987
 31
0.0
  0
LINE
  8
0
 62
     0
 10
28.0155
 20
0.163987
 30
0.0
 11
29.2489
 21
0.0151584
 31
0.0
  0
LINE
  8
0
 62
     0
 10
29.2489
 20
0.0151584
 30
0.0
 11
31.3325
 21
0.0151584
 31
0.0
  0
LINE
  8
0
 62
     0
 10
31.3325
 20
0.0151584
 30
0.0
 11
32.614
 21
0.135048
 31
0.0
  0
LINE
  8
0
 62
     0
 10
32.614
 20
0.135048
 30
0.0
 11
33.7371
 21
0.474045
 31
0.0
  0
LINE
  8
0
 62
     0
 10
33.7371
 20
0.474045
 30
0.0
 11
34.6852
 21
1.0101
 31
0.0
  0
LINE
  8
0
 62
     0
 10
34.6852
 20
1.0101
 30
0.0
 11
35.439
 21
1.71428
 31
0.0
  0
LINE
  8
0
 62
     0
 10
35.439
 20
1.71428
 30
0.0
 11
36.3485
 21
3.43407
 31
0.0
  0
LINE
  8
0
 62
     0
 10
36.3485
 20
3.43407
 30
0.0
 11
36.6077
 21
5.28891
 31
0.0
  0
LINE
  8
0
 62
     0
 10
36.6077
 20
5.28891
 30
0.0
 11
36.6077
 21
24.3072
 31
0.0
  0
LINE
  8
0
 62
     0
 10
36.6077
 20
24.3072
 30
0.0
 11
39.8184
 21
22.6522
 31
0.0
  0
LINE
  8
0
 62
     0
 10
39.8184
 20
22.6522
 30
0.0
 11
39.8293
 21
22.6467
 31
0.0
  0
LINE
  8
0
 62
     0
 10
39.8293
 20
22.6467
 30
0.0
 11
42.5581
 21
21.9108
 31
0.0
  0
LINE
  8
0
 62
     0
 10
42.5581
 20
21.9108
 30
0.0
 11
45.2713
 21
22.2663
 31
0.0
  0
LINE
  8
0
 62
     0
 10
45.2713
 20
22.2663
 30
0.0
 11
47.6553
 21
23.6086
 31
0.0
  0
LINE
  8
0
 62
     0
 10
47.6553
 20
23.6086
 30
0.0
 11
49.397
 21
25.8355
 31
0.0
  0
LINE
  8
0
 62
     0
 10
49.397
 20
25.8355
 30
0.0
 11
50.1234
 21
28.4386
 31
0.0
  0
LINE
  8
0
 62
     0
 10
50.1234
 20
28.4386
 30
0.0
 11
49.8521
 21
31.0472
 31
0.0
  0
LINE
  8
0
 62
     0
 10
49.8521
 20
31.0472
 30
0.0
 11
48.6615
 21
33.383
 31
0.0
  0
LINE
  8
0
 62
     0
 10
48.6615
 20
33.383
 30
0.0
 11
46.6355
 21
35.1703
 31
0.0
  0
LINE
  8
0
 62
     0
 10
46.6355
 20
35.1703
 30
0.0
 11
46.6947
 21
35.1331
 31
0.0
  0
LINE
  8
0
 62
     0
 10
46.6947
 20
35.1331
 30
0.0
 11
36.1763
 21
42.2631
 31
0.0
  0
LINE
  8
0
 62
     0
 10
36.1763
 20
42.2631
 30
0.0
 11
34.371
 21
43.2167
 31
0.0
  0
LINE
  8
0
 62
     0
 10
34.371
 20
43.2167
 30
0.0
 11
32.4142
 21
43.761
 31
0.0
  0
LINE
  8
0
 62
     0
 10
32.4142
 20
43.761
 30
0.0
 11
33.5552
 21
45.0508
 31
0.0
  0
LINE
  8
0
 62
     0
 10
33.5552
 20
45.0508
 30
0.0
 11
34.5667
 21
46.6933
 31
0.0
  0
LINE
  8
0
 62
     0
 10
34.5667
 20
46.6933
 30
0.0
 11
35.2887
 21
48.7123
 31
0.0
  0
LINE
  8
0
 62
     0
 10
35.2887
 20
48.7123
 30
0.0
 11
35.5656
 21
51.1295
 31
0.0
  0
LINE
  8
0
 62
     0
 10
35.5656
 20
51.1295
 30
0.0
 11
35.3522
 21
53.2391
 31
0.0
  0
LINE
  8
0
 62
     0
 10
35.3522
 20
53.2391
 30
0.0
 11
34.739
 21
55.2055
 31
0.0
  0
LINE
  8
0
 62
     0
 10
34.739
 20
55.2055
 30
0.0
 11
33.7716
 21
56.986
 31
0.0
  0
LINE
  8
0
 62
     0
 10
33.7716
 20
56.986
 30
0.0
 11
32.49
 21
58.5392
 31
0.0
  0
LINE
  8
0
 62
     0
 10
32.49
 20
58.5392
 30
0.0
 11
30.937
 21
59.8205
 31
0.0
  0
LINE
  8
0
 62
     0
 10
30.937
 20
59.8205
 30
0.0
 11
29.1565
 21
60.7882
 31
0.0
  0
LINE
  8
0
 62
     0
 10
29.1565
 20
60.7882
 30
0.0
 11
27.1901
 21
61.4013
 31
0.0
  0
LINE
  8
0
 62
     0
 10
27.1901
 20
61.4013
 30
0.0
 11
25.0817
 21
61.6133
 31
0.0
  0
ENDSEC
  0
EOF
