<?xml version="1.0" encoding="UTF-8" standalone="no"?>
<!-- Created with Inkscape (http://www.inkscape.org/) -->

<svg
   xmlns:dc="http://purl.org/dc/elements/1.1/"
   xmlns:cc="http://creativecommons.org/ns#"
   xmlns:rdf="http://www.w3.org/1999/02/22-rdf-syntax-ns#"
   xmlns:svg="http://www.w3.org/2000/svg"
   xmlns="http://www.w3.org/2000/svg"
   xmlns:sodipodi="http://sodipodi.sourceforge.net/DTD/sodipodi-0.dtd"
   xmlns:inkscape="http://www.inkscape.org/namespaces/inkscape"
   width="210mm"
   height="297mm"
   viewBox="0 0 744.09448819 1052.3622047"
   id="svg5038"
   version="1.1"
   inkscape:version="0.91 r13725"
   sodipodi:docname="skeletron-outline.svg">
  <defs
     id="defs5040" />
  <sodipodi:namedview
     id="base"
     pagecolor="#ffffff"
     bordercolor="#666666"
     borderopacity="1.0"
     inkscape:pageopacity="0.0"
     inkscape:pageshadow="2"
     inkscape:zoom="3.959798"
     inkscape:cx="215.30048"
     inkscape:cy="861.23118"
     inkscape:document-units="px"
     inkscape:current-layer="layer1"
     showgrid="false"
     inkscape:window-width="1832"
     inkscape:window-height="1051"
     inkscape:window-x="88"
     inkscape:window-y="1080"
     inkscape:window-maximized="1" />
  <metadata
     id="metadata5043">
    <rdf:RDF>
      <cc:Work
         rdf:about="">
        <dc:format>image/svg+xml</dc:format>
        <dc:type
           rdf:resource="http://purl.org/dc/dcmitype/StillImage" />
        <dc:title></dc:title>
      </cc:Work>
    </rdf:RDF>
  </metadata>
  <g
     inkscape:label="Layer 1"
     inkscape:groupmode="layer"
     id="layer1">
    <path
       transform="translate(163.51229,42.165359)"
       sodipodi:type="inkscape:offset"
       inkscape:radius="3.9285715"
       inkscape:original="M 102.20312 10.705078 C 83.854266 10.705078 68.978516 25.579065 68.978516 43.927734 C 68.978516 65.275708 87.4375 73.458984 87.4375 73.458984 L 81.824219 73.458984 C 75.859914 73.458984 70.032814 75.248946 65.095703 78.595703 L 27.822266 103.86133 C 18.149893 109.55089 14.536098 121.76 19.554688 131.79688 C 24.824988 142.33777 37.643092 146.61014 48.183594 141.33984 L 65.287109 132.52344 L 65.287109 206.35156 C 65.287109 213.73458 68.978491 221.11719 80.052734 221.11719 L 87.4375 221.11719 C 95.59232 221.11719 102.20314 214.50648 102.20312 206.35156 C 102.20315 214.50648 108.81393 221.11719 116.96875 221.11719 L 124.35156 221.11719 C 135.426 221.11719 139.11719 213.73458 139.11719 206.35156 L 139.11719 132.52344 L 156.2207 141.33984 C 166.7614 146.61014 179.5795 142.33777 184.84961 131.79688 C 189.86819 121.76 186.25615 109.55089 176.58398 103.86133 L 139.31055 78.595703 C 134.37363 75.248946 128.54614 73.458984 122.58203 73.458984 L 116.96875 73.458984 C 116.96875 73.458984 135.42578 65.275708 135.42578 43.927734 C 135.42578 25.579065 120.5518 10.705078 102.20312 10.705078 z "
       style="display:inline;opacity:0.33600003;fill:none;stroke:#000613;stroke-width:0.1;stroke-linecap:round;stroke-linejoin:round;stroke-miterlimit:10;stroke-dasharray:none;stroke-opacity:1"
       id="path4213"
       d="m 102.20312,6.7773438 c -20.471907,0 -37.152339,16.6783902 -37.152339,37.1503902 0,12.400904 5.719189,20.824577 11.166016,26.111328 -4.748998,0.802137 -9.304039,2.578174 -13.326172,5.304688 l -37.273437,25.26563 0.21289,-0.13477 c -11.420781,6.71802 -15.714962,21.22863 -9.789062,33.08008 6.21985,12.44004 21.460796,17.51868 33.90039,11.29883 a 3.9289643,3.9289643 0 0 0 0.04297,-0.0215 l 11.375,-5.86328 0,67.38281 c 0,4.34625 1.063862,8.97393 4.140625,12.66602 3.076763,3.69209 8.142623,6.02734 14.552734,6.02734 l 7.384766,0 c 6.017805,0 11.33991,-2.93189 14.76562,-7.38672 3.42572,4.45483 8.74783,7.38672 14.76563,7.38672 l 7.38281,0 c 6.4102,0 11.47794,-2.33524 14.55469,-6.02734 3.07675,-3.69211 4.13867,-8.3198 4.13867,-12.66602 l 0,-67.38281 11.375,5.86328 a 3.9289643,3.9289643 0 0 0 0.043,0.0215 c 12.43925,6.21956 27.68026,1.14017 33.90039,-11.29883 l 0,-0.002 c 5.92449,-11.85081 1.63312,-26.36028 -9.78711,-33.07812 l 0.21289,0.13477 -37.27344,-25.26563 c -4.02261,-2.726948 -8.57842,-4.502725 -13.32812,-5.304688 5.44634,-5.286753 11.16602,-13.710382 11.16602,-26.111328 0,-20.471747 -16.67864,-37.1503902 -37.1504,-37.1503902 z" />
  </g>
</svg>
