<?xml version="1.0" encoding="UTF-8" standalone="no"?>
<!-- Created with Inkscape (http://www.inkscape.org/) -->

<svg
   xmlns:dc="http://purl.org/dc/elements/1.1/"
   xmlns:cc="http://creativecommons.org/ns#"
   xmlns:rdf="http://www.w3.org/1999/02/22-rdf-syntax-ns#"
   xmlns:svg="http://www.w3.org/2000/svg"
   xmlns="http://www.w3.org/2000/svg"
   xmlns:sodipodi="http://sodipodi.sourceforge.net/DTD/sodipodi-0.dtd"
   xmlns:inkscape="http://www.inkscape.org/namespaces/inkscape"
   width="210mm"
   height="297mm"
   viewBox="0 0 744.09448819 1052.3622047"
   id="svg5661"
   version="1.1"
   inkscape:version="0.91 r13725"
   sodipodi:docname="skeletron.svg">
  <defs
     id="defs5663">
    <clipPath
       clipPathUnits="userSpaceOnUse"
       id="clipPath4463">
      <path
         d="m 0,0 2267.717,0 0,5669.292 L 0,5669.292 0,0 Z"
         id="path4465"
         inkscape:connector-curvature="0" />
    </clipPath>
  </defs>
  <sodipodi:namedview
     id="base"
     pagecolor="#ffffff"
     bordercolor="#666666"
     borderopacity="1.0"
     inkscape:pageopacity="1"
     inkscape:pageshadow="2"
     inkscape:zoom="2.8"
     inkscape:cx="165.37947"
     inkscape:cy="954.20755"
     inkscape:document-units="px"
     inkscape:current-layer="layer1"
     showgrid="false"
     inkscape:window-width="1920"
     inkscape:window-height="1051"
     inkscape:window-x="3840"
     inkscape:window-y="0"
     inkscape:window-maximized="1" />
  <metadata
     id="metadata5666">
    <rdf:RDF>
      <cc:Work
         rdf:about="">
        <dc:format>image/svg+xml</dc:format>
        <dc:type
           rdf:resource="http://purl.org/dc/dcmitype/StillImage" />
        <dc:title></dc:title>
      </cc:Work>
    </rdf:RDF>
  </metadata>
  <g
     inkscape:label="Layer 1"
     inkscape:groupmode="layer"
     id="layer1">
    <g
       style="stroke:#000000;stroke-opacity:1"
       id="g4467"
       transform="matrix(0.09972753,0,0,-0.09972753,88.582771,84.90395)">
      <path
         d="m 0,0 0,-554.096 -185.078,-93.582 0,-425.77 m 370.154,0 0,425.77 L 0,-554.096 0,148.062 m -148.062,-555.232 296.124,0 m -296.124,185.077 333.138,0 M 0,0 -148.062,0 -527.822,-251.095 M 777.324,703.294 555.232,444.186 l 259.108,0 -148.063,-185.078 m -1443.601,444.186 222.092,-259.108 -259.108,0 148.061,-185.078 M 0,0 148.062,0 527.822,-251.095 M 0,814.34 c 183.988,0 333.139,-149.151 333.139,-333.139 0,-214.063 -185.077,-296.124 -185.077,-296.124 l 56.286,0 c 59.804,0 118.238,-17.938 167.742,-51.497 l 373.75,-253.356 c 96.986,-57.051 133.213,-179.472 82.89,-280.115 -52.845,-105.697 -181.371,-148.537 -287.066,-95.69 l -171.51,88.411 0,-740.309 c 0,-74.032 -37.015,-148.062 -148.062,-148.062 l -74.03,0 C 66.291,-1295.541 0,-1229.251 0,-1147.479 l 0,111.045 M 0,814.34 c -183.99,0 -333.139,-149.151 -333.139,-333.139 0,-214.063 185.077,-296.124 185.077,-296.124 l -56.286,0 c -59.806,0 -118.238,-17.938 -167.744,-51.497 L -745.84,-119.776 c -96.988,-57.051 -133.215,-179.472 -82.892,-280.115 52.847,-105.697 181.373,-148.537 287.066,-95.69 l 171.512,88.411 0,-740.309 c 0,-74.032 37.015,-148.062 148.06,-148.062 l 74.032,0 c 81.771,0 148.062,66.29 148.062,148.062 l 0,259.108"
         style="fill:none;stroke:#000000;stroke-width:74.03099823;stroke-linecap:round;stroke-linejoin:round;stroke-miterlimit:10;stroke-dasharray:none;stroke-opacity:1"
         id="path4469"
         inkscape:connector-curvature="0" />
    </g>
    <g
       style="stroke:#000000;stroke-opacity:1;fill:#000000;fill-opacity:1"
       id="g4471"
       transform="matrix(0.09972753,0,0,-0.09972753,81.199813,31.377831)">
      <path
         d="m 0,0 c 0,-30.662 -24.859,-55.522 -55.523,-55.522 -30.665,0 -55.524,24.86 -55.524,55.522 0,30.663 24.859,55.523 55.524,55.523 C -24.859,55.523 0,30.663 0,0"
         style="fill:#000000;fill-opacity:1;fill-rule:nonzero;stroke:#000000;stroke-opacity:1"
         id="path4473"
         inkscape:connector-curvature="0" />
    </g>
    <g
       style="stroke:#000000;stroke-opacity:1;fill:#000000;fill-opacity:1"
       id="g4475"
       transform="matrix(0.09972753,0,0,-0.09972753,107.03995,31.377831)">
      <path
         d="m 0,0 c 0,-30.662 -24.859,-55.522 -55.521,-55.522 -30.665,0 -55.524,24.86 -55.524,55.522 0,30.663 24.859,55.523 55.524,55.523 C -24.859,55.523 0,30.663 0,0"
         style="fill:#000000;fill-opacity:1;fill-rule:nonzero;stroke:#000000;stroke-opacity:1"
         id="path4477"
         inkscape:connector-curvature="0" />
    </g>
  </g>
</svg>
