G04 #@! TF.FileFunction,Legend,Bot*
%FSLAX46Y46*%
G04 Gerber Fmt 4.6, Leading zero omitted, Abs format (unit mm)*
G04 Created by KiCad (PCBNEW 4.0.2+dfsg1-stable) date tor 22 sep 2016 18:21:24 CEST*
%MOMM*%
G01*
G04 APERTURE LIST*
%ADD10C,0.100000*%
%ADD11C,0.300000*%
%ADD12R,2.400000X2.400000*%
%ADD13C,2.200000*%
G04 APERTURE END LIST*
D10*
D11*
X38212285Y-34026857D02*
X37997999Y-34098286D01*
X37926571Y-34169714D01*
X37855142Y-34312571D01*
X37855142Y-34526857D01*
X37926571Y-34669714D01*
X37997999Y-34741143D01*
X38140857Y-34812571D01*
X38712285Y-34812571D01*
X38712285Y-33312571D01*
X38212285Y-33312571D01*
X38069428Y-33384000D01*
X37997999Y-33455429D01*
X37926571Y-33598286D01*
X37926571Y-33741143D01*
X37997999Y-33884000D01*
X38069428Y-33955429D01*
X38212285Y-34026857D01*
X38712285Y-34026857D01*
X36569428Y-34812571D02*
X36569428Y-34026857D01*
X36640857Y-33884000D01*
X36783714Y-33812571D01*
X37069428Y-33812571D01*
X37212285Y-33884000D01*
X36569428Y-34741143D02*
X36712285Y-34812571D01*
X37069428Y-34812571D01*
X37212285Y-34741143D01*
X37283714Y-34598286D01*
X37283714Y-34455429D01*
X37212285Y-34312571D01*
X37069428Y-34241143D01*
X36712285Y-34241143D01*
X36569428Y-34169714D01*
X35212285Y-34812571D02*
X35212285Y-33312571D01*
X35212285Y-34741143D02*
X35355142Y-34812571D01*
X35640856Y-34812571D01*
X35783714Y-34741143D01*
X35855142Y-34669714D01*
X35926571Y-34526857D01*
X35926571Y-34098286D01*
X35855142Y-33955429D01*
X35783714Y-33884000D01*
X35640856Y-33812571D01*
X35355142Y-33812571D01*
X35212285Y-33884000D01*
X33855142Y-33812571D02*
X33855142Y-35026857D01*
X33926571Y-35169714D01*
X33997999Y-35241143D01*
X34140856Y-35312571D01*
X34355142Y-35312571D01*
X34497999Y-35241143D01*
X33855142Y-34741143D02*
X33997999Y-34812571D01*
X34283713Y-34812571D01*
X34426571Y-34741143D01*
X34497999Y-34669714D01*
X34569428Y-34526857D01*
X34569428Y-34098286D01*
X34497999Y-33955429D01*
X34426571Y-33884000D01*
X34283713Y-33812571D01*
X33997999Y-33812571D01*
X33855142Y-33884000D01*
X32569428Y-34741143D02*
X32712285Y-34812571D01*
X32997999Y-34812571D01*
X33140856Y-34741143D01*
X33212285Y-34598286D01*
X33212285Y-34026857D01*
X33140856Y-33884000D01*
X32997999Y-33812571D01*
X32712285Y-33812571D01*
X32569428Y-33884000D01*
X32497999Y-34026857D01*
X32497999Y-34169714D01*
X33212285Y-34312571D01*
X30212285Y-34026857D02*
X29997999Y-34098286D01*
X29926571Y-34169714D01*
X29855142Y-34312571D01*
X29855142Y-34526857D01*
X29926571Y-34669714D01*
X29997999Y-34741143D01*
X30140857Y-34812571D01*
X30712285Y-34812571D01*
X30712285Y-33312571D01*
X30212285Y-33312571D01*
X30069428Y-33384000D01*
X29997999Y-33455429D01*
X29926571Y-33598286D01*
X29926571Y-33741143D01*
X29997999Y-33884000D01*
X30069428Y-33955429D01*
X30212285Y-34026857D01*
X30712285Y-34026857D01*
X29355142Y-33812571D02*
X28997999Y-34812571D01*
X28640857Y-33812571D02*
X28997999Y-34812571D01*
X29140857Y-35169714D01*
X29212285Y-35241143D01*
X29355142Y-35312571D01*
X36855143Y-37212571D02*
X36855143Y-35712571D01*
X36855143Y-37141143D02*
X36998000Y-37212571D01*
X37283714Y-37212571D01*
X37426572Y-37141143D01*
X37498000Y-37069714D01*
X37569429Y-36926857D01*
X37569429Y-36498286D01*
X37498000Y-36355429D01*
X37426572Y-36284000D01*
X37283714Y-36212571D01*
X36998000Y-36212571D01*
X36855143Y-36284000D01*
X36140857Y-37212571D02*
X36140857Y-36212571D01*
X36140857Y-36498286D02*
X36069429Y-36355429D01*
X35998000Y-36284000D01*
X35855143Y-36212571D01*
X35712286Y-36212571D01*
X34640858Y-37141143D02*
X34783715Y-37212571D01*
X35069429Y-37212571D01*
X35212286Y-37141143D01*
X35283715Y-36998286D01*
X35283715Y-36426857D01*
X35212286Y-36284000D01*
X35069429Y-36212571D01*
X34783715Y-36212571D01*
X34640858Y-36284000D01*
X34569429Y-36426857D01*
X34569429Y-36569714D01*
X35283715Y-36712571D01*
X33926572Y-36212571D02*
X33926572Y-37212571D01*
X33926572Y-36355429D02*
X33855144Y-36284000D01*
X33712286Y-36212571D01*
X33498001Y-36212571D01*
X33355144Y-36284000D01*
X33283715Y-36426857D01*
X33283715Y-37212571D01*
X32569429Y-37069714D02*
X32498001Y-37141143D01*
X32569429Y-37212571D01*
X32640858Y-37141143D01*
X32569429Y-37069714D01*
X32569429Y-37212571D01*
X31212286Y-37212571D02*
X31212286Y-35712571D01*
X31212286Y-37141143D02*
X31355143Y-37212571D01*
X31640857Y-37212571D01*
X31783715Y-37141143D01*
X31855143Y-37069714D01*
X31926572Y-36926857D01*
X31926572Y-36498286D01*
X31855143Y-36355429D01*
X31783715Y-36284000D01*
X31640857Y-36212571D01*
X31355143Y-36212571D01*
X31212286Y-36284000D01*
X30498000Y-37212571D02*
X30498000Y-35712571D01*
X30355143Y-36641143D02*
X29926572Y-37212571D01*
X29926572Y-36212571D02*
X30498000Y-36784000D01*
%LPC*%
D12*
X38320000Y-56670000D03*
X38320000Y-54130000D03*
X38320000Y-51590000D03*
X38320000Y-49050000D03*
X38320000Y-74450000D03*
X35780000Y-74450000D03*
X33240000Y-74450000D03*
X30700000Y-74450000D03*
X28160000Y-74450000D03*
X25620000Y-74450000D03*
X38320000Y-71910000D03*
X35780000Y-71910000D03*
X33240000Y-71910000D03*
X30700000Y-71910000D03*
X28160000Y-71910000D03*
X25620000Y-71910000D03*
X38320000Y-69370000D03*
X35780000Y-69370000D03*
X33240000Y-69370000D03*
X30700000Y-69370000D03*
X28160000Y-69370000D03*
X25620000Y-69370000D03*
X38320000Y-66830000D03*
X35780000Y-66830000D03*
X33240000Y-66830000D03*
X30700000Y-66830000D03*
X28160000Y-66830000D03*
X25620000Y-66830000D03*
X38320000Y-64290000D03*
X35780000Y-64290000D03*
X33240000Y-64290000D03*
X30700000Y-64290000D03*
X28160000Y-64290000D03*
X25620000Y-64290000D03*
X38320000Y-61750000D03*
X35780000Y-61750000D03*
X33240000Y-61750000D03*
X30700000Y-61750000D03*
X38320000Y-59210000D03*
X35780000Y-59210000D03*
X68800000Y-74450000D03*
X66260000Y-74450000D03*
X63720000Y-74450000D03*
X61180000Y-74450000D03*
X58640000Y-74450000D03*
X68800000Y-71910000D03*
X66260000Y-71910000D03*
X63720000Y-71910000D03*
X61180000Y-71910000D03*
X58640000Y-71910000D03*
X68800000Y-69370000D03*
X66260000Y-69370000D03*
X63720000Y-69370000D03*
X61180000Y-69370000D03*
X58640000Y-69370000D03*
X68800000Y-66830000D03*
X66260000Y-66830000D03*
X63720000Y-66830000D03*
X61180000Y-66830000D03*
X58640000Y-66830000D03*
X68800000Y-64290000D03*
X66260000Y-64290000D03*
X63720000Y-64290000D03*
X61180000Y-64290000D03*
X58640000Y-64290000D03*
X63720000Y-61750000D03*
X61180000Y-61750000D03*
X58640000Y-61750000D03*
X61180000Y-59210000D03*
X68800000Y-127790000D03*
X66260000Y-127790000D03*
X63720000Y-127790000D03*
X61180000Y-127790000D03*
X58640000Y-127790000D03*
X56100000Y-127790000D03*
X53560000Y-127790000D03*
X51020000Y-127790000D03*
X48480000Y-127790000D03*
X45940000Y-127790000D03*
X43400000Y-127790000D03*
X40860000Y-127790000D03*
X38320000Y-127790000D03*
X35780000Y-127790000D03*
X33240000Y-127790000D03*
X30700000Y-127790000D03*
X28160000Y-127790000D03*
X68800000Y-125250000D03*
X66260000Y-125250000D03*
X63720000Y-125250000D03*
X61180000Y-125250000D03*
X58640000Y-125250000D03*
X56100000Y-125250000D03*
X53560000Y-125250000D03*
X51020000Y-125250000D03*
X48480000Y-125250000D03*
X45940000Y-125250000D03*
X43400000Y-125250000D03*
X40860000Y-125250000D03*
X38320000Y-125250000D03*
X35780000Y-125250000D03*
X33240000Y-125250000D03*
X30700000Y-125250000D03*
X28160000Y-125250000D03*
X68800000Y-122710000D03*
X66260000Y-122710000D03*
X63720000Y-122710000D03*
X61180000Y-122710000D03*
X58640000Y-122710000D03*
X56100000Y-122710000D03*
X53560000Y-122710000D03*
X51020000Y-122710000D03*
X48480000Y-122710000D03*
X45940000Y-122710000D03*
X43400000Y-122710000D03*
X40860000Y-122710000D03*
X38320000Y-122710000D03*
X35780000Y-122710000D03*
X33240000Y-122710000D03*
X30700000Y-122710000D03*
X28160000Y-122710000D03*
X68800000Y-120170000D03*
X66260000Y-120170000D03*
X63720000Y-120170000D03*
X61180000Y-120170000D03*
X58640000Y-120170000D03*
X56100000Y-120170000D03*
X53560000Y-120170000D03*
X51020000Y-120170000D03*
X48480000Y-120170000D03*
X45940000Y-120170000D03*
X43400000Y-120170000D03*
X40860000Y-120170000D03*
X38320000Y-120170000D03*
X35780000Y-120170000D03*
X33240000Y-120170000D03*
X30700000Y-120170000D03*
X28160000Y-120170000D03*
X68800000Y-117630000D03*
X66260000Y-117630000D03*
X63720000Y-117630000D03*
X61180000Y-117630000D03*
X58640000Y-117630000D03*
X56100000Y-117630000D03*
X53560000Y-117630000D03*
X51020000Y-117630000D03*
X48480000Y-117630000D03*
X45940000Y-117630000D03*
X43400000Y-117630000D03*
X40860000Y-117630000D03*
X38320000Y-117630000D03*
X35780000Y-117630000D03*
X33240000Y-117630000D03*
X30700000Y-117630000D03*
X28160000Y-117630000D03*
X68800000Y-115090000D03*
X66260000Y-115090000D03*
X63720000Y-115090000D03*
X61180000Y-115090000D03*
X58640000Y-115090000D03*
X56100000Y-115090000D03*
X53560000Y-115090000D03*
X51020000Y-115090000D03*
X48480000Y-115090000D03*
X45940000Y-115090000D03*
X43400000Y-115090000D03*
X40860000Y-115090000D03*
X38320000Y-115090000D03*
X35780000Y-115090000D03*
X33240000Y-115090000D03*
X30700000Y-115090000D03*
X28160000Y-115090000D03*
X68800000Y-112550000D03*
X66260000Y-112550000D03*
X63720000Y-112550000D03*
X61180000Y-112550000D03*
X58640000Y-112550000D03*
X56100000Y-112550000D03*
X53560000Y-112550000D03*
X51020000Y-112550000D03*
X48480000Y-112550000D03*
X45940000Y-112550000D03*
X43400000Y-112550000D03*
X40860000Y-112550000D03*
X38320000Y-112550000D03*
X35780000Y-112550000D03*
X33240000Y-112550000D03*
X30700000Y-112550000D03*
X28160000Y-112550000D03*
X68800000Y-110010000D03*
X66260000Y-110010000D03*
X63720000Y-110010000D03*
X61180000Y-110010000D03*
X58640000Y-110010000D03*
X56100000Y-110010000D03*
X53560000Y-110010000D03*
X51020000Y-110010000D03*
X48480000Y-110010000D03*
X45940000Y-110010000D03*
X43400000Y-110010000D03*
X40860000Y-110010000D03*
X38320000Y-110010000D03*
X35780000Y-110010000D03*
X33240000Y-110010000D03*
X30700000Y-110010000D03*
X28160000Y-110010000D03*
X68800000Y-107470000D03*
X66260000Y-107470000D03*
X63720000Y-107470000D03*
X61180000Y-107470000D03*
X58640000Y-107470000D03*
X56100000Y-107470000D03*
X53560000Y-107470000D03*
X51020000Y-107470000D03*
X48480000Y-107470000D03*
X45940000Y-107470000D03*
X43400000Y-107470000D03*
X40860000Y-107470000D03*
X38320000Y-107470000D03*
X35780000Y-107470000D03*
X33240000Y-107470000D03*
X30700000Y-107470000D03*
X28160000Y-107470000D03*
X68800000Y-104930000D03*
X66260000Y-104930000D03*
X63720000Y-104930000D03*
X61180000Y-104930000D03*
X58640000Y-104930000D03*
X56100000Y-104930000D03*
X53560000Y-104930000D03*
X51020000Y-104930000D03*
X48480000Y-104930000D03*
X45940000Y-104930000D03*
X43400000Y-104930000D03*
X40860000Y-104930000D03*
X38320000Y-104930000D03*
X35780000Y-104930000D03*
X33240000Y-104930000D03*
X30700000Y-104930000D03*
X28160000Y-104930000D03*
X68800000Y-102390000D03*
X66260000Y-102390000D03*
X63720000Y-102390000D03*
X61180000Y-102390000D03*
X58640000Y-102390000D03*
X56100000Y-102390000D03*
X53560000Y-102390000D03*
X51020000Y-102390000D03*
X48480000Y-102390000D03*
X45940000Y-102390000D03*
X43400000Y-102390000D03*
X40860000Y-102390000D03*
X38320000Y-102390000D03*
X35780000Y-102390000D03*
X33240000Y-102390000D03*
X30700000Y-102390000D03*
X28160000Y-102390000D03*
X56100000Y-99850000D03*
X53560000Y-99850000D03*
X51020000Y-99850000D03*
X48480000Y-99850000D03*
X45940000Y-99850000D03*
X43400000Y-99850000D03*
X40860000Y-99850000D03*
X56100000Y-97310000D03*
X53560000Y-97310000D03*
X51020000Y-97310000D03*
X48480000Y-97310000D03*
X45940000Y-97310000D03*
X43400000Y-97310000D03*
X40860000Y-97310000D03*
X56100000Y-94770000D03*
X53560000Y-94770000D03*
X51020000Y-94770000D03*
X48480000Y-94770000D03*
X45940000Y-94770000D03*
X43400000Y-94770000D03*
X40860000Y-94770000D03*
X56100000Y-92230000D03*
X53560000Y-92230000D03*
X51020000Y-92230000D03*
X48480000Y-92230000D03*
X45940000Y-92230000D03*
X43400000Y-92230000D03*
X40860000Y-92230000D03*
X56100000Y-89690000D03*
X53560000Y-89690000D03*
X51020000Y-89690000D03*
X48480000Y-89690000D03*
X45940000Y-89690000D03*
X43400000Y-89690000D03*
X40860000Y-89690000D03*
X56100000Y-87150000D03*
X53560000Y-87150000D03*
X51020000Y-87150000D03*
X48480000Y-87150000D03*
X45940000Y-87150000D03*
X43400000Y-87150000D03*
X40860000Y-87150000D03*
X56100000Y-84610000D03*
X53560000Y-84610000D03*
X51020000Y-84610000D03*
X48480000Y-84610000D03*
X45940000Y-84610000D03*
X43400000Y-84610000D03*
X40860000Y-84610000D03*
X56100000Y-82070000D03*
X53560000Y-82070000D03*
X51020000Y-82070000D03*
X48480000Y-82070000D03*
X45940000Y-82070000D03*
X43400000Y-82070000D03*
X40860000Y-82070000D03*
X56100000Y-79530000D03*
X53560000Y-79530000D03*
X51020000Y-79530000D03*
X48480000Y-79530000D03*
X45940000Y-79530000D03*
X43400000Y-79530000D03*
X40860000Y-79530000D03*
X56100000Y-76990000D03*
X53560000Y-76990000D03*
X51020000Y-76990000D03*
X48480000Y-76990000D03*
X45940000Y-76990000D03*
X43400000Y-76990000D03*
X40860000Y-76990000D03*
X56100000Y-74450000D03*
X53560000Y-74450000D03*
X51020000Y-74450000D03*
X48480000Y-74450000D03*
X45940000Y-74450000D03*
X43400000Y-74450000D03*
X40860000Y-74450000D03*
X56100000Y-71910000D03*
X53560000Y-71910000D03*
X51020000Y-71910000D03*
X48480000Y-71910000D03*
X45940000Y-71910000D03*
X43400000Y-71910000D03*
X40860000Y-71910000D03*
X56100000Y-69370000D03*
X53560000Y-69370000D03*
X51020000Y-69370000D03*
X48480000Y-69370000D03*
X45940000Y-69370000D03*
X43400000Y-69370000D03*
X40860000Y-69370000D03*
X56100000Y-66830000D03*
X53560000Y-66830000D03*
X51020000Y-66830000D03*
X48480000Y-66830000D03*
X45940000Y-66830000D03*
X43400000Y-66830000D03*
X40860000Y-66830000D03*
X56100000Y-64290000D03*
X53560000Y-64290000D03*
X51020000Y-64290000D03*
X48480000Y-64290000D03*
X45940000Y-64290000D03*
X43400000Y-64290000D03*
X40860000Y-64290000D03*
X56100000Y-61750000D03*
X53560000Y-61750000D03*
X51020000Y-61750000D03*
X48480000Y-61750000D03*
X45940000Y-61750000D03*
X43400000Y-61750000D03*
X40860000Y-61750000D03*
X56100000Y-59210000D03*
X53560000Y-59210000D03*
X51020000Y-59210000D03*
X48480000Y-59210000D03*
X45940000Y-59210000D03*
X43400000Y-59210000D03*
X40860000Y-59210000D03*
X56100000Y-56670000D03*
X53560000Y-56670000D03*
X51020000Y-56670000D03*
X48480000Y-56670000D03*
X45940000Y-56670000D03*
X43400000Y-56670000D03*
X40860000Y-56670000D03*
X56100000Y-54130000D03*
X53560000Y-54130000D03*
X51020000Y-54130000D03*
X48480000Y-54130000D03*
X45940000Y-54130000D03*
X43400000Y-54130000D03*
X40860000Y-54130000D03*
X56100000Y-51590000D03*
X53560000Y-51590000D03*
X51020000Y-51590000D03*
X48480000Y-51590000D03*
X45940000Y-51590000D03*
X43400000Y-51590000D03*
X40860000Y-51590000D03*
X56100000Y-49050000D03*
X53560000Y-49050000D03*
X51020000Y-49050000D03*
X48480000Y-49050000D03*
X45940000Y-49050000D03*
X43400000Y-49050000D03*
X40860000Y-49050000D03*
X56100000Y-46510000D03*
X53560000Y-46510000D03*
X51020000Y-46510000D03*
X48480000Y-46510000D03*
X45940000Y-46510000D03*
X43400000Y-46510000D03*
X40860000Y-46510000D03*
X53560000Y-43970000D03*
X51020000Y-43970000D03*
X48480000Y-43970000D03*
X45940000Y-43970000D03*
X43400000Y-43970000D03*
X40860000Y-43970000D03*
X53560000Y-41430000D03*
X51020000Y-41430000D03*
X48480000Y-41430000D03*
X45940000Y-41430000D03*
X43400000Y-41430000D03*
X40860000Y-41430000D03*
X53560000Y-38890000D03*
X51020000Y-38890000D03*
X48480000Y-38890000D03*
X45940000Y-38890000D03*
X43400000Y-38890000D03*
D13*
X57370000Y-41430000D03*
X57370000Y-43970000D03*
X57370000Y-38890000D03*
X70070000Y-61750000D03*
X67530000Y-61750000D03*
X70070000Y-59210000D03*
X67530000Y-59210000D03*
X64990000Y-59210000D03*
X70070000Y-56670000D03*
X67530000Y-56670000D03*
X64990000Y-56670000D03*
X62450000Y-56670000D03*
X59910000Y-56670000D03*
X70070000Y-54130000D03*
X67530000Y-54130000D03*
X64990000Y-54130000D03*
X62450000Y-54130000D03*
X59910000Y-54130000D03*
X70070000Y-51590000D03*
X67530000Y-51590000D03*
X64990000Y-51590000D03*
X62450000Y-51590000D03*
X59910000Y-51590000D03*
X70070000Y-49050000D03*
X67530000Y-49050000D03*
X64990000Y-49050000D03*
X62450000Y-49050000D03*
X59910000Y-49050000D03*
X70070000Y-46510000D03*
X67530000Y-46510000D03*
X64990000Y-46510000D03*
X62450000Y-46510000D03*
X59910000Y-46510000D03*
X70070000Y-43970000D03*
X67530000Y-43970000D03*
X64990000Y-43970000D03*
X62450000Y-43970000D03*
X59910000Y-43970000D03*
X70070000Y-41430000D03*
X67530000Y-41430000D03*
X64990000Y-41430000D03*
X62450000Y-41430000D03*
X59910000Y-41430000D03*
X70070000Y-38890000D03*
X67530000Y-38890000D03*
X64990000Y-38890000D03*
X62450000Y-38890000D03*
X59910000Y-38890000D03*
X28160000Y-61750000D03*
X25620000Y-61750000D03*
X33240000Y-59210000D03*
X30700000Y-59210000D03*
X28160000Y-59210000D03*
X25620000Y-59210000D03*
X35780000Y-56670000D03*
X33240000Y-56670000D03*
X30700000Y-56670000D03*
X28160000Y-56670000D03*
X25620000Y-56670000D03*
X35780000Y-54130000D03*
X33240000Y-54130000D03*
X30700000Y-54130000D03*
X28160000Y-54130000D03*
X25620000Y-54130000D03*
X35780000Y-51590000D03*
X33240000Y-51590000D03*
X30700000Y-51590000D03*
X28160000Y-51590000D03*
X25620000Y-51590000D03*
X35780000Y-49050000D03*
X33240000Y-49050000D03*
X30700000Y-49050000D03*
X28160000Y-49050000D03*
X25620000Y-49050000D03*
X35780000Y-46510000D03*
X33240000Y-46510000D03*
X30700000Y-46510000D03*
X28160000Y-46510000D03*
X25620000Y-46510000D03*
X38320000Y-43970000D03*
X35780000Y-43970000D03*
X33240000Y-43970000D03*
X30700000Y-43970000D03*
X28160000Y-43970000D03*
X25620000Y-43970000D03*
X38320000Y-41430000D03*
X35780000Y-41430000D03*
X33240000Y-41430000D03*
X30700000Y-41430000D03*
X28160000Y-41430000D03*
X25620000Y-41430000D03*
X38320000Y-38890000D03*
X35780000Y-38890000D03*
X33240000Y-38890000D03*
X30700000Y-38890000D03*
X28160000Y-38890000D03*
X70070000Y-98580000D03*
X67530000Y-98580000D03*
X64990000Y-98580000D03*
X62450000Y-98580000D03*
X59910000Y-98580000D03*
X70070000Y-96040000D03*
X67530000Y-96040000D03*
X64990000Y-96040000D03*
X62450000Y-96040000D03*
X59910000Y-96040000D03*
X70070000Y-93500000D03*
X67530000Y-93500000D03*
X64990000Y-93500000D03*
X62450000Y-93500000D03*
X59910000Y-93500000D03*
X70070000Y-90960000D03*
X67530000Y-90960000D03*
X64990000Y-90960000D03*
X62450000Y-90960000D03*
X59910000Y-90960000D03*
X70070000Y-88420000D03*
X67530000Y-88420000D03*
X64990000Y-88420000D03*
X62450000Y-88420000D03*
X59910000Y-88420000D03*
X70070000Y-85880000D03*
X67530000Y-85880000D03*
X64990000Y-85880000D03*
X62450000Y-85880000D03*
X59910000Y-85880000D03*
X70070000Y-83340000D03*
X67530000Y-83340000D03*
X64990000Y-83340000D03*
X62450000Y-83340000D03*
X59910000Y-83340000D03*
X70070000Y-80800000D03*
X67530000Y-80800000D03*
X64990000Y-80800000D03*
X62450000Y-80800000D03*
X59910000Y-80800000D03*
X70070000Y-78260000D03*
X67530000Y-78260000D03*
X64990000Y-78260000D03*
X62450000Y-78260000D03*
X35780000Y-98580000D03*
X33240000Y-98580000D03*
X30700000Y-98580000D03*
X28160000Y-98580000D03*
X25620000Y-98580000D03*
X35780000Y-96040000D03*
X33240000Y-96040000D03*
X30700000Y-96040000D03*
X28160000Y-96040000D03*
X25620000Y-96040000D03*
X35780000Y-93500000D03*
X33240000Y-93500000D03*
X30700000Y-93500000D03*
X28160000Y-93500000D03*
X25620000Y-93500000D03*
X35780000Y-90960000D03*
X33240000Y-90960000D03*
X30700000Y-90960000D03*
X28160000Y-90960000D03*
X25620000Y-90960000D03*
X35780000Y-88420000D03*
X33240000Y-88420000D03*
X30700000Y-88420000D03*
X28160000Y-88420000D03*
X25620000Y-88420000D03*
X35780000Y-85880000D03*
X33240000Y-85880000D03*
X30700000Y-85880000D03*
X28160000Y-85880000D03*
X25620000Y-85880000D03*
X35780000Y-83340000D03*
X33240000Y-83340000D03*
X30700000Y-83340000D03*
X28160000Y-83340000D03*
X25620000Y-83340000D03*
X35780000Y-80800000D03*
X33240000Y-80800000D03*
X30700000Y-80800000D03*
X28160000Y-80800000D03*
X25620000Y-80800000D03*
X35780000Y-78260000D03*
X33240000Y-78260000D03*
X30700000Y-78260000D03*
X28160000Y-78260000D03*
X25620000Y-78260000D03*
X59910000Y-78260000D03*
X25620000Y-38890000D03*
D12*
X40860000Y-38890000D03*
X58640000Y-59210000D03*
X38320000Y-46510000D03*
M02*
