G04 #@! TF.FileFunction,Soldermask,Bot*
%FSLAX46Y46*%
G04 Gerber Fmt 4.6, Leading zero omitted, Abs format (unit mm)*
G04 Created by KiCad (PCBNEW 4.0.2+dfsg1-stable) date tor 22 sep 2016 18:21:25 CEST*
%MOMM*%
G01*
G04 APERTURE LIST*
%ADD10C,0.100000*%
%ADD11R,2.400000X2.400000*%
%ADD12C,2.200000*%
G04 APERTURE END LIST*
D10*
D11*
X38320000Y-56670000D03*
X38320000Y-54130000D03*
X38320000Y-51590000D03*
X38320000Y-49050000D03*
X38320000Y-74450000D03*
X35780000Y-74450000D03*
X33240000Y-74450000D03*
X30700000Y-74450000D03*
X28160000Y-74450000D03*
X25620000Y-74450000D03*
X38320000Y-71910000D03*
X35780000Y-71910000D03*
X33240000Y-71910000D03*
X30700000Y-71910000D03*
X28160000Y-71910000D03*
X25620000Y-71910000D03*
X38320000Y-69370000D03*
X35780000Y-69370000D03*
X33240000Y-69370000D03*
X30700000Y-69370000D03*
X28160000Y-69370000D03*
X25620000Y-69370000D03*
X38320000Y-66830000D03*
X35780000Y-66830000D03*
X33240000Y-66830000D03*
X30700000Y-66830000D03*
X28160000Y-66830000D03*
X25620000Y-66830000D03*
X38320000Y-64290000D03*
X35780000Y-64290000D03*
X33240000Y-64290000D03*
X30700000Y-64290000D03*
X28160000Y-64290000D03*
X25620000Y-64290000D03*
X38320000Y-61750000D03*
X35780000Y-61750000D03*
X33240000Y-61750000D03*
X30700000Y-61750000D03*
X38320000Y-59210000D03*
X35780000Y-59210000D03*
X68800000Y-74450000D03*
X66260000Y-74450000D03*
X63720000Y-74450000D03*
X61180000Y-74450000D03*
X58640000Y-74450000D03*
X68800000Y-71910000D03*
X66260000Y-71910000D03*
X63720000Y-71910000D03*
X61180000Y-71910000D03*
X58640000Y-71910000D03*
X68800000Y-69370000D03*
X66260000Y-69370000D03*
X63720000Y-69370000D03*
X61180000Y-69370000D03*
X58640000Y-69370000D03*
X68800000Y-66830000D03*
X66260000Y-66830000D03*
X63720000Y-66830000D03*
X61180000Y-66830000D03*
X58640000Y-66830000D03*
X68800000Y-64290000D03*
X66260000Y-64290000D03*
X63720000Y-64290000D03*
X61180000Y-64290000D03*
X58640000Y-64290000D03*
X63720000Y-61750000D03*
X61180000Y-61750000D03*
X58640000Y-61750000D03*
X61180000Y-59210000D03*
X68800000Y-127790000D03*
X66260000Y-127790000D03*
X63720000Y-127790000D03*
X61180000Y-127790000D03*
X58640000Y-127790000D03*
X56100000Y-127790000D03*
X53560000Y-127790000D03*
X51020000Y-127790000D03*
X48480000Y-127790000D03*
X45940000Y-127790000D03*
X43400000Y-127790000D03*
X40860000Y-127790000D03*
X38320000Y-127790000D03*
X35780000Y-127790000D03*
X33240000Y-127790000D03*
X30700000Y-127790000D03*
X28160000Y-127790000D03*
X68800000Y-125250000D03*
X66260000Y-125250000D03*
X63720000Y-125250000D03*
X61180000Y-125250000D03*
X58640000Y-125250000D03*
X56100000Y-125250000D03*
X53560000Y-125250000D03*
X51020000Y-125250000D03*
X48480000Y-125250000D03*
X45940000Y-125250000D03*
X43400000Y-125250000D03*
X40860000Y-125250000D03*
X38320000Y-125250000D03*
X35780000Y-125250000D03*
X33240000Y-125250000D03*
X30700000Y-125250000D03*
X28160000Y-125250000D03*
X68800000Y-122710000D03*
X66260000Y-122710000D03*
X63720000Y-122710000D03*
X61180000Y-122710000D03*
X58640000Y-122710000D03*
X56100000Y-122710000D03*
X53560000Y-122710000D03*
X51020000Y-122710000D03*
X48480000Y-122710000D03*
X45940000Y-122710000D03*
X43400000Y-122710000D03*
X40860000Y-122710000D03*
X38320000Y-122710000D03*
X35780000Y-122710000D03*
X33240000Y-122710000D03*
X30700000Y-122710000D03*
X28160000Y-122710000D03*
X68800000Y-120170000D03*
X66260000Y-120170000D03*
X63720000Y-120170000D03*
X61180000Y-120170000D03*
X58640000Y-120170000D03*
X56100000Y-120170000D03*
X53560000Y-120170000D03*
X51020000Y-120170000D03*
X48480000Y-120170000D03*
X45940000Y-120170000D03*
X43400000Y-120170000D03*
X40860000Y-120170000D03*
X38320000Y-120170000D03*
X35780000Y-120170000D03*
X33240000Y-120170000D03*
X30700000Y-120170000D03*
X28160000Y-120170000D03*
X68800000Y-117630000D03*
X66260000Y-117630000D03*
X63720000Y-117630000D03*
X61180000Y-117630000D03*
X58640000Y-117630000D03*
X56100000Y-117630000D03*
X53560000Y-117630000D03*
X51020000Y-117630000D03*
X48480000Y-117630000D03*
X45940000Y-117630000D03*
X43400000Y-117630000D03*
X40860000Y-117630000D03*
X38320000Y-117630000D03*
X35780000Y-117630000D03*
X33240000Y-117630000D03*
X30700000Y-117630000D03*
X28160000Y-117630000D03*
X68800000Y-115090000D03*
X66260000Y-115090000D03*
X63720000Y-115090000D03*
X61180000Y-115090000D03*
X58640000Y-115090000D03*
X56100000Y-115090000D03*
X53560000Y-115090000D03*
X51020000Y-115090000D03*
X48480000Y-115090000D03*
X45940000Y-115090000D03*
X43400000Y-115090000D03*
X40860000Y-115090000D03*
X38320000Y-115090000D03*
X35780000Y-115090000D03*
X33240000Y-115090000D03*
X30700000Y-115090000D03*
X28160000Y-115090000D03*
X68800000Y-112550000D03*
X66260000Y-112550000D03*
X63720000Y-112550000D03*
X61180000Y-112550000D03*
X58640000Y-112550000D03*
X56100000Y-112550000D03*
X53560000Y-112550000D03*
X51020000Y-112550000D03*
X48480000Y-112550000D03*
X45940000Y-112550000D03*
X43400000Y-112550000D03*
X40860000Y-112550000D03*
X38320000Y-112550000D03*
X35780000Y-112550000D03*
X33240000Y-112550000D03*
X30700000Y-112550000D03*
X28160000Y-112550000D03*
X68800000Y-110010000D03*
X66260000Y-110010000D03*
X63720000Y-110010000D03*
X61180000Y-110010000D03*
X58640000Y-110010000D03*
X56100000Y-110010000D03*
X53560000Y-110010000D03*
X51020000Y-110010000D03*
X48480000Y-110010000D03*
X45940000Y-110010000D03*
X43400000Y-110010000D03*
X40860000Y-110010000D03*
X38320000Y-110010000D03*
X35780000Y-110010000D03*
X33240000Y-110010000D03*
X30700000Y-110010000D03*
X28160000Y-110010000D03*
X68800000Y-107470000D03*
X66260000Y-107470000D03*
X63720000Y-107470000D03*
X61180000Y-107470000D03*
X58640000Y-107470000D03*
X56100000Y-107470000D03*
X53560000Y-107470000D03*
X51020000Y-107470000D03*
X48480000Y-107470000D03*
X45940000Y-107470000D03*
X43400000Y-107470000D03*
X40860000Y-107470000D03*
X38320000Y-107470000D03*
X35780000Y-107470000D03*
X33240000Y-107470000D03*
X30700000Y-107470000D03*
X28160000Y-107470000D03*
X68800000Y-104930000D03*
X66260000Y-104930000D03*
X63720000Y-104930000D03*
X61180000Y-104930000D03*
X58640000Y-104930000D03*
X56100000Y-104930000D03*
X53560000Y-104930000D03*
X51020000Y-104930000D03*
X48480000Y-104930000D03*
X45940000Y-104930000D03*
X43400000Y-104930000D03*
X40860000Y-104930000D03*
X38320000Y-104930000D03*
X35780000Y-104930000D03*
X33240000Y-104930000D03*
X30700000Y-104930000D03*
X28160000Y-104930000D03*
X68800000Y-102390000D03*
X66260000Y-102390000D03*
X63720000Y-102390000D03*
X61180000Y-102390000D03*
X58640000Y-102390000D03*
X56100000Y-102390000D03*
X53560000Y-102390000D03*
X51020000Y-102390000D03*
X48480000Y-102390000D03*
X45940000Y-102390000D03*
X43400000Y-102390000D03*
X40860000Y-102390000D03*
X38320000Y-102390000D03*
X35780000Y-102390000D03*
X33240000Y-102390000D03*
X30700000Y-102390000D03*
X28160000Y-102390000D03*
X56100000Y-99850000D03*
X53560000Y-99850000D03*
X51020000Y-99850000D03*
X48480000Y-99850000D03*
X45940000Y-99850000D03*
X43400000Y-99850000D03*
X40860000Y-99850000D03*
X56100000Y-97310000D03*
X53560000Y-97310000D03*
X51020000Y-97310000D03*
X48480000Y-97310000D03*
X45940000Y-97310000D03*
X43400000Y-97310000D03*
X40860000Y-97310000D03*
X56100000Y-94770000D03*
X53560000Y-94770000D03*
X51020000Y-94770000D03*
X48480000Y-94770000D03*
X45940000Y-94770000D03*
X43400000Y-94770000D03*
X40860000Y-94770000D03*
X56100000Y-92230000D03*
X53560000Y-92230000D03*
X51020000Y-92230000D03*
X48480000Y-92230000D03*
X45940000Y-92230000D03*
X43400000Y-92230000D03*
X40860000Y-92230000D03*
X56100000Y-89690000D03*
X53560000Y-89690000D03*
X51020000Y-89690000D03*
X48480000Y-89690000D03*
X45940000Y-89690000D03*
X43400000Y-89690000D03*
X40860000Y-89690000D03*
X56100000Y-87150000D03*
X53560000Y-87150000D03*
X51020000Y-87150000D03*
X48480000Y-87150000D03*
X45940000Y-87150000D03*
X43400000Y-87150000D03*
X40860000Y-87150000D03*
X56100000Y-84610000D03*
X53560000Y-84610000D03*
X51020000Y-84610000D03*
X48480000Y-84610000D03*
X45940000Y-84610000D03*
X43400000Y-84610000D03*
X40860000Y-84610000D03*
X56100000Y-82070000D03*
X53560000Y-82070000D03*
X51020000Y-82070000D03*
X48480000Y-82070000D03*
X45940000Y-82070000D03*
X43400000Y-82070000D03*
X40860000Y-82070000D03*
X56100000Y-79530000D03*
X53560000Y-79530000D03*
X51020000Y-79530000D03*
X48480000Y-79530000D03*
X45940000Y-79530000D03*
X43400000Y-79530000D03*
X40860000Y-79530000D03*
X56100000Y-76990000D03*
X53560000Y-76990000D03*
X51020000Y-76990000D03*
X48480000Y-76990000D03*
X45940000Y-76990000D03*
X43400000Y-76990000D03*
X40860000Y-76990000D03*
X56100000Y-74450000D03*
X53560000Y-74450000D03*
X51020000Y-74450000D03*
X48480000Y-74450000D03*
X45940000Y-74450000D03*
X43400000Y-74450000D03*
X40860000Y-74450000D03*
X56100000Y-71910000D03*
X53560000Y-71910000D03*
X51020000Y-71910000D03*
X48480000Y-71910000D03*
X45940000Y-71910000D03*
X43400000Y-71910000D03*
X40860000Y-71910000D03*
X56100000Y-69370000D03*
X53560000Y-69370000D03*
X51020000Y-69370000D03*
X48480000Y-69370000D03*
X45940000Y-69370000D03*
X43400000Y-69370000D03*
X40860000Y-69370000D03*
X56100000Y-66830000D03*
X53560000Y-66830000D03*
X51020000Y-66830000D03*
X48480000Y-66830000D03*
X45940000Y-66830000D03*
X43400000Y-66830000D03*
X40860000Y-66830000D03*
X56100000Y-64290000D03*
X53560000Y-64290000D03*
X51020000Y-64290000D03*
X48480000Y-64290000D03*
X45940000Y-64290000D03*
X43400000Y-64290000D03*
X40860000Y-64290000D03*
X56100000Y-61750000D03*
X53560000Y-61750000D03*
X51020000Y-61750000D03*
X48480000Y-61750000D03*
X45940000Y-61750000D03*
X43400000Y-61750000D03*
X40860000Y-61750000D03*
X56100000Y-59210000D03*
X53560000Y-59210000D03*
X51020000Y-59210000D03*
X48480000Y-59210000D03*
X45940000Y-59210000D03*
X43400000Y-59210000D03*
X40860000Y-59210000D03*
X56100000Y-56670000D03*
X53560000Y-56670000D03*
X51020000Y-56670000D03*
X48480000Y-56670000D03*
X45940000Y-56670000D03*
X43400000Y-56670000D03*
X40860000Y-56670000D03*
X56100000Y-54130000D03*
X53560000Y-54130000D03*
X51020000Y-54130000D03*
X48480000Y-54130000D03*
X45940000Y-54130000D03*
X43400000Y-54130000D03*
X40860000Y-54130000D03*
X56100000Y-51590000D03*
X53560000Y-51590000D03*
X51020000Y-51590000D03*
X48480000Y-51590000D03*
X45940000Y-51590000D03*
X43400000Y-51590000D03*
X40860000Y-51590000D03*
X56100000Y-49050000D03*
X53560000Y-49050000D03*
X51020000Y-49050000D03*
X48480000Y-49050000D03*
X45940000Y-49050000D03*
X43400000Y-49050000D03*
X40860000Y-49050000D03*
X56100000Y-46510000D03*
X53560000Y-46510000D03*
X51020000Y-46510000D03*
X48480000Y-46510000D03*
X45940000Y-46510000D03*
X43400000Y-46510000D03*
X40860000Y-46510000D03*
X53560000Y-43970000D03*
X51020000Y-43970000D03*
X48480000Y-43970000D03*
X45940000Y-43970000D03*
X43400000Y-43970000D03*
X40860000Y-43970000D03*
X53560000Y-41430000D03*
X51020000Y-41430000D03*
X48480000Y-41430000D03*
X45940000Y-41430000D03*
X43400000Y-41430000D03*
X40860000Y-41430000D03*
X53560000Y-38890000D03*
X51020000Y-38890000D03*
X48480000Y-38890000D03*
X45940000Y-38890000D03*
X43400000Y-38890000D03*
D12*
X57370000Y-41430000D03*
X57370000Y-43970000D03*
X57370000Y-38890000D03*
X70070000Y-61750000D03*
X67530000Y-61750000D03*
X70070000Y-59210000D03*
X67530000Y-59210000D03*
X64990000Y-59210000D03*
X70070000Y-56670000D03*
X67530000Y-56670000D03*
X64990000Y-56670000D03*
X62450000Y-56670000D03*
X59910000Y-56670000D03*
X70070000Y-54130000D03*
X67530000Y-54130000D03*
X64990000Y-54130000D03*
X62450000Y-54130000D03*
X59910000Y-54130000D03*
X70070000Y-51590000D03*
X67530000Y-51590000D03*
X64990000Y-51590000D03*
X62450000Y-51590000D03*
X59910000Y-51590000D03*
X70070000Y-49050000D03*
X67530000Y-49050000D03*
X64990000Y-49050000D03*
X62450000Y-49050000D03*
X59910000Y-49050000D03*
X70070000Y-46510000D03*
X67530000Y-46510000D03*
X64990000Y-46510000D03*
X62450000Y-46510000D03*
X59910000Y-46510000D03*
X70070000Y-43970000D03*
X67530000Y-43970000D03*
X64990000Y-43970000D03*
X62450000Y-43970000D03*
X59910000Y-43970000D03*
X70070000Y-41430000D03*
X67530000Y-41430000D03*
X64990000Y-41430000D03*
X62450000Y-41430000D03*
X59910000Y-41430000D03*
X70070000Y-38890000D03*
X67530000Y-38890000D03*
X64990000Y-38890000D03*
X62450000Y-38890000D03*
X59910000Y-38890000D03*
X28160000Y-61750000D03*
X25620000Y-61750000D03*
X33240000Y-59210000D03*
X30700000Y-59210000D03*
X28160000Y-59210000D03*
X25620000Y-59210000D03*
X35780000Y-56670000D03*
X33240000Y-56670000D03*
X30700000Y-56670000D03*
X28160000Y-56670000D03*
X25620000Y-56670000D03*
X35780000Y-54130000D03*
X33240000Y-54130000D03*
X30700000Y-54130000D03*
X28160000Y-54130000D03*
X25620000Y-54130000D03*
X35780000Y-51590000D03*
X33240000Y-51590000D03*
X30700000Y-51590000D03*
X28160000Y-51590000D03*
X25620000Y-51590000D03*
X35780000Y-49050000D03*
X33240000Y-49050000D03*
X30700000Y-49050000D03*
X28160000Y-49050000D03*
X25620000Y-49050000D03*
X35780000Y-46510000D03*
X33240000Y-46510000D03*
X30700000Y-46510000D03*
X28160000Y-46510000D03*
X25620000Y-46510000D03*
X38320000Y-43970000D03*
X35780000Y-43970000D03*
X33240000Y-43970000D03*
X30700000Y-43970000D03*
X28160000Y-43970000D03*
X25620000Y-43970000D03*
X38320000Y-41430000D03*
X35780000Y-41430000D03*
X33240000Y-41430000D03*
X30700000Y-41430000D03*
X28160000Y-41430000D03*
X25620000Y-41430000D03*
X38320000Y-38890000D03*
X35780000Y-38890000D03*
X33240000Y-38890000D03*
X30700000Y-38890000D03*
X28160000Y-38890000D03*
X70070000Y-98580000D03*
X67530000Y-98580000D03*
X64990000Y-98580000D03*
X62450000Y-98580000D03*
X59910000Y-98580000D03*
X70070000Y-96040000D03*
X67530000Y-96040000D03*
X64990000Y-96040000D03*
X62450000Y-96040000D03*
X59910000Y-96040000D03*
X70070000Y-93500000D03*
X67530000Y-93500000D03*
X64990000Y-93500000D03*
X62450000Y-93500000D03*
X59910000Y-93500000D03*
X70070000Y-90960000D03*
X67530000Y-90960000D03*
X64990000Y-90960000D03*
X62450000Y-90960000D03*
X59910000Y-90960000D03*
X70070000Y-88420000D03*
X67530000Y-88420000D03*
X64990000Y-88420000D03*
X62450000Y-88420000D03*
X59910000Y-88420000D03*
X70070000Y-85880000D03*
X67530000Y-85880000D03*
X64990000Y-85880000D03*
X62450000Y-85880000D03*
X59910000Y-85880000D03*
X70070000Y-83340000D03*
X67530000Y-83340000D03*
X64990000Y-83340000D03*
X62450000Y-83340000D03*
X59910000Y-83340000D03*
X70070000Y-80800000D03*
X67530000Y-80800000D03*
X64990000Y-80800000D03*
X62450000Y-80800000D03*
X59910000Y-80800000D03*
X70070000Y-78260000D03*
X67530000Y-78260000D03*
X64990000Y-78260000D03*
X62450000Y-78260000D03*
X35780000Y-98580000D03*
X33240000Y-98580000D03*
X30700000Y-98580000D03*
X28160000Y-98580000D03*
X25620000Y-98580000D03*
X35780000Y-96040000D03*
X33240000Y-96040000D03*
X30700000Y-96040000D03*
X28160000Y-96040000D03*
X25620000Y-96040000D03*
X35780000Y-93500000D03*
X33240000Y-93500000D03*
X30700000Y-93500000D03*
X28160000Y-93500000D03*
X25620000Y-93500000D03*
X35780000Y-90960000D03*
X33240000Y-90960000D03*
X30700000Y-90960000D03*
X28160000Y-90960000D03*
X25620000Y-90960000D03*
X35780000Y-88420000D03*
X33240000Y-88420000D03*
X30700000Y-88420000D03*
X28160000Y-88420000D03*
X25620000Y-88420000D03*
X35780000Y-85880000D03*
X33240000Y-85880000D03*
X30700000Y-85880000D03*
X28160000Y-85880000D03*
X25620000Y-85880000D03*
X35780000Y-83340000D03*
X33240000Y-83340000D03*
X30700000Y-83340000D03*
X28160000Y-83340000D03*
X25620000Y-83340000D03*
X35780000Y-80800000D03*
X33240000Y-80800000D03*
X30700000Y-80800000D03*
X28160000Y-80800000D03*
X25620000Y-80800000D03*
X35780000Y-78260000D03*
X33240000Y-78260000D03*
X30700000Y-78260000D03*
X28160000Y-78260000D03*
X25620000Y-78260000D03*
X59910000Y-78260000D03*
X25620000Y-38890000D03*
D11*
X40860000Y-38890000D03*
X58640000Y-59210000D03*
X38320000Y-46510000D03*
M02*
