M48
;DRILL file {KiCad 4.0.2+dfsg1-stable} date tor 22 sep 2016 18:21:28 CEST
;FORMAT={-:-/ absolute / inch / decimal}
FMAT,2
INCH,TZ
T1C0.024
%
G90
G05
M72
T1
X1.0087Y-1.5311
X1.0087Y-1.6311
X1.0087Y-1.7311
X1.0087Y-1.8311
X1.0087Y-1.9311
X1.0087Y-2.0311
X1.0087Y-2.1311
X1.0087Y-2.2311
X1.0087Y-2.3311
X1.0087Y-2.4311
X1.0087Y-3.0811
X1.0087Y-3.1811
X1.0087Y-3.2811
X1.0087Y-3.3811
X1.0087Y-3.4811
X1.0087Y-3.5811
X1.0087Y-3.6811
X1.0087Y-3.7811
X1.0087Y-3.8811
X1.1087Y-1.5311
X1.1087Y-1.6311
X1.1087Y-1.7311
X1.1087Y-1.8311
X1.1087Y-1.9311
X1.1087Y-2.0311
X1.1087Y-2.1311
X1.1087Y-2.2311
X1.1087Y-2.3311
X1.1087Y-2.4311
X1.1087Y-3.0811
X1.1087Y-3.1811
X1.1087Y-3.2811
X1.1087Y-3.3811
X1.1087Y-3.4811
X1.1087Y-3.5811
X1.1087Y-3.6811
X1.1087Y-3.7811
X1.1087Y-3.8811
X1.2087Y-1.5311
X1.2087Y-1.6311
X1.2087Y-1.7311
X1.2087Y-1.8311
X1.2087Y-1.9311
X1.2087Y-2.0311
X1.2087Y-2.1311
X1.2087Y-2.2311
X1.2087Y-2.3311
X1.2087Y-3.0811
X1.2087Y-3.1811
X1.2087Y-3.2811
X1.2087Y-3.3811
X1.2087Y-3.4811
X1.2087Y-3.5811
X1.2087Y-3.6811
X1.2087Y-3.7811
X1.2087Y-3.8811
X1.3087Y-1.5311
X1.3087Y-1.6311
X1.3087Y-1.7311
X1.3087Y-1.8311
X1.3087Y-1.9311
X1.3087Y-2.0311
X1.3087Y-2.1311
X1.3087Y-2.2311
X1.3087Y-2.3311
X1.3087Y-3.0811
X1.3087Y-3.1811
X1.3087Y-3.2811
X1.3087Y-3.3811
X1.3087Y-3.4811
X1.3087Y-3.5811
X1.3087Y-3.6811
X1.3087Y-3.7811
X1.3087Y-3.8811
X1.4087Y-1.5311
X1.4087Y-1.6311
X1.4087Y-1.7311
X1.4087Y-1.8311
X1.4087Y-1.9311
X1.4087Y-2.0311
X1.4087Y-2.1311
X1.4087Y-2.2311
X1.4087Y-3.0811
X1.4087Y-3.1811
X1.4087Y-3.2811
X1.4087Y-3.3811
X1.4087Y-3.4811
X1.4087Y-3.5811
X1.4087Y-3.6811
X1.4087Y-3.7811
X1.4087Y-3.8811
X1.5087Y-1.5311
X1.5087Y-1.6311
X1.5087Y-1.7311
X2.2587Y-1.5311
X2.2587Y-1.6311
X2.2587Y-1.7311
X2.3587Y-1.5311
X2.3587Y-1.6311
X2.3587Y-1.7311
X2.3587Y-1.8311
X2.3587Y-1.9311
X2.3587Y-2.0311
X2.3587Y-2.1311
X2.3587Y-2.2311
X2.3587Y-3.0811
X2.3587Y-3.1811
X2.3587Y-3.2811
X2.3587Y-3.3811
X2.3587Y-3.4811
X2.3587Y-3.5811
X2.3587Y-3.6811
X2.3587Y-3.7811
X2.3587Y-3.8811
X2.4587Y-1.5311
X2.4587Y-1.6311
X2.4587Y-1.7311
X2.4587Y-1.8311
X2.4587Y-1.9311
X2.4587Y-2.0311
X2.4587Y-2.1311
X2.4587Y-2.2311
X2.4587Y-3.0811
X2.4587Y-3.1811
X2.4587Y-3.2811
X2.4587Y-3.3811
X2.4587Y-3.4811
X2.4587Y-3.5811
X2.4587Y-3.6811
X2.4587Y-3.7811
X2.4587Y-3.8811
X2.5587Y-1.5311
X2.5587Y-1.6311
X2.5587Y-1.7311
X2.5587Y-1.8311
X2.5587Y-1.9311
X2.5587Y-2.0311
X2.5587Y-2.1311
X2.5587Y-2.2311
X2.5587Y-2.3311
X2.5587Y-3.0811
X2.5587Y-3.1811
X2.5587Y-3.2811
X2.5587Y-3.3811
X2.5587Y-3.4811
X2.5587Y-3.5811
X2.5587Y-3.6811
X2.5587Y-3.7811
X2.5587Y-3.8811
X2.6587Y-1.5311
X2.6587Y-1.6311
X2.6587Y-1.7311
X2.6587Y-1.8311
X2.6587Y-1.9311
X2.6587Y-2.0311
X2.6587Y-2.1311
X2.6587Y-2.2311
X2.6587Y-2.3311
X2.6587Y-2.4311
X2.6587Y-3.0811
X2.6587Y-3.1811
X2.6587Y-3.2811
X2.6587Y-3.3811
X2.6587Y-3.4811
X2.6587Y-3.5811
X2.6587Y-3.6811
X2.6587Y-3.7811
X2.6587Y-3.8811
X2.7587Y-1.5311
X2.7587Y-1.6311
X2.7587Y-1.7311
X2.7587Y-1.8311
X2.7587Y-1.9311
X2.7587Y-2.0311
X2.7587Y-2.1311
X2.7587Y-2.2311
X2.7587Y-2.3311
X2.7587Y-2.4311
X2.7587Y-3.0811
X2.7587Y-3.1811
X2.7587Y-3.2811
X2.7587Y-3.3811
X2.7587Y-3.4811
X2.7587Y-3.5811
X2.7587Y-3.6811
X2.7587Y-3.7811
X2.7587Y-3.8811
T0
M30
