G04 #@! TF.FileFunction,Legend,Top*
%FSLAX46Y46*%
G04 Gerber Fmt 4.6, Leading zero omitted, Abs format (unit mm)*
G04 Created by KiCad (PCBNEW 4.0.2+dfsg1-stable) date tor 22 sep 2016 18:21:24 CEST*
%MOMM*%
G01*
G04 APERTURE LIST*
%ADD10C,0.100000*%
%ADD11C,0.010000*%
%ADD12C,2.200000*%
G04 APERTURE END LIST*
D10*
D11*
G36*
X70521334Y-130381334D02*
X25563334Y-130381334D01*
X25563334Y-106674667D01*
X28357334Y-106674667D01*
X28357334Y-117596667D01*
X30810788Y-117596667D01*
X30855000Y-110611667D01*
X31356790Y-114104167D01*
X31858581Y-117596667D01*
X33593212Y-117596667D01*
X33641208Y-117363834D01*
X33662878Y-117229369D01*
X33703861Y-116946961D01*
X33761414Y-116536555D01*
X33832794Y-116018099D01*
X33915256Y-115411539D01*
X34006057Y-114736822D01*
X34102454Y-114013894D01*
X34115751Y-113913667D01*
X34211839Y-113193147D01*
X34302092Y-112524510D01*
X34383889Y-111926553D01*
X34454613Y-111418075D01*
X34511644Y-111017871D01*
X34552363Y-110744740D01*
X34574151Y-110617479D01*
X34575798Y-110611667D01*
X34583091Y-110674944D01*
X34590148Y-110890567D01*
X34596774Y-111241549D01*
X34602771Y-111710904D01*
X34607939Y-112281645D01*
X34612083Y-112936784D01*
X34615002Y-113659334D01*
X34615983Y-114061834D01*
X34622667Y-117596667D01*
X37078000Y-117596667D01*
X37078000Y-117545691D01*
X37586000Y-117545691D01*
X37666133Y-117562246D01*
X37888405Y-117576556D01*
X38225629Y-117587679D01*
X38650616Y-117594672D01*
X39057515Y-117596667D01*
X40529031Y-117596667D01*
X40589868Y-116623000D01*
X40650705Y-115649334D01*
X41734667Y-115649334D01*
X41735269Y-116051500D01*
X41744134Y-116358393D01*
X41766466Y-116738532D01*
X41789845Y-117025167D01*
X41843820Y-117596667D01*
X43270910Y-117596667D01*
X45206000Y-117596667D01*
X48084667Y-117596667D01*
X48093657Y-115416500D01*
X48102648Y-113236334D01*
X48599402Y-115226000D01*
X48740530Y-115791481D01*
X48869944Y-116310445D01*
X48981349Y-116757605D01*
X49068445Y-117107674D01*
X49124936Y-117335365D01*
X49142358Y-117406167D01*
X49164162Y-117475560D01*
X49207056Y-117525653D01*
X49295535Y-117559589D01*
X49454096Y-117580514D01*
X49707234Y-117591572D01*
X50079446Y-117595908D01*
X50595228Y-117596666D01*
X50626280Y-117596667D01*
X51211208Y-117591614D01*
X51649563Y-117576734D01*
X51934403Y-117552449D01*
X52058788Y-117519178D01*
X52064000Y-117509558D01*
X52040673Y-117410682D01*
X51974351Y-117168631D01*
X51870528Y-116802474D01*
X51734695Y-116331279D01*
X51572345Y-115774113D01*
X51388970Y-115150046D01*
X51255639Y-114699438D01*
X52586862Y-114699438D01*
X52587678Y-115444991D01*
X52589740Y-116097479D01*
X52592999Y-116642242D01*
X52597403Y-117064618D01*
X52602904Y-117349946D01*
X52609451Y-117483567D01*
X52610896Y-117490834D01*
X52662703Y-117523336D01*
X52800200Y-117548994D01*
X53037939Y-117568435D01*
X53390473Y-117582285D01*
X53872354Y-117591172D01*
X54498136Y-117595722D01*
X55067010Y-117596667D01*
X57482667Y-117596667D01*
X58329334Y-117596667D01*
X61208000Y-117596667D01*
X61208000Y-112686000D01*
X61410287Y-112686000D01*
X61624610Y-112738759D01*
X61812454Y-112847766D01*
X61871903Y-112899013D01*
X61918465Y-112958494D01*
X61954009Y-113046316D01*
X61980405Y-113182587D01*
X61999520Y-113387413D01*
X62013225Y-113680903D01*
X62023387Y-114083163D01*
X62031876Y-114614300D01*
X62040561Y-115294421D01*
X62040668Y-115303100D01*
X62069003Y-117596667D01*
X64679334Y-117596667D01*
X64679334Y-115660890D01*
X64677881Y-115395334D01*
X65695334Y-115395334D01*
X65695334Y-117596667D01*
X67727334Y-117596667D01*
X67727334Y-115395334D01*
X65695334Y-115395334D01*
X64677881Y-115395334D01*
X64674855Y-114842342D01*
X64657904Y-114174309D01*
X64623207Y-113638122D01*
X64565493Y-113215116D01*
X64479489Y-112886624D01*
X64359921Y-112633980D01*
X64201517Y-112438516D01*
X63999004Y-112281567D01*
X63747110Y-112144466D01*
X63676758Y-112111541D01*
X63209187Y-111897480D01*
X63608030Y-111796210D01*
X63959073Y-111674810D01*
X64224168Y-111498182D01*
X64413687Y-111244916D01*
X64538003Y-110893605D01*
X64598361Y-110484667D01*
X65695334Y-110484667D01*
X65695334Y-112686000D01*
X67727334Y-112686000D01*
X67727334Y-110484667D01*
X65695334Y-110484667D01*
X64598361Y-110484667D01*
X64607487Y-110422838D01*
X64632512Y-109811206D01*
X64633096Y-109680334D01*
X64611786Y-109008890D01*
X64542479Y-108471728D01*
X64417413Y-108038646D01*
X64228829Y-107679443D01*
X64064146Y-107466285D01*
X63859430Y-107263992D01*
X63622644Y-107098165D01*
X63336018Y-106965460D01*
X62981780Y-106862531D01*
X62542161Y-106786032D01*
X61999389Y-106732618D01*
X61335694Y-106698943D01*
X60533304Y-106681662D01*
X59874500Y-106677518D01*
X58329334Y-106674667D01*
X58329334Y-117596667D01*
X57482667Y-117596667D01*
X57482667Y-115395334D01*
X55450667Y-115395334D01*
X55450667Y-113024667D01*
X57233879Y-113024667D01*
X57210106Y-111987500D01*
X57186334Y-110950334D01*
X56318500Y-110926205D01*
X55450667Y-110902076D01*
X55450667Y-108876000D01*
X57313334Y-108876000D01*
X57313334Y-106671988D01*
X52614334Y-106717000D01*
X52592387Y-112051000D01*
X52589166Y-112987782D01*
X52587341Y-113875481D01*
X52586862Y-114699438D01*
X51255639Y-114699438D01*
X51217334Y-114569982D01*
X51020127Y-113902959D01*
X50839198Y-113285940D01*
X50680044Y-112738064D01*
X50548162Y-112278468D01*
X50449049Y-111926289D01*
X50388201Y-111700665D01*
X50370667Y-111622335D01*
X50396110Y-111520656D01*
X50468110Y-111278803D01*
X50580175Y-110917409D01*
X50725811Y-110457109D01*
X50898525Y-109918536D01*
X51091824Y-109322326D01*
X51164103Y-109100911D01*
X51957539Y-106674667D01*
X49304289Y-106674667D01*
X48715644Y-108669802D01*
X48127000Y-110664938D01*
X48042334Y-106717000D01*
X46624167Y-106693786D01*
X45206000Y-106670573D01*
X45206000Y-117596667D01*
X43270910Y-117596667D01*
X43810785Y-117594165D01*
X44201992Y-117585554D01*
X44465139Y-117569174D01*
X44620831Y-117543368D01*
X44689678Y-117506476D01*
X44698000Y-117481789D01*
X44685885Y-117378738D01*
X44651267Y-117125747D01*
X44596735Y-116740340D01*
X44524879Y-116240042D01*
X44438289Y-115642376D01*
X44339554Y-114964866D01*
X44231263Y-114225036D01*
X44116006Y-113440411D01*
X43996374Y-112628514D01*
X43874955Y-111806869D01*
X43754339Y-110993001D01*
X43637116Y-110204433D01*
X43525875Y-109458690D01*
X43423206Y-108773295D01*
X43331698Y-108165773D01*
X43253941Y-107653647D01*
X43192525Y-107254441D01*
X43150040Y-106985680D01*
X43129137Y-106865167D01*
X43086107Y-106674667D01*
X39033007Y-106674667D01*
X38985424Y-106949834D01*
X38967199Y-107074538D01*
X38929742Y-107346334D01*
X38875361Y-107747753D01*
X38806361Y-108261326D01*
X38725050Y-108869587D01*
X38633736Y-109555065D01*
X38534724Y-110300295D01*
X38430323Y-111087806D01*
X38322840Y-111900132D01*
X38214580Y-112719805D01*
X38107853Y-113529355D01*
X38004963Y-114311316D01*
X37908220Y-115048218D01*
X37819929Y-115722595D01*
X37742397Y-116316977D01*
X37677933Y-116813898D01*
X37628842Y-117195887D01*
X37597432Y-117445479D01*
X37586010Y-117545204D01*
X37586000Y-117545691D01*
X37078000Y-117545691D01*
X37078000Y-106671364D01*
X33395000Y-106717000D01*
X33085111Y-109115334D01*
X33004438Y-109732482D01*
X32929383Y-110293001D01*
X32862958Y-110775474D01*
X32808173Y-111158481D01*
X32768040Y-111420604D01*
X32745569Y-111540426D01*
X32743464Y-111545425D01*
X32724117Y-111473519D01*
X32685257Y-111254676D01*
X32630109Y-110909758D01*
X32561898Y-110459629D01*
X32483847Y-109925151D01*
X32399181Y-109327188D01*
X32385895Y-109231758D01*
X32299677Y-108617426D01*
X32219157Y-108055647D01*
X32147700Y-107568955D01*
X32088670Y-107179889D01*
X32045432Y-106910986D01*
X32021348Y-106784782D01*
X32019983Y-106780500D01*
X31962827Y-106743285D01*
X31812473Y-106715143D01*
X31552788Y-106695152D01*
X31167637Y-106682388D01*
X30640886Y-106675930D01*
X30168608Y-106674667D01*
X28357334Y-106674667D01*
X25563334Y-106674667D01*
X25563334Y-105069068D01*
X28113963Y-105069068D01*
X28119805Y-105247956D01*
X28156877Y-105348555D01*
X28227731Y-105393298D01*
X28334916Y-105404618D01*
X28436376Y-105404667D01*
X28654323Y-105391691D01*
X28756192Y-105330133D01*
X28794602Y-105186052D01*
X28796210Y-105172557D01*
X28868490Y-104979531D01*
X28971167Y-104912349D01*
X29077752Y-104930875D01*
X29117149Y-105066597D01*
X29119334Y-105144459D01*
X29132158Y-105311248D01*
X29203030Y-105385390D01*
X29380541Y-105404221D01*
X29458000Y-105404667D01*
X29600655Y-105402832D01*
X29701557Y-105382059D01*
X29763321Y-105319447D01*
X29788563Y-105192094D01*
X29779896Y-104977098D01*
X29739935Y-104651559D01*
X29671295Y-104192574D01*
X29628230Y-103913615D01*
X29620823Y-103865092D01*
X29896462Y-103865092D01*
X29937472Y-103943701D01*
X30087314Y-103964536D01*
X30213273Y-103965334D01*
X30434213Y-103954300D01*
X30533517Y-103901901D01*
X30558427Y-103779183D01*
X30558667Y-103753667D01*
X30587649Y-103594552D01*
X30643334Y-103542000D01*
X30706859Y-103614490D01*
X30728000Y-103754767D01*
X30692315Y-103907242D01*
X30560868Y-104035013D01*
X30350383Y-104150995D01*
X30045997Y-104363142D01*
X29901414Y-104628672D01*
X29914185Y-104952506D01*
X29927720Y-105000598D01*
X30069303Y-105280140D01*
X30273755Y-105402584D01*
X30539926Y-105367426D01*
X30648900Y-105317021D01*
X30783690Y-105272621D01*
X30812667Y-105317021D01*
X30887086Y-105374949D01*
X31070079Y-105403909D01*
X31109000Y-105404667D01*
X31405334Y-105404667D01*
X31405334Y-104393468D01*
X31403334Y-103962554D01*
X31393805Y-103668772D01*
X31371445Y-103479935D01*
X31330957Y-103363855D01*
X31267042Y-103288347D01*
X31217161Y-103250468D01*
X30961694Y-103148777D01*
X30644504Y-103122275D01*
X30341170Y-103169802D01*
X30151501Y-103266834D01*
X30011661Y-103456065D01*
X29923727Y-103690167D01*
X29896462Y-103865092D01*
X29620823Y-103865092D01*
X29565204Y-103500773D01*
X29512768Y-103148745D01*
X29508456Y-103118667D01*
X31659334Y-103118667D01*
X31659334Y-104205222D01*
X31663504Y-104618211D01*
X31674901Y-104968165D01*
X31691852Y-105221218D01*
X31712683Y-105343502D01*
X31715778Y-105348222D01*
X31832135Y-105387159D01*
X32037289Y-105404599D01*
X32051020Y-105404667D01*
X32329819Y-105404667D01*
X32354409Y-104706167D01*
X32370950Y-104357795D01*
X32397527Y-104140587D01*
X32444638Y-104016377D01*
X32522780Y-103946996D01*
X32569500Y-103924090D01*
X32695264Y-103834279D01*
X32750438Y-103675709D01*
X32760000Y-103479590D01*
X32739313Y-103225764D01*
X32670884Y-103129410D01*
X32545159Y-103183029D01*
X32469714Y-103251714D01*
X32368251Y-103339896D01*
X32338131Y-103302213D01*
X32336667Y-103251714D01*
X32287324Y-103160637D01*
X32118050Y-103122160D01*
X31998000Y-103118667D01*
X31659334Y-103118667D01*
X29508456Y-103118667D01*
X29475836Y-102891149D01*
X29459320Y-102761602D01*
X29458897Y-102754793D01*
X29381525Y-102723443D01*
X29180661Y-102708626D01*
X28931258Y-102712460D01*
X28404516Y-102737667D01*
X28258327Y-103838334D01*
X28185775Y-104386690D01*
X28136804Y-104789457D01*
X28113963Y-105069068D01*
X25563334Y-105069068D01*
X25563334Y-102695334D01*
X32929334Y-102695334D01*
X32929334Y-105414889D01*
X33246834Y-105388611D01*
X33564334Y-105362334D01*
X33588365Y-104452167D01*
X33604967Y-104082532D01*
X33631351Y-103785098D01*
X33663605Y-103594433D01*
X33691334Y-103542000D01*
X33725475Y-103620903D01*
X33756912Y-103834564D01*
X33781735Y-104148412D01*
X33794302Y-104452167D01*
X33818334Y-105362334D01*
X34135834Y-105388611D01*
X34453334Y-105414889D01*
X34453334Y-104399825D01*
X34449850Y-104167682D01*
X34707334Y-104167682D01*
X34710117Y-104616496D01*
X34720987Y-104925251D01*
X34743723Y-105123166D01*
X34782104Y-105239461D01*
X34839909Y-105303355D01*
X34855500Y-105313218D01*
X35107182Y-105394792D01*
X35346402Y-105369139D01*
X35452400Y-105303067D01*
X35536295Y-105244162D01*
X35554000Y-105303067D01*
X35631971Y-105372720D01*
X35843968Y-105403901D01*
X35892667Y-105404667D01*
X36231334Y-105404667D01*
X36231334Y-103578325D01*
X36442072Y-103578325D01*
X36446898Y-103847490D01*
X36575264Y-104119411D01*
X36832593Y-104360958D01*
X36904102Y-104405053D01*
X37147791Y-104580679D01*
X37243546Y-104751882D01*
X37246681Y-104790834D01*
X37217509Y-104939539D01*
X37168555Y-104981334D01*
X37096766Y-104909344D01*
X37062722Y-104790834D01*
X36999339Y-104648566D01*
X36831835Y-104583047D01*
X36755045Y-104573396D01*
X36573284Y-104565263D01*
X36499443Y-104619029D01*
X36494189Y-104780283D01*
X36501045Y-104867782D01*
X36555661Y-105118996D01*
X36688295Y-105266883D01*
X36739334Y-105295639D01*
X37095045Y-105399267D01*
X37437041Y-105364655D01*
X37716849Y-105196849D01*
X37898823Y-104918825D01*
X37922161Y-104628174D01*
X37793385Y-104349621D01*
X37519021Y-104107892D01*
X37413836Y-104048556D01*
X37165119Y-103880082D01*
X37078044Y-103713314D01*
X37078000Y-103709613D01*
X37113782Y-103572969D01*
X37162667Y-103542000D01*
X37231457Y-103612913D01*
X37247334Y-103711334D01*
X37280482Y-103828042D01*
X37409889Y-103875132D01*
X37543667Y-103880667D01*
X37742853Y-103866358D01*
X37824547Y-103794707D01*
X37840000Y-103631468D01*
X37766389Y-103373630D01*
X37555012Y-103200551D01*
X37220057Y-103122259D01*
X37114617Y-103118667D01*
X36781353Y-103180783D01*
X36555364Y-103345046D01*
X36442072Y-103578325D01*
X36231334Y-103578325D01*
X36231334Y-103118667D01*
X35554000Y-103118667D01*
X35554000Y-104050000D01*
X35544289Y-104518611D01*
X35519018Y-104822410D01*
X35483981Y-104960745D01*
X35444975Y-104932961D01*
X35407794Y-104738404D01*
X35378232Y-104376421D01*
X35366365Y-104071167D01*
X35342334Y-103161000D01*
X35024834Y-103134723D01*
X34707334Y-103108445D01*
X34707334Y-104167682D01*
X34449850Y-104167682D01*
X34445780Y-103896636D01*
X34416509Y-103540153D01*
X34355602Y-103308160D01*
X34253143Y-103178443D01*
X34099214Y-103128786D01*
X33889290Y-103136337D01*
X33697431Y-103145223D01*
X33620385Y-103084913D01*
X33606667Y-102932332D01*
X33591570Y-102780168D01*
X33514095Y-102712519D01*
X33325968Y-102695602D01*
X33268000Y-102695334D01*
X38686667Y-102695334D01*
X38686667Y-103993556D01*
X38690423Y-104446655D01*
X38700777Y-104838932D01*
X38716360Y-105139616D01*
X38735804Y-105317939D01*
X38747124Y-105352235D01*
X38866800Y-105387698D01*
X39064624Y-105387513D01*
X39321667Y-105362334D01*
X39364000Y-104685000D01*
X39406334Y-104007667D01*
X39478153Y-104593921D01*
X39528258Y-104969992D01*
X39575167Y-105208257D01*
X39631081Y-105339539D01*
X39708200Y-105394664D01*
X39799049Y-105404667D01*
X39894752Y-105393812D01*
X39964730Y-105341708D01*
X40020842Y-105219050D01*
X40074945Y-104996531D01*
X40138899Y-104644845D01*
X40162221Y-104507138D01*
X40274691Y-103838334D01*
X40285012Y-104621500D01*
X40295334Y-105404667D01*
X40888000Y-105404667D01*
X40888000Y-103118667D01*
X41142000Y-103118667D01*
X41142000Y-104205222D01*
X41146171Y-104618211D01*
X41157568Y-104968165D01*
X41174518Y-105221218D01*
X41195350Y-105343502D01*
X41198445Y-105348222D01*
X41314637Y-105386965D01*
X41520347Y-105404569D01*
X41537111Y-105404667D01*
X41819334Y-105404667D01*
X41819334Y-103118667D01*
X42073334Y-103118667D01*
X42073334Y-104205222D01*
X42077504Y-104618211D01*
X42088901Y-104968165D01*
X42105852Y-105221218D01*
X42126683Y-105343502D01*
X42129778Y-105348222D01*
X42245970Y-105386965D01*
X42451681Y-105404569D01*
X42468445Y-105404667D01*
X42750667Y-105404667D01*
X42750667Y-104473334D01*
X42754294Y-104056457D01*
X42767617Y-103781967D01*
X42794295Y-103623025D01*
X42837987Y-103552794D01*
X42877667Y-103542000D01*
X42934380Y-103568528D01*
X42971775Y-103665966D01*
X42993482Y-103861094D01*
X43003135Y-104180692D01*
X43004667Y-104478444D01*
X43004667Y-105414889D01*
X43322167Y-105388611D01*
X43639667Y-105362334D01*
X43658558Y-104577167D01*
X43863850Y-104577167D01*
X43865893Y-104925609D01*
X43875111Y-105179426D01*
X43890159Y-105299056D01*
X44011280Y-105381020D01*
X44252820Y-105388652D01*
X44571000Y-105362334D01*
X44571000Y-103161000D01*
X43893667Y-103161000D01*
X43869673Y-104172071D01*
X43863850Y-104577167D01*
X43658558Y-104577167D01*
X43661057Y-104473334D01*
X43661477Y-103960760D01*
X43629446Y-103593325D01*
X43557795Y-103348731D01*
X43439357Y-103204682D01*
X43266964Y-103138882D01*
X43230418Y-103133716D01*
X43012383Y-103147576D01*
X42872547Y-103207583D01*
X42771481Y-103262221D01*
X42750667Y-103213700D01*
X42674549Y-103152095D01*
X42478855Y-103120340D01*
X42412000Y-103118667D01*
X42073334Y-103118667D01*
X41819334Y-103118667D01*
X41142000Y-103118667D01*
X40888000Y-103118667D01*
X40888000Y-102864667D01*
X41142000Y-102864667D01*
X41170400Y-102975451D01*
X41285189Y-103024413D01*
X41480667Y-103034000D01*
X41702235Y-103019800D01*
X41800159Y-102962406D01*
X41819334Y-102864667D01*
X41804864Y-102808222D01*
X43851334Y-102808222D01*
X43894739Y-102955793D01*
X44044192Y-103018736D01*
X44270937Y-103016863D01*
X44507135Y-102959981D01*
X44597671Y-102843500D01*
X44587791Y-102751497D01*
X44487104Y-102707307D01*
X44257885Y-102695364D01*
X44238542Y-102695334D01*
X45460000Y-102695334D01*
X45460000Y-105404667D01*
X46052667Y-105404667D01*
X46062988Y-104621500D01*
X46073309Y-103838334D01*
X46185779Y-104507138D01*
X46255108Y-104904135D01*
X46310962Y-105163010D01*
X46365202Y-105313070D01*
X46429686Y-105383621D01*
X46516271Y-105403970D01*
X46548951Y-105404667D01*
X46653944Y-105388784D01*
X46727929Y-105321240D01*
X46782133Y-105172189D01*
X46827784Y-104911786D01*
X46872187Y-104545492D01*
X46941667Y-103923000D01*
X46984000Y-104642667D01*
X47026334Y-105362334D01*
X47619000Y-105362334D01*
X47629299Y-104771995D01*
X47831963Y-104771995D01*
X47890157Y-105093399D01*
X48050094Y-105307244D01*
X48284210Y-105393923D01*
X48564942Y-105333833D01*
X48598233Y-105317021D01*
X48733023Y-105272621D01*
X48762000Y-105317021D01*
X48836419Y-105374949D01*
X49019413Y-105403909D01*
X49058334Y-105404667D01*
X49354667Y-105404667D01*
X49354667Y-104431000D01*
X49345492Y-103929853D01*
X49309342Y-103573551D01*
X49233279Y-103338188D01*
X49104362Y-103199858D01*
X48909654Y-103134656D01*
X48644380Y-103118667D01*
X48267352Y-103178445D01*
X48009335Y-103358362D01*
X47869134Y-103659291D01*
X47862672Y-103690167D01*
X47837203Y-103864424D01*
X47878664Y-103943218D01*
X48027841Y-103964454D01*
X48158750Y-103965334D01*
X48381253Y-103954583D01*
X48481883Y-103903329D01*
X48507675Y-103783064D01*
X48508000Y-103753667D01*
X48536983Y-103594552D01*
X48592667Y-103542000D01*
X48656502Y-103614403D01*
X48677334Y-103751946D01*
X48636901Y-103909769D01*
X48491971Y-104045659D01*
X48317500Y-104144320D01*
X48048904Y-104294696D01*
X47902398Y-104430361D01*
X47842134Y-104597662D01*
X47831963Y-104771995D01*
X47629299Y-104771995D01*
X47642339Y-104024544D01*
X47665527Y-102695334D01*
X49608667Y-102695334D01*
X49608667Y-105404667D01*
X50286000Y-105404667D01*
X50302256Y-104515667D01*
X50400103Y-104939000D01*
X50465507Y-105188834D01*
X50539125Y-105317806D01*
X50662634Y-105371046D01*
X50815308Y-105388611D01*
X51018801Y-105388998D01*
X51127194Y-105357120D01*
X51132667Y-105344576D01*
X51111408Y-105234202D01*
X51055188Y-105006449D01*
X50975340Y-104706821D01*
X50959600Y-104649731D01*
X50873267Y-104320964D01*
X50834354Y-104096109D01*
X50834719Y-104085335D01*
X51231245Y-104085335D01*
X51233417Y-104593815D01*
X51302059Y-104960669D01*
X51441794Y-105201903D01*
X51583193Y-105304021D01*
X51929667Y-105392704D01*
X52280517Y-105351754D01*
X52518249Y-105229188D01*
X52694187Y-105021282D01*
X52741334Y-104763522D01*
X52727817Y-104568985D01*
X52652679Y-104489201D01*
X52464036Y-104473360D01*
X52445000Y-104473334D01*
X52245905Y-104487493D01*
X52164245Y-104559313D01*
X52148667Y-104727334D01*
X52110803Y-104928986D01*
X52021667Y-104981334D01*
X51933360Y-104925410D01*
X51896972Y-104740031D01*
X51894667Y-104642667D01*
X51894667Y-104304000D01*
X52741334Y-104304000D01*
X52741334Y-103886812D01*
X52725265Y-103611513D01*
X52660283Y-103437023D01*
X52521226Y-103296493D01*
X52518249Y-103294145D01*
X52222089Y-103153218D01*
X51881373Y-103125255D01*
X51566145Y-103211273D01*
X51461656Y-103278812D01*
X51356829Y-103386766D01*
X51291843Y-103531701D01*
X51253819Y-103758699D01*
X51231245Y-104085335D01*
X50834719Y-104085335D01*
X50840429Y-103917250D01*
X50889061Y-103726468D01*
X50917267Y-103641517D01*
X51008044Y-103361447D01*
X51033393Y-103204989D01*
X50984555Y-103136189D01*
X50852771Y-103119091D01*
X50789913Y-103118667D01*
X52995334Y-103118667D01*
X52995334Y-104205222D01*
X52999504Y-104618211D01*
X53010901Y-104968165D01*
X53027852Y-105221218D01*
X53048683Y-105343502D01*
X53051778Y-105348222D01*
X53168135Y-105387159D01*
X53373289Y-105404599D01*
X53387020Y-105404667D01*
X53665819Y-105404667D01*
X53690409Y-104706167D01*
X53706950Y-104357795D01*
X53733527Y-104140587D01*
X53780638Y-104016377D01*
X53858780Y-103946996D01*
X53905500Y-103924090D01*
X54031264Y-103834279D01*
X54086438Y-103675709D01*
X54096000Y-103479590D01*
X54092644Y-103372667D01*
X54180667Y-103372667D01*
X54216123Y-103510247D01*
X54265334Y-103542000D01*
X54303471Y-103622985D01*
X54331398Y-103851613D01*
X54347174Y-104206398D01*
X54350000Y-104478444D01*
X54350000Y-105414889D01*
X54667500Y-105388611D01*
X54985000Y-105362334D01*
X55009031Y-104452167D01*
X55026188Y-104072368D01*
X55053542Y-103773554D01*
X55064270Y-103714632D01*
X55281334Y-103714632D01*
X55298190Y-103883121D01*
X55382944Y-103952226D01*
X55577667Y-103965334D01*
X55778065Y-103949519D01*
X55860104Y-103878354D01*
X55874000Y-103753667D01*
X55918161Y-103583428D01*
X56001000Y-103542000D01*
X56103443Y-103615098D01*
X56128000Y-103744684D01*
X56089487Y-103890465D01*
X55951425Y-104020733D01*
X55725834Y-104146851D01*
X55490973Y-104272202D01*
X55368268Y-104385819D01*
X55316381Y-104547481D01*
X55297111Y-104766862D01*
X55296062Y-105050391D01*
X55345679Y-105218608D01*
X55419127Y-105296029D01*
X55654862Y-105392721D01*
X55895798Y-105379139D01*
X56026400Y-105303067D01*
X56110080Y-105245361D01*
X56128000Y-105308178D01*
X56204250Y-105381132D01*
X56434684Y-105389476D01*
X56445500Y-105388611D01*
X56763000Y-105362334D01*
X56763000Y-104577167D01*
X56987184Y-104577167D01*
X56989226Y-104925609D01*
X56998444Y-105179426D01*
X57013492Y-105299056D01*
X57134613Y-105381020D01*
X57376153Y-105388652D01*
X57694334Y-105362334D01*
X57717992Y-104235510D01*
X57741441Y-103118667D01*
X57990667Y-103118667D01*
X57990667Y-105414889D01*
X58308167Y-105388611D01*
X58625667Y-105362334D01*
X58650401Y-104654974D01*
X58667245Y-104303434D01*
X58676239Y-104229327D01*
X59176000Y-104229327D01*
X59180036Y-104599484D01*
X59198259Y-104843105D01*
X59239848Y-105002911D01*
X59313978Y-105121625D01*
X59383818Y-105196849D01*
X59613198Y-105354450D01*
X59910683Y-105404448D01*
X59938000Y-105404667D01*
X60243736Y-105361600D01*
X60475558Y-105213108D01*
X60492182Y-105196849D01*
X60508729Y-105170996D01*
X61473216Y-105170996D01*
X61479831Y-105290449D01*
X61518445Y-105348222D01*
X61623853Y-105374167D01*
X61855014Y-105393822D01*
X62168373Y-105403959D01*
X62280445Y-105404667D01*
X62986000Y-105404667D01*
X62986000Y-105150667D01*
X62972626Y-104987800D01*
X62900154Y-104915399D01*
X62720055Y-104897068D01*
X62647334Y-104896667D01*
X62435151Y-104888353D01*
X62317238Y-104867586D01*
X62308667Y-104859223D01*
X62350442Y-104774731D01*
X62460981Y-104585200D01*
X62618103Y-104328434D01*
X62651213Y-104275452D01*
X62827813Y-103964116D01*
X62838571Y-103940950D01*
X63236429Y-103940950D01*
X63245443Y-104357072D01*
X63280092Y-104728884D01*
X63340337Y-105003469D01*
X63365219Y-105062555D01*
X63478537Y-105244251D01*
X63614888Y-105344130D01*
X63827253Y-105387432D01*
X64069349Y-105397983D01*
X64360480Y-105371332D01*
X64572485Y-105259394D01*
X64640849Y-105196849D01*
X64734246Y-105091861D01*
X64794536Y-104976315D01*
X64828903Y-104812297D01*
X64844531Y-104561895D01*
X64848606Y-104187197D01*
X64848667Y-104100166D01*
X64839896Y-103707091D01*
X64816253Y-103358897D01*
X64794614Y-103197967D01*
X65034248Y-103197967D01*
X65060759Y-103324415D01*
X65229667Y-103407435D01*
X65322753Y-103436661D01*
X65383548Y-103489343D01*
X65418928Y-103596958D01*
X65435772Y-103790986D01*
X65440957Y-104102902D01*
X65441334Y-104376169D01*
X65446263Y-104754270D01*
X65459607Y-105067451D01*
X65479196Y-105278360D01*
X65497778Y-105348222D01*
X65613970Y-105386965D01*
X65819681Y-105404569D01*
X65836445Y-105404667D01*
X66118667Y-105404667D01*
X66118667Y-104050000D01*
X66118319Y-103803386D01*
X66384858Y-103803386D01*
X66385582Y-104393933D01*
X66440732Y-104833164D01*
X66552577Y-105130865D01*
X66723383Y-105296820D01*
X66731949Y-105301086D01*
X67035615Y-105383823D01*
X67377403Y-105386904D01*
X67664807Y-105309710D01*
X67669400Y-105307325D01*
X67820494Y-105211968D01*
X67912735Y-105093396D01*
X67960470Y-104910246D01*
X67978046Y-104621158D01*
X67980037Y-104411785D01*
X67975764Y-104089214D01*
X67952408Y-103890051D01*
X67896702Y-103768468D01*
X67795379Y-103678641D01*
X67761122Y-103655615D01*
X67560584Y-103561343D01*
X67360921Y-103581327D01*
X67290675Y-103605780D01*
X67040440Y-103700233D01*
X67066387Y-103394828D01*
X67110318Y-103196177D01*
X67183797Y-103070962D01*
X67257237Y-103043902D01*
X67301055Y-103139721D01*
X67304000Y-103196278D01*
X67330147Y-103311215D01*
X67438770Y-103362117D01*
X67642667Y-103372667D01*
X67861140Y-103360826D01*
X67958222Y-103306146D01*
X67981269Y-103179888D01*
X67981334Y-103167145D01*
X67907651Y-102926038D01*
X67714529Y-102747488D01*
X67443853Y-102642597D01*
X67137509Y-102622467D01*
X66837384Y-102698200D01*
X66652555Y-102814946D01*
X66539879Y-102922835D01*
X66467784Y-103038947D01*
X66425079Y-103204596D01*
X66400578Y-103461091D01*
X66384858Y-103803386D01*
X66118319Y-103803386D01*
X66117908Y-103512297D01*
X66108400Y-103125729D01*
X66079297Y-102872108D01*
X66019751Y-102733251D01*
X65918916Y-102690970D01*
X65765946Y-102727080D01*
X65549994Y-102823394D01*
X65423456Y-102884382D01*
X65157016Y-103046245D01*
X65034248Y-103197967D01*
X64794614Y-103197967D01*
X64781741Y-103102232D01*
X64754664Y-103004987D01*
X64568086Y-102776187D01*
X64293521Y-102644122D01*
X63980658Y-102610545D01*
X63679190Y-102677210D01*
X63438809Y-102845870D01*
X63363609Y-102955890D01*
X63295472Y-103187442D01*
X63253093Y-103533434D01*
X63236429Y-103940950D01*
X62838571Y-103940950D01*
X62967494Y-103663338D01*
X63041250Y-103435935D01*
X63042654Y-103427824D01*
X63055041Y-103210325D01*
X62985777Y-103040795D01*
X62833620Y-102868595D01*
X62526730Y-102658183D01*
X62208040Y-102598905D01*
X61912124Y-102680296D01*
X61673556Y-102891892D01*
X61526909Y-103223229D01*
X61517819Y-103266834D01*
X61493592Y-103443271D01*
X61538109Y-103521448D01*
X61692808Y-103541376D01*
X61802784Y-103542000D01*
X62019059Y-103531805D01*
X62114862Y-103476735D01*
X62138853Y-103340063D01*
X62139334Y-103288000D01*
X62172673Y-103092891D01*
X62277411Y-103034000D01*
X62375779Y-103099179D01*
X62373711Y-103287576D01*
X62274394Y-103588485D01*
X62081014Y-103991200D01*
X61893254Y-104324780D01*
X61670678Y-104713419D01*
X61533749Y-104987072D01*
X61473216Y-105170996D01*
X60508729Y-105170996D01*
X60663492Y-104929196D01*
X60700000Y-104731182D01*
X60683261Y-104556623D01*
X60598450Y-104486081D01*
X60410394Y-104473334D01*
X60206569Y-104493865D01*
X60107538Y-104586136D01*
X60065000Y-104727334D01*
X59995552Y-104928323D01*
X59924533Y-104968842D01*
X59870958Y-104856495D01*
X59853334Y-104642667D01*
X59853334Y-104304000D01*
X60700000Y-104304000D01*
X60700000Y-103919152D01*
X60670930Y-103621202D01*
X60565870Y-103408924D01*
X60492182Y-103326485D01*
X60214997Y-103159411D01*
X59880768Y-103117210D01*
X59548704Y-103201632D01*
X59399085Y-103294145D01*
X59292599Y-103388456D01*
X59226780Y-103493968D01*
X59191898Y-103651474D01*
X59178222Y-103901766D01*
X59176000Y-104229327D01*
X58676239Y-104229327D01*
X58693620Y-104086125D01*
X58738432Y-103967948D01*
X58810589Y-103913801D01*
X58840901Y-103904266D01*
X58948700Y-103840293D01*
X58997497Y-103692187D01*
X59006667Y-103489792D01*
X58995008Y-103236822D01*
X58947297Y-103135901D01*
X58844432Y-103170595D01*
X58738167Y-103258789D01*
X58623333Y-103351761D01*
X58586263Y-103326334D01*
X58583334Y-103258789D01*
X58533423Y-103158598D01*
X58361710Y-103120384D01*
X58287000Y-103118667D01*
X57990667Y-103118667D01*
X57741441Y-103118667D01*
X57741651Y-103108687D01*
X57379326Y-103134844D01*
X57017000Y-103161000D01*
X56993006Y-104172071D01*
X56987184Y-104577167D01*
X56763000Y-104577167D01*
X56763000Y-104402290D01*
X56760872Y-103983974D01*
X56750416Y-103700707D01*
X56725526Y-103518218D01*
X56680097Y-103402237D01*
X56608023Y-103318496D01*
X56563120Y-103280457D01*
X56291712Y-103151147D01*
X55963891Y-103117952D01*
X55651020Y-103180164D01*
X55466632Y-103291298D01*
X55315071Y-103530256D01*
X55281334Y-103714632D01*
X55064270Y-103714632D01*
X55087363Y-103587809D01*
X55114865Y-103542000D01*
X55181337Y-103471062D01*
X55196667Y-103372667D01*
X55136798Y-103231163D01*
X55027334Y-103203334D01*
X54889691Y-103171974D01*
X54858000Y-103128542D01*
X54928462Y-103049492D01*
X55027334Y-103009468D01*
X55165056Y-102914843D01*
X55196667Y-102825621D01*
X55190249Y-102808222D01*
X56974667Y-102808222D01*
X57018073Y-102955793D01*
X57167526Y-103018736D01*
X57394270Y-103016863D01*
X57630469Y-102959981D01*
X57721004Y-102843500D01*
X57711125Y-102751497D01*
X57610438Y-102707307D01*
X57381218Y-102695364D01*
X57361875Y-102695334D01*
X57095108Y-102715893D01*
X56980944Y-102779894D01*
X56974667Y-102808222D01*
X55190249Y-102808222D01*
X55165526Y-102741210D01*
X55046055Y-102706874D01*
X54799185Y-102711562D01*
X54794500Y-102711861D01*
X54549170Y-102736842D01*
X54425537Y-102789603D01*
X54375966Y-102898864D01*
X54365543Y-102970500D01*
X54321225Y-103139630D01*
X54259710Y-103203334D01*
X54195472Y-103274296D01*
X54180667Y-103372667D01*
X54092644Y-103372667D01*
X54088438Y-103238677D01*
X54047800Y-103138632D01*
X53947154Y-103151104D01*
X53836434Y-103206312D01*
X53701644Y-103250712D01*
X53672667Y-103206312D01*
X53597563Y-103151431D01*
X53409940Y-103120903D01*
X53334000Y-103118667D01*
X52995334Y-103118667D01*
X50789913Y-103118667D01*
X50593705Y-103151230D01*
X50467970Y-103280468D01*
X50412227Y-103393834D01*
X50292628Y-103669000D01*
X50286000Y-102695334D01*
X49608667Y-102695334D01*
X47665527Y-102695334D01*
X47665677Y-102686754D01*
X47176672Y-102712210D01*
X46687667Y-102737667D01*
X46632740Y-103187705D01*
X46595187Y-103446272D01*
X46557715Y-103627140D01*
X46538166Y-103677390D01*
X46508964Y-103622642D01*
X46472393Y-103440521D01*
X46440721Y-103206186D01*
X46382925Y-102695334D01*
X45460000Y-102695334D01*
X44238542Y-102695334D01*
X43971775Y-102715893D01*
X43857611Y-102779894D01*
X43851334Y-102808222D01*
X41804864Y-102808222D01*
X41790933Y-102753883D01*
X41676144Y-102704921D01*
X41480667Y-102695334D01*
X41259099Y-102709534D01*
X41161174Y-102766928D01*
X41142000Y-102864667D01*
X40888000Y-102864667D01*
X40888000Y-102695334D01*
X39968851Y-102695334D01*
X39913947Y-103182167D01*
X39872542Y-103523953D01*
X39840339Y-103705107D01*
X39811639Y-103733675D01*
X39780743Y-103617701D01*
X39749000Y-103415000D01*
X39696775Y-103068122D01*
X39643362Y-102855614D01*
X39561221Y-102744576D01*
X39422816Y-102702108D01*
X39200608Y-102695308D01*
X39146628Y-102695334D01*
X38686667Y-102695334D01*
X33268000Y-102695334D01*
X32929334Y-102695334D01*
X25563334Y-102695334D01*
X25563334Y-99816667D01*
X70521334Y-99816667D01*
X70521334Y-130381334D01*
X70521334Y-130381334D01*
G37*
X70521334Y-130381334D02*
X25563334Y-130381334D01*
X25563334Y-106674667D01*
X28357334Y-106674667D01*
X28357334Y-117596667D01*
X30810788Y-117596667D01*
X30855000Y-110611667D01*
X31356790Y-114104167D01*
X31858581Y-117596667D01*
X33593212Y-117596667D01*
X33641208Y-117363834D01*
X33662878Y-117229369D01*
X33703861Y-116946961D01*
X33761414Y-116536555D01*
X33832794Y-116018099D01*
X33915256Y-115411539D01*
X34006057Y-114736822D01*
X34102454Y-114013894D01*
X34115751Y-113913667D01*
X34211839Y-113193147D01*
X34302092Y-112524510D01*
X34383889Y-111926553D01*
X34454613Y-111418075D01*
X34511644Y-111017871D01*
X34552363Y-110744740D01*
X34574151Y-110617479D01*
X34575798Y-110611667D01*
X34583091Y-110674944D01*
X34590148Y-110890567D01*
X34596774Y-111241549D01*
X34602771Y-111710904D01*
X34607939Y-112281645D01*
X34612083Y-112936784D01*
X34615002Y-113659334D01*
X34615983Y-114061834D01*
X34622667Y-117596667D01*
X37078000Y-117596667D01*
X37078000Y-117545691D01*
X37586000Y-117545691D01*
X37666133Y-117562246D01*
X37888405Y-117576556D01*
X38225629Y-117587679D01*
X38650616Y-117594672D01*
X39057515Y-117596667D01*
X40529031Y-117596667D01*
X40589868Y-116623000D01*
X40650705Y-115649334D01*
X41734667Y-115649334D01*
X41735269Y-116051500D01*
X41744134Y-116358393D01*
X41766466Y-116738532D01*
X41789845Y-117025167D01*
X41843820Y-117596667D01*
X43270910Y-117596667D01*
X45206000Y-117596667D01*
X48084667Y-117596667D01*
X48093657Y-115416500D01*
X48102648Y-113236334D01*
X48599402Y-115226000D01*
X48740530Y-115791481D01*
X48869944Y-116310445D01*
X48981349Y-116757605D01*
X49068445Y-117107674D01*
X49124936Y-117335365D01*
X49142358Y-117406167D01*
X49164162Y-117475560D01*
X49207056Y-117525653D01*
X49295535Y-117559589D01*
X49454096Y-117580514D01*
X49707234Y-117591572D01*
X50079446Y-117595908D01*
X50595228Y-117596666D01*
X50626280Y-117596667D01*
X51211208Y-117591614D01*
X51649563Y-117576734D01*
X51934403Y-117552449D01*
X52058788Y-117519178D01*
X52064000Y-117509558D01*
X52040673Y-117410682D01*
X51974351Y-117168631D01*
X51870528Y-116802474D01*
X51734695Y-116331279D01*
X51572345Y-115774113D01*
X51388970Y-115150046D01*
X51255639Y-114699438D01*
X52586862Y-114699438D01*
X52587678Y-115444991D01*
X52589740Y-116097479D01*
X52592999Y-116642242D01*
X52597403Y-117064618D01*
X52602904Y-117349946D01*
X52609451Y-117483567D01*
X52610896Y-117490834D01*
X52662703Y-117523336D01*
X52800200Y-117548994D01*
X53037939Y-117568435D01*
X53390473Y-117582285D01*
X53872354Y-117591172D01*
X54498136Y-117595722D01*
X55067010Y-117596667D01*
X57482667Y-117596667D01*
X58329334Y-117596667D01*
X61208000Y-117596667D01*
X61208000Y-112686000D01*
X61410287Y-112686000D01*
X61624610Y-112738759D01*
X61812454Y-112847766D01*
X61871903Y-112899013D01*
X61918465Y-112958494D01*
X61954009Y-113046316D01*
X61980405Y-113182587D01*
X61999520Y-113387413D01*
X62013225Y-113680903D01*
X62023387Y-114083163D01*
X62031876Y-114614300D01*
X62040561Y-115294421D01*
X62040668Y-115303100D01*
X62069003Y-117596667D01*
X64679334Y-117596667D01*
X64679334Y-115660890D01*
X64677881Y-115395334D01*
X65695334Y-115395334D01*
X65695334Y-117596667D01*
X67727334Y-117596667D01*
X67727334Y-115395334D01*
X65695334Y-115395334D01*
X64677881Y-115395334D01*
X64674855Y-114842342D01*
X64657904Y-114174309D01*
X64623207Y-113638122D01*
X64565493Y-113215116D01*
X64479489Y-112886624D01*
X64359921Y-112633980D01*
X64201517Y-112438516D01*
X63999004Y-112281567D01*
X63747110Y-112144466D01*
X63676758Y-112111541D01*
X63209187Y-111897480D01*
X63608030Y-111796210D01*
X63959073Y-111674810D01*
X64224168Y-111498182D01*
X64413687Y-111244916D01*
X64538003Y-110893605D01*
X64598361Y-110484667D01*
X65695334Y-110484667D01*
X65695334Y-112686000D01*
X67727334Y-112686000D01*
X67727334Y-110484667D01*
X65695334Y-110484667D01*
X64598361Y-110484667D01*
X64607487Y-110422838D01*
X64632512Y-109811206D01*
X64633096Y-109680334D01*
X64611786Y-109008890D01*
X64542479Y-108471728D01*
X64417413Y-108038646D01*
X64228829Y-107679443D01*
X64064146Y-107466285D01*
X63859430Y-107263992D01*
X63622644Y-107098165D01*
X63336018Y-106965460D01*
X62981780Y-106862531D01*
X62542161Y-106786032D01*
X61999389Y-106732618D01*
X61335694Y-106698943D01*
X60533304Y-106681662D01*
X59874500Y-106677518D01*
X58329334Y-106674667D01*
X58329334Y-117596667D01*
X57482667Y-117596667D01*
X57482667Y-115395334D01*
X55450667Y-115395334D01*
X55450667Y-113024667D01*
X57233879Y-113024667D01*
X57210106Y-111987500D01*
X57186334Y-110950334D01*
X56318500Y-110926205D01*
X55450667Y-110902076D01*
X55450667Y-108876000D01*
X57313334Y-108876000D01*
X57313334Y-106671988D01*
X52614334Y-106717000D01*
X52592387Y-112051000D01*
X52589166Y-112987782D01*
X52587341Y-113875481D01*
X52586862Y-114699438D01*
X51255639Y-114699438D01*
X51217334Y-114569982D01*
X51020127Y-113902959D01*
X50839198Y-113285940D01*
X50680044Y-112738064D01*
X50548162Y-112278468D01*
X50449049Y-111926289D01*
X50388201Y-111700665D01*
X50370667Y-111622335D01*
X50396110Y-111520656D01*
X50468110Y-111278803D01*
X50580175Y-110917409D01*
X50725811Y-110457109D01*
X50898525Y-109918536D01*
X51091824Y-109322326D01*
X51164103Y-109100911D01*
X51957539Y-106674667D01*
X49304289Y-106674667D01*
X48715644Y-108669802D01*
X48127000Y-110664938D01*
X48042334Y-106717000D01*
X46624167Y-106693786D01*
X45206000Y-106670573D01*
X45206000Y-117596667D01*
X43270910Y-117596667D01*
X43810785Y-117594165D01*
X44201992Y-117585554D01*
X44465139Y-117569174D01*
X44620831Y-117543368D01*
X44689678Y-117506476D01*
X44698000Y-117481789D01*
X44685885Y-117378738D01*
X44651267Y-117125747D01*
X44596735Y-116740340D01*
X44524879Y-116240042D01*
X44438289Y-115642376D01*
X44339554Y-114964866D01*
X44231263Y-114225036D01*
X44116006Y-113440411D01*
X43996374Y-112628514D01*
X43874955Y-111806869D01*
X43754339Y-110993001D01*
X43637116Y-110204433D01*
X43525875Y-109458690D01*
X43423206Y-108773295D01*
X43331698Y-108165773D01*
X43253941Y-107653647D01*
X43192525Y-107254441D01*
X43150040Y-106985680D01*
X43129137Y-106865167D01*
X43086107Y-106674667D01*
X39033007Y-106674667D01*
X38985424Y-106949834D01*
X38967199Y-107074538D01*
X38929742Y-107346334D01*
X38875361Y-107747753D01*
X38806361Y-108261326D01*
X38725050Y-108869587D01*
X38633736Y-109555065D01*
X38534724Y-110300295D01*
X38430323Y-111087806D01*
X38322840Y-111900132D01*
X38214580Y-112719805D01*
X38107853Y-113529355D01*
X38004963Y-114311316D01*
X37908220Y-115048218D01*
X37819929Y-115722595D01*
X37742397Y-116316977D01*
X37677933Y-116813898D01*
X37628842Y-117195887D01*
X37597432Y-117445479D01*
X37586010Y-117545204D01*
X37586000Y-117545691D01*
X37078000Y-117545691D01*
X37078000Y-106671364D01*
X33395000Y-106717000D01*
X33085111Y-109115334D01*
X33004438Y-109732482D01*
X32929383Y-110293001D01*
X32862958Y-110775474D01*
X32808173Y-111158481D01*
X32768040Y-111420604D01*
X32745569Y-111540426D01*
X32743464Y-111545425D01*
X32724117Y-111473519D01*
X32685257Y-111254676D01*
X32630109Y-110909758D01*
X32561898Y-110459629D01*
X32483847Y-109925151D01*
X32399181Y-109327188D01*
X32385895Y-109231758D01*
X32299677Y-108617426D01*
X32219157Y-108055647D01*
X32147700Y-107568955D01*
X32088670Y-107179889D01*
X32045432Y-106910986D01*
X32021348Y-106784782D01*
X32019983Y-106780500D01*
X31962827Y-106743285D01*
X31812473Y-106715143D01*
X31552788Y-106695152D01*
X31167637Y-106682388D01*
X30640886Y-106675930D01*
X30168608Y-106674667D01*
X28357334Y-106674667D01*
X25563334Y-106674667D01*
X25563334Y-105069068D01*
X28113963Y-105069068D01*
X28119805Y-105247956D01*
X28156877Y-105348555D01*
X28227731Y-105393298D01*
X28334916Y-105404618D01*
X28436376Y-105404667D01*
X28654323Y-105391691D01*
X28756192Y-105330133D01*
X28794602Y-105186052D01*
X28796210Y-105172557D01*
X28868490Y-104979531D01*
X28971167Y-104912349D01*
X29077752Y-104930875D01*
X29117149Y-105066597D01*
X29119334Y-105144459D01*
X29132158Y-105311248D01*
X29203030Y-105385390D01*
X29380541Y-105404221D01*
X29458000Y-105404667D01*
X29600655Y-105402832D01*
X29701557Y-105382059D01*
X29763321Y-105319447D01*
X29788563Y-105192094D01*
X29779896Y-104977098D01*
X29739935Y-104651559D01*
X29671295Y-104192574D01*
X29628230Y-103913615D01*
X29620823Y-103865092D01*
X29896462Y-103865092D01*
X29937472Y-103943701D01*
X30087314Y-103964536D01*
X30213273Y-103965334D01*
X30434213Y-103954300D01*
X30533517Y-103901901D01*
X30558427Y-103779183D01*
X30558667Y-103753667D01*
X30587649Y-103594552D01*
X30643334Y-103542000D01*
X30706859Y-103614490D01*
X30728000Y-103754767D01*
X30692315Y-103907242D01*
X30560868Y-104035013D01*
X30350383Y-104150995D01*
X30045997Y-104363142D01*
X29901414Y-104628672D01*
X29914185Y-104952506D01*
X29927720Y-105000598D01*
X30069303Y-105280140D01*
X30273755Y-105402584D01*
X30539926Y-105367426D01*
X30648900Y-105317021D01*
X30783690Y-105272621D01*
X30812667Y-105317021D01*
X30887086Y-105374949D01*
X31070079Y-105403909D01*
X31109000Y-105404667D01*
X31405334Y-105404667D01*
X31405334Y-104393468D01*
X31403334Y-103962554D01*
X31393805Y-103668772D01*
X31371445Y-103479935D01*
X31330957Y-103363855D01*
X31267042Y-103288347D01*
X31217161Y-103250468D01*
X30961694Y-103148777D01*
X30644504Y-103122275D01*
X30341170Y-103169802D01*
X30151501Y-103266834D01*
X30011661Y-103456065D01*
X29923727Y-103690167D01*
X29896462Y-103865092D01*
X29620823Y-103865092D01*
X29565204Y-103500773D01*
X29512768Y-103148745D01*
X29508456Y-103118667D01*
X31659334Y-103118667D01*
X31659334Y-104205222D01*
X31663504Y-104618211D01*
X31674901Y-104968165D01*
X31691852Y-105221218D01*
X31712683Y-105343502D01*
X31715778Y-105348222D01*
X31832135Y-105387159D01*
X32037289Y-105404599D01*
X32051020Y-105404667D01*
X32329819Y-105404667D01*
X32354409Y-104706167D01*
X32370950Y-104357795D01*
X32397527Y-104140587D01*
X32444638Y-104016377D01*
X32522780Y-103946996D01*
X32569500Y-103924090D01*
X32695264Y-103834279D01*
X32750438Y-103675709D01*
X32760000Y-103479590D01*
X32739313Y-103225764D01*
X32670884Y-103129410D01*
X32545159Y-103183029D01*
X32469714Y-103251714D01*
X32368251Y-103339896D01*
X32338131Y-103302213D01*
X32336667Y-103251714D01*
X32287324Y-103160637D01*
X32118050Y-103122160D01*
X31998000Y-103118667D01*
X31659334Y-103118667D01*
X29508456Y-103118667D01*
X29475836Y-102891149D01*
X29459320Y-102761602D01*
X29458897Y-102754793D01*
X29381525Y-102723443D01*
X29180661Y-102708626D01*
X28931258Y-102712460D01*
X28404516Y-102737667D01*
X28258327Y-103838334D01*
X28185775Y-104386690D01*
X28136804Y-104789457D01*
X28113963Y-105069068D01*
X25563334Y-105069068D01*
X25563334Y-102695334D01*
X32929334Y-102695334D01*
X32929334Y-105414889D01*
X33246834Y-105388611D01*
X33564334Y-105362334D01*
X33588365Y-104452167D01*
X33604967Y-104082532D01*
X33631351Y-103785098D01*
X33663605Y-103594433D01*
X33691334Y-103542000D01*
X33725475Y-103620903D01*
X33756912Y-103834564D01*
X33781735Y-104148412D01*
X33794302Y-104452167D01*
X33818334Y-105362334D01*
X34135834Y-105388611D01*
X34453334Y-105414889D01*
X34453334Y-104399825D01*
X34449850Y-104167682D01*
X34707334Y-104167682D01*
X34710117Y-104616496D01*
X34720987Y-104925251D01*
X34743723Y-105123166D01*
X34782104Y-105239461D01*
X34839909Y-105303355D01*
X34855500Y-105313218D01*
X35107182Y-105394792D01*
X35346402Y-105369139D01*
X35452400Y-105303067D01*
X35536295Y-105244162D01*
X35554000Y-105303067D01*
X35631971Y-105372720D01*
X35843968Y-105403901D01*
X35892667Y-105404667D01*
X36231334Y-105404667D01*
X36231334Y-103578325D01*
X36442072Y-103578325D01*
X36446898Y-103847490D01*
X36575264Y-104119411D01*
X36832593Y-104360958D01*
X36904102Y-104405053D01*
X37147791Y-104580679D01*
X37243546Y-104751882D01*
X37246681Y-104790834D01*
X37217509Y-104939539D01*
X37168555Y-104981334D01*
X37096766Y-104909344D01*
X37062722Y-104790834D01*
X36999339Y-104648566D01*
X36831835Y-104583047D01*
X36755045Y-104573396D01*
X36573284Y-104565263D01*
X36499443Y-104619029D01*
X36494189Y-104780283D01*
X36501045Y-104867782D01*
X36555661Y-105118996D01*
X36688295Y-105266883D01*
X36739334Y-105295639D01*
X37095045Y-105399267D01*
X37437041Y-105364655D01*
X37716849Y-105196849D01*
X37898823Y-104918825D01*
X37922161Y-104628174D01*
X37793385Y-104349621D01*
X37519021Y-104107892D01*
X37413836Y-104048556D01*
X37165119Y-103880082D01*
X37078044Y-103713314D01*
X37078000Y-103709613D01*
X37113782Y-103572969D01*
X37162667Y-103542000D01*
X37231457Y-103612913D01*
X37247334Y-103711334D01*
X37280482Y-103828042D01*
X37409889Y-103875132D01*
X37543667Y-103880667D01*
X37742853Y-103866358D01*
X37824547Y-103794707D01*
X37840000Y-103631468D01*
X37766389Y-103373630D01*
X37555012Y-103200551D01*
X37220057Y-103122259D01*
X37114617Y-103118667D01*
X36781353Y-103180783D01*
X36555364Y-103345046D01*
X36442072Y-103578325D01*
X36231334Y-103578325D01*
X36231334Y-103118667D01*
X35554000Y-103118667D01*
X35554000Y-104050000D01*
X35544289Y-104518611D01*
X35519018Y-104822410D01*
X35483981Y-104960745D01*
X35444975Y-104932961D01*
X35407794Y-104738404D01*
X35378232Y-104376421D01*
X35366365Y-104071167D01*
X35342334Y-103161000D01*
X35024834Y-103134723D01*
X34707334Y-103108445D01*
X34707334Y-104167682D01*
X34449850Y-104167682D01*
X34445780Y-103896636D01*
X34416509Y-103540153D01*
X34355602Y-103308160D01*
X34253143Y-103178443D01*
X34099214Y-103128786D01*
X33889290Y-103136337D01*
X33697431Y-103145223D01*
X33620385Y-103084913D01*
X33606667Y-102932332D01*
X33591570Y-102780168D01*
X33514095Y-102712519D01*
X33325968Y-102695602D01*
X33268000Y-102695334D01*
X38686667Y-102695334D01*
X38686667Y-103993556D01*
X38690423Y-104446655D01*
X38700777Y-104838932D01*
X38716360Y-105139616D01*
X38735804Y-105317939D01*
X38747124Y-105352235D01*
X38866800Y-105387698D01*
X39064624Y-105387513D01*
X39321667Y-105362334D01*
X39364000Y-104685000D01*
X39406334Y-104007667D01*
X39478153Y-104593921D01*
X39528258Y-104969992D01*
X39575167Y-105208257D01*
X39631081Y-105339539D01*
X39708200Y-105394664D01*
X39799049Y-105404667D01*
X39894752Y-105393812D01*
X39964730Y-105341708D01*
X40020842Y-105219050D01*
X40074945Y-104996531D01*
X40138899Y-104644845D01*
X40162221Y-104507138D01*
X40274691Y-103838334D01*
X40285012Y-104621500D01*
X40295334Y-105404667D01*
X40888000Y-105404667D01*
X40888000Y-103118667D01*
X41142000Y-103118667D01*
X41142000Y-104205222D01*
X41146171Y-104618211D01*
X41157568Y-104968165D01*
X41174518Y-105221218D01*
X41195350Y-105343502D01*
X41198445Y-105348222D01*
X41314637Y-105386965D01*
X41520347Y-105404569D01*
X41537111Y-105404667D01*
X41819334Y-105404667D01*
X41819334Y-103118667D01*
X42073334Y-103118667D01*
X42073334Y-104205222D01*
X42077504Y-104618211D01*
X42088901Y-104968165D01*
X42105852Y-105221218D01*
X42126683Y-105343502D01*
X42129778Y-105348222D01*
X42245970Y-105386965D01*
X42451681Y-105404569D01*
X42468445Y-105404667D01*
X42750667Y-105404667D01*
X42750667Y-104473334D01*
X42754294Y-104056457D01*
X42767617Y-103781967D01*
X42794295Y-103623025D01*
X42837987Y-103552794D01*
X42877667Y-103542000D01*
X42934380Y-103568528D01*
X42971775Y-103665966D01*
X42993482Y-103861094D01*
X43003135Y-104180692D01*
X43004667Y-104478444D01*
X43004667Y-105414889D01*
X43322167Y-105388611D01*
X43639667Y-105362334D01*
X43658558Y-104577167D01*
X43863850Y-104577167D01*
X43865893Y-104925609D01*
X43875111Y-105179426D01*
X43890159Y-105299056D01*
X44011280Y-105381020D01*
X44252820Y-105388652D01*
X44571000Y-105362334D01*
X44571000Y-103161000D01*
X43893667Y-103161000D01*
X43869673Y-104172071D01*
X43863850Y-104577167D01*
X43658558Y-104577167D01*
X43661057Y-104473334D01*
X43661477Y-103960760D01*
X43629446Y-103593325D01*
X43557795Y-103348731D01*
X43439357Y-103204682D01*
X43266964Y-103138882D01*
X43230418Y-103133716D01*
X43012383Y-103147576D01*
X42872547Y-103207583D01*
X42771481Y-103262221D01*
X42750667Y-103213700D01*
X42674549Y-103152095D01*
X42478855Y-103120340D01*
X42412000Y-103118667D01*
X42073334Y-103118667D01*
X41819334Y-103118667D01*
X41142000Y-103118667D01*
X40888000Y-103118667D01*
X40888000Y-102864667D01*
X41142000Y-102864667D01*
X41170400Y-102975451D01*
X41285189Y-103024413D01*
X41480667Y-103034000D01*
X41702235Y-103019800D01*
X41800159Y-102962406D01*
X41819334Y-102864667D01*
X41804864Y-102808222D01*
X43851334Y-102808222D01*
X43894739Y-102955793D01*
X44044192Y-103018736D01*
X44270937Y-103016863D01*
X44507135Y-102959981D01*
X44597671Y-102843500D01*
X44587791Y-102751497D01*
X44487104Y-102707307D01*
X44257885Y-102695364D01*
X44238542Y-102695334D01*
X45460000Y-102695334D01*
X45460000Y-105404667D01*
X46052667Y-105404667D01*
X46062988Y-104621500D01*
X46073309Y-103838334D01*
X46185779Y-104507138D01*
X46255108Y-104904135D01*
X46310962Y-105163010D01*
X46365202Y-105313070D01*
X46429686Y-105383621D01*
X46516271Y-105403970D01*
X46548951Y-105404667D01*
X46653944Y-105388784D01*
X46727929Y-105321240D01*
X46782133Y-105172189D01*
X46827784Y-104911786D01*
X46872187Y-104545492D01*
X46941667Y-103923000D01*
X46984000Y-104642667D01*
X47026334Y-105362334D01*
X47619000Y-105362334D01*
X47629299Y-104771995D01*
X47831963Y-104771995D01*
X47890157Y-105093399D01*
X48050094Y-105307244D01*
X48284210Y-105393923D01*
X48564942Y-105333833D01*
X48598233Y-105317021D01*
X48733023Y-105272621D01*
X48762000Y-105317021D01*
X48836419Y-105374949D01*
X49019413Y-105403909D01*
X49058334Y-105404667D01*
X49354667Y-105404667D01*
X49354667Y-104431000D01*
X49345492Y-103929853D01*
X49309342Y-103573551D01*
X49233279Y-103338188D01*
X49104362Y-103199858D01*
X48909654Y-103134656D01*
X48644380Y-103118667D01*
X48267352Y-103178445D01*
X48009335Y-103358362D01*
X47869134Y-103659291D01*
X47862672Y-103690167D01*
X47837203Y-103864424D01*
X47878664Y-103943218D01*
X48027841Y-103964454D01*
X48158750Y-103965334D01*
X48381253Y-103954583D01*
X48481883Y-103903329D01*
X48507675Y-103783064D01*
X48508000Y-103753667D01*
X48536983Y-103594552D01*
X48592667Y-103542000D01*
X48656502Y-103614403D01*
X48677334Y-103751946D01*
X48636901Y-103909769D01*
X48491971Y-104045659D01*
X48317500Y-104144320D01*
X48048904Y-104294696D01*
X47902398Y-104430361D01*
X47842134Y-104597662D01*
X47831963Y-104771995D01*
X47629299Y-104771995D01*
X47642339Y-104024544D01*
X47665527Y-102695334D01*
X49608667Y-102695334D01*
X49608667Y-105404667D01*
X50286000Y-105404667D01*
X50302256Y-104515667D01*
X50400103Y-104939000D01*
X50465507Y-105188834D01*
X50539125Y-105317806D01*
X50662634Y-105371046D01*
X50815308Y-105388611D01*
X51018801Y-105388998D01*
X51127194Y-105357120D01*
X51132667Y-105344576D01*
X51111408Y-105234202D01*
X51055188Y-105006449D01*
X50975340Y-104706821D01*
X50959600Y-104649731D01*
X50873267Y-104320964D01*
X50834354Y-104096109D01*
X50834719Y-104085335D01*
X51231245Y-104085335D01*
X51233417Y-104593815D01*
X51302059Y-104960669D01*
X51441794Y-105201903D01*
X51583193Y-105304021D01*
X51929667Y-105392704D01*
X52280517Y-105351754D01*
X52518249Y-105229188D01*
X52694187Y-105021282D01*
X52741334Y-104763522D01*
X52727817Y-104568985D01*
X52652679Y-104489201D01*
X52464036Y-104473360D01*
X52445000Y-104473334D01*
X52245905Y-104487493D01*
X52164245Y-104559313D01*
X52148667Y-104727334D01*
X52110803Y-104928986D01*
X52021667Y-104981334D01*
X51933360Y-104925410D01*
X51896972Y-104740031D01*
X51894667Y-104642667D01*
X51894667Y-104304000D01*
X52741334Y-104304000D01*
X52741334Y-103886812D01*
X52725265Y-103611513D01*
X52660283Y-103437023D01*
X52521226Y-103296493D01*
X52518249Y-103294145D01*
X52222089Y-103153218D01*
X51881373Y-103125255D01*
X51566145Y-103211273D01*
X51461656Y-103278812D01*
X51356829Y-103386766D01*
X51291843Y-103531701D01*
X51253819Y-103758699D01*
X51231245Y-104085335D01*
X50834719Y-104085335D01*
X50840429Y-103917250D01*
X50889061Y-103726468D01*
X50917267Y-103641517D01*
X51008044Y-103361447D01*
X51033393Y-103204989D01*
X50984555Y-103136189D01*
X50852771Y-103119091D01*
X50789913Y-103118667D01*
X52995334Y-103118667D01*
X52995334Y-104205222D01*
X52999504Y-104618211D01*
X53010901Y-104968165D01*
X53027852Y-105221218D01*
X53048683Y-105343502D01*
X53051778Y-105348222D01*
X53168135Y-105387159D01*
X53373289Y-105404599D01*
X53387020Y-105404667D01*
X53665819Y-105404667D01*
X53690409Y-104706167D01*
X53706950Y-104357795D01*
X53733527Y-104140587D01*
X53780638Y-104016377D01*
X53858780Y-103946996D01*
X53905500Y-103924090D01*
X54031264Y-103834279D01*
X54086438Y-103675709D01*
X54096000Y-103479590D01*
X54092644Y-103372667D01*
X54180667Y-103372667D01*
X54216123Y-103510247D01*
X54265334Y-103542000D01*
X54303471Y-103622985D01*
X54331398Y-103851613D01*
X54347174Y-104206398D01*
X54350000Y-104478444D01*
X54350000Y-105414889D01*
X54667500Y-105388611D01*
X54985000Y-105362334D01*
X55009031Y-104452167D01*
X55026188Y-104072368D01*
X55053542Y-103773554D01*
X55064270Y-103714632D01*
X55281334Y-103714632D01*
X55298190Y-103883121D01*
X55382944Y-103952226D01*
X55577667Y-103965334D01*
X55778065Y-103949519D01*
X55860104Y-103878354D01*
X55874000Y-103753667D01*
X55918161Y-103583428D01*
X56001000Y-103542000D01*
X56103443Y-103615098D01*
X56128000Y-103744684D01*
X56089487Y-103890465D01*
X55951425Y-104020733D01*
X55725834Y-104146851D01*
X55490973Y-104272202D01*
X55368268Y-104385819D01*
X55316381Y-104547481D01*
X55297111Y-104766862D01*
X55296062Y-105050391D01*
X55345679Y-105218608D01*
X55419127Y-105296029D01*
X55654862Y-105392721D01*
X55895798Y-105379139D01*
X56026400Y-105303067D01*
X56110080Y-105245361D01*
X56128000Y-105308178D01*
X56204250Y-105381132D01*
X56434684Y-105389476D01*
X56445500Y-105388611D01*
X56763000Y-105362334D01*
X56763000Y-104577167D01*
X56987184Y-104577167D01*
X56989226Y-104925609D01*
X56998444Y-105179426D01*
X57013492Y-105299056D01*
X57134613Y-105381020D01*
X57376153Y-105388652D01*
X57694334Y-105362334D01*
X57717992Y-104235510D01*
X57741441Y-103118667D01*
X57990667Y-103118667D01*
X57990667Y-105414889D01*
X58308167Y-105388611D01*
X58625667Y-105362334D01*
X58650401Y-104654974D01*
X58667245Y-104303434D01*
X58676239Y-104229327D01*
X59176000Y-104229327D01*
X59180036Y-104599484D01*
X59198259Y-104843105D01*
X59239848Y-105002911D01*
X59313978Y-105121625D01*
X59383818Y-105196849D01*
X59613198Y-105354450D01*
X59910683Y-105404448D01*
X59938000Y-105404667D01*
X60243736Y-105361600D01*
X60475558Y-105213108D01*
X60492182Y-105196849D01*
X60508729Y-105170996D01*
X61473216Y-105170996D01*
X61479831Y-105290449D01*
X61518445Y-105348222D01*
X61623853Y-105374167D01*
X61855014Y-105393822D01*
X62168373Y-105403959D01*
X62280445Y-105404667D01*
X62986000Y-105404667D01*
X62986000Y-105150667D01*
X62972626Y-104987800D01*
X62900154Y-104915399D01*
X62720055Y-104897068D01*
X62647334Y-104896667D01*
X62435151Y-104888353D01*
X62317238Y-104867586D01*
X62308667Y-104859223D01*
X62350442Y-104774731D01*
X62460981Y-104585200D01*
X62618103Y-104328434D01*
X62651213Y-104275452D01*
X62827813Y-103964116D01*
X62838571Y-103940950D01*
X63236429Y-103940950D01*
X63245443Y-104357072D01*
X63280092Y-104728884D01*
X63340337Y-105003469D01*
X63365219Y-105062555D01*
X63478537Y-105244251D01*
X63614888Y-105344130D01*
X63827253Y-105387432D01*
X64069349Y-105397983D01*
X64360480Y-105371332D01*
X64572485Y-105259394D01*
X64640849Y-105196849D01*
X64734246Y-105091861D01*
X64794536Y-104976315D01*
X64828903Y-104812297D01*
X64844531Y-104561895D01*
X64848606Y-104187197D01*
X64848667Y-104100166D01*
X64839896Y-103707091D01*
X64816253Y-103358897D01*
X64794614Y-103197967D01*
X65034248Y-103197967D01*
X65060759Y-103324415D01*
X65229667Y-103407435D01*
X65322753Y-103436661D01*
X65383548Y-103489343D01*
X65418928Y-103596958D01*
X65435772Y-103790986D01*
X65440957Y-104102902D01*
X65441334Y-104376169D01*
X65446263Y-104754270D01*
X65459607Y-105067451D01*
X65479196Y-105278360D01*
X65497778Y-105348222D01*
X65613970Y-105386965D01*
X65819681Y-105404569D01*
X65836445Y-105404667D01*
X66118667Y-105404667D01*
X66118667Y-104050000D01*
X66118319Y-103803386D01*
X66384858Y-103803386D01*
X66385582Y-104393933D01*
X66440732Y-104833164D01*
X66552577Y-105130865D01*
X66723383Y-105296820D01*
X66731949Y-105301086D01*
X67035615Y-105383823D01*
X67377403Y-105386904D01*
X67664807Y-105309710D01*
X67669400Y-105307325D01*
X67820494Y-105211968D01*
X67912735Y-105093396D01*
X67960470Y-104910246D01*
X67978046Y-104621158D01*
X67980037Y-104411785D01*
X67975764Y-104089214D01*
X67952408Y-103890051D01*
X67896702Y-103768468D01*
X67795379Y-103678641D01*
X67761122Y-103655615D01*
X67560584Y-103561343D01*
X67360921Y-103581327D01*
X67290675Y-103605780D01*
X67040440Y-103700233D01*
X67066387Y-103394828D01*
X67110318Y-103196177D01*
X67183797Y-103070962D01*
X67257237Y-103043902D01*
X67301055Y-103139721D01*
X67304000Y-103196278D01*
X67330147Y-103311215D01*
X67438770Y-103362117D01*
X67642667Y-103372667D01*
X67861140Y-103360826D01*
X67958222Y-103306146D01*
X67981269Y-103179888D01*
X67981334Y-103167145D01*
X67907651Y-102926038D01*
X67714529Y-102747488D01*
X67443853Y-102642597D01*
X67137509Y-102622467D01*
X66837384Y-102698200D01*
X66652555Y-102814946D01*
X66539879Y-102922835D01*
X66467784Y-103038947D01*
X66425079Y-103204596D01*
X66400578Y-103461091D01*
X66384858Y-103803386D01*
X66118319Y-103803386D01*
X66117908Y-103512297D01*
X66108400Y-103125729D01*
X66079297Y-102872108D01*
X66019751Y-102733251D01*
X65918916Y-102690970D01*
X65765946Y-102727080D01*
X65549994Y-102823394D01*
X65423456Y-102884382D01*
X65157016Y-103046245D01*
X65034248Y-103197967D01*
X64794614Y-103197967D01*
X64781741Y-103102232D01*
X64754664Y-103004987D01*
X64568086Y-102776187D01*
X64293521Y-102644122D01*
X63980658Y-102610545D01*
X63679190Y-102677210D01*
X63438809Y-102845870D01*
X63363609Y-102955890D01*
X63295472Y-103187442D01*
X63253093Y-103533434D01*
X63236429Y-103940950D01*
X62838571Y-103940950D01*
X62967494Y-103663338D01*
X63041250Y-103435935D01*
X63042654Y-103427824D01*
X63055041Y-103210325D01*
X62985777Y-103040795D01*
X62833620Y-102868595D01*
X62526730Y-102658183D01*
X62208040Y-102598905D01*
X61912124Y-102680296D01*
X61673556Y-102891892D01*
X61526909Y-103223229D01*
X61517819Y-103266834D01*
X61493592Y-103443271D01*
X61538109Y-103521448D01*
X61692808Y-103541376D01*
X61802784Y-103542000D01*
X62019059Y-103531805D01*
X62114862Y-103476735D01*
X62138853Y-103340063D01*
X62139334Y-103288000D01*
X62172673Y-103092891D01*
X62277411Y-103034000D01*
X62375779Y-103099179D01*
X62373711Y-103287576D01*
X62274394Y-103588485D01*
X62081014Y-103991200D01*
X61893254Y-104324780D01*
X61670678Y-104713419D01*
X61533749Y-104987072D01*
X61473216Y-105170996D01*
X60508729Y-105170996D01*
X60663492Y-104929196D01*
X60700000Y-104731182D01*
X60683261Y-104556623D01*
X60598450Y-104486081D01*
X60410394Y-104473334D01*
X60206569Y-104493865D01*
X60107538Y-104586136D01*
X60065000Y-104727334D01*
X59995552Y-104928323D01*
X59924533Y-104968842D01*
X59870958Y-104856495D01*
X59853334Y-104642667D01*
X59853334Y-104304000D01*
X60700000Y-104304000D01*
X60700000Y-103919152D01*
X60670930Y-103621202D01*
X60565870Y-103408924D01*
X60492182Y-103326485D01*
X60214997Y-103159411D01*
X59880768Y-103117210D01*
X59548704Y-103201632D01*
X59399085Y-103294145D01*
X59292599Y-103388456D01*
X59226780Y-103493968D01*
X59191898Y-103651474D01*
X59178222Y-103901766D01*
X59176000Y-104229327D01*
X58676239Y-104229327D01*
X58693620Y-104086125D01*
X58738432Y-103967948D01*
X58810589Y-103913801D01*
X58840901Y-103904266D01*
X58948700Y-103840293D01*
X58997497Y-103692187D01*
X59006667Y-103489792D01*
X58995008Y-103236822D01*
X58947297Y-103135901D01*
X58844432Y-103170595D01*
X58738167Y-103258789D01*
X58623333Y-103351761D01*
X58586263Y-103326334D01*
X58583334Y-103258789D01*
X58533423Y-103158598D01*
X58361710Y-103120384D01*
X58287000Y-103118667D01*
X57990667Y-103118667D01*
X57741441Y-103118667D01*
X57741651Y-103108687D01*
X57379326Y-103134844D01*
X57017000Y-103161000D01*
X56993006Y-104172071D01*
X56987184Y-104577167D01*
X56763000Y-104577167D01*
X56763000Y-104402290D01*
X56760872Y-103983974D01*
X56750416Y-103700707D01*
X56725526Y-103518218D01*
X56680097Y-103402237D01*
X56608023Y-103318496D01*
X56563120Y-103280457D01*
X56291712Y-103151147D01*
X55963891Y-103117952D01*
X55651020Y-103180164D01*
X55466632Y-103291298D01*
X55315071Y-103530256D01*
X55281334Y-103714632D01*
X55064270Y-103714632D01*
X55087363Y-103587809D01*
X55114865Y-103542000D01*
X55181337Y-103471062D01*
X55196667Y-103372667D01*
X55136798Y-103231163D01*
X55027334Y-103203334D01*
X54889691Y-103171974D01*
X54858000Y-103128542D01*
X54928462Y-103049492D01*
X55027334Y-103009468D01*
X55165056Y-102914843D01*
X55196667Y-102825621D01*
X55190249Y-102808222D01*
X56974667Y-102808222D01*
X57018073Y-102955793D01*
X57167526Y-103018736D01*
X57394270Y-103016863D01*
X57630469Y-102959981D01*
X57721004Y-102843500D01*
X57711125Y-102751497D01*
X57610438Y-102707307D01*
X57381218Y-102695364D01*
X57361875Y-102695334D01*
X57095108Y-102715893D01*
X56980944Y-102779894D01*
X56974667Y-102808222D01*
X55190249Y-102808222D01*
X55165526Y-102741210D01*
X55046055Y-102706874D01*
X54799185Y-102711562D01*
X54794500Y-102711861D01*
X54549170Y-102736842D01*
X54425537Y-102789603D01*
X54375966Y-102898864D01*
X54365543Y-102970500D01*
X54321225Y-103139630D01*
X54259710Y-103203334D01*
X54195472Y-103274296D01*
X54180667Y-103372667D01*
X54092644Y-103372667D01*
X54088438Y-103238677D01*
X54047800Y-103138632D01*
X53947154Y-103151104D01*
X53836434Y-103206312D01*
X53701644Y-103250712D01*
X53672667Y-103206312D01*
X53597563Y-103151431D01*
X53409940Y-103120903D01*
X53334000Y-103118667D01*
X52995334Y-103118667D01*
X50789913Y-103118667D01*
X50593705Y-103151230D01*
X50467970Y-103280468D01*
X50412227Y-103393834D01*
X50292628Y-103669000D01*
X50286000Y-102695334D01*
X49608667Y-102695334D01*
X47665527Y-102695334D01*
X47665677Y-102686754D01*
X47176672Y-102712210D01*
X46687667Y-102737667D01*
X46632740Y-103187705D01*
X46595187Y-103446272D01*
X46557715Y-103627140D01*
X46538166Y-103677390D01*
X46508964Y-103622642D01*
X46472393Y-103440521D01*
X46440721Y-103206186D01*
X46382925Y-102695334D01*
X45460000Y-102695334D01*
X44238542Y-102695334D01*
X43971775Y-102715893D01*
X43857611Y-102779894D01*
X43851334Y-102808222D01*
X41804864Y-102808222D01*
X41790933Y-102753883D01*
X41676144Y-102704921D01*
X41480667Y-102695334D01*
X41259099Y-102709534D01*
X41161174Y-102766928D01*
X41142000Y-102864667D01*
X40888000Y-102864667D01*
X40888000Y-102695334D01*
X39968851Y-102695334D01*
X39913947Y-103182167D01*
X39872542Y-103523953D01*
X39840339Y-103705107D01*
X39811639Y-103733675D01*
X39780743Y-103617701D01*
X39749000Y-103415000D01*
X39696775Y-103068122D01*
X39643362Y-102855614D01*
X39561221Y-102744576D01*
X39422816Y-102702108D01*
X39200608Y-102695308D01*
X39146628Y-102695334D01*
X38686667Y-102695334D01*
X33268000Y-102695334D01*
X32929334Y-102695334D01*
X25563334Y-102695334D01*
X25563334Y-99816667D01*
X70521334Y-99816667D01*
X70521334Y-130381334D01*
G36*
X48775313Y-39759560D02*
X49487350Y-39822624D01*
X50096041Y-39928298D01*
X50145446Y-39940275D01*
X51386105Y-40332635D01*
X52532998Y-40863443D01*
X53579202Y-41525777D01*
X54517795Y-42312718D01*
X55341853Y-43217345D01*
X56044455Y-44232737D01*
X56618676Y-45351973D01*
X57057595Y-46568132D01*
X57163125Y-46955888D01*
X57236779Y-47273481D01*
X57288621Y-47574158D01*
X57322056Y-47898353D01*
X57340485Y-48286502D01*
X57347313Y-48779041D01*
X57347249Y-49143667D01*
X57342754Y-49701170D01*
X57330679Y-50130962D01*
X57306813Y-50474633D01*
X57266947Y-50773773D01*
X57206871Y-51069969D01*
X57122376Y-51404812D01*
X57115927Y-51428946D01*
X56716567Y-52613736D01*
X56175416Y-53708391D01*
X55487042Y-54723175D01*
X55166988Y-55111633D01*
X54616577Y-55745599D01*
X55331135Y-55935287D01*
X55700941Y-56037426D01*
X56036138Y-56141753D01*
X56354974Y-56258261D01*
X56675699Y-56396946D01*
X57016560Y-56567802D01*
X57395807Y-56780824D01*
X57831688Y-57046007D01*
X58342451Y-57373346D01*
X58946346Y-57772837D01*
X59661620Y-58254472D01*
X60065000Y-58528045D01*
X60629751Y-58911465D01*
X61303197Y-59368404D01*
X62053797Y-59877478D01*
X62850007Y-60417300D01*
X63660284Y-60966485D01*
X64453086Y-61503646D01*
X65187334Y-62000941D01*
X65986543Y-62546119D01*
X66704522Y-63043983D01*
X67330414Y-63486694D01*
X67853363Y-63866411D01*
X68262514Y-64175295D01*
X68547009Y-64405504D01*
X68658690Y-64507966D01*
X69318255Y-65285969D01*
X69828045Y-66118947D01*
X70192647Y-66992259D01*
X70416649Y-67891267D01*
X70504636Y-68801330D01*
X70461197Y-69707809D01*
X70290918Y-70596065D01*
X69998387Y-71451458D01*
X69588191Y-72259348D01*
X69064916Y-73005096D01*
X68433150Y-73674062D01*
X67697480Y-74251607D01*
X66862493Y-74723091D01*
X65932776Y-75073875D01*
X65300234Y-75226352D01*
X64299355Y-75335023D01*
X63303690Y-75281556D01*
X62337046Y-75068174D01*
X61885334Y-74907580D01*
X61664672Y-74810258D01*
X61325844Y-74650278D01*
X60900843Y-74443244D01*
X60421666Y-74204759D01*
X59920307Y-73950428D01*
X59874500Y-73926940D01*
X58329334Y-73133886D01*
X58327863Y-82093777D01*
X58327636Y-83571812D01*
X58327145Y-84890608D01*
X58325905Y-86060262D01*
X58323433Y-87090868D01*
X58319243Y-87992520D01*
X58312852Y-88775314D01*
X58303776Y-89449346D01*
X58291531Y-90024709D01*
X58275632Y-90511499D01*
X58255595Y-90919811D01*
X58230936Y-91259740D01*
X58201171Y-91541381D01*
X58165815Y-91774829D01*
X58124386Y-91970179D01*
X58076397Y-92137526D01*
X58021366Y-92286965D01*
X57958807Y-92428591D01*
X57888237Y-92572499D01*
X57818694Y-92709895D01*
X57376344Y-93402495D01*
X56807537Y-93989908D01*
X56127119Y-94460268D01*
X55349934Y-94801705D01*
X55112000Y-94873969D01*
X54765142Y-94940654D01*
X54293370Y-94990797D01*
X53733453Y-95024366D01*
X53122161Y-95041334D01*
X52496261Y-95041670D01*
X51892522Y-95025345D01*
X51347713Y-94992329D01*
X50898603Y-94942593D01*
X50586760Y-94877602D01*
X49751713Y-94548947D01*
X49023561Y-94105680D01*
X48575399Y-93731699D01*
X48042334Y-93233233D01*
X47482371Y-93753601D01*
X46795951Y-94297980D01*
X46066373Y-94689168D01*
X45533540Y-94875066D01*
X45272281Y-94923814D01*
X44879027Y-94966007D01*
X44391032Y-95000481D01*
X43845548Y-95026074D01*
X43279829Y-95041625D01*
X42731127Y-95045969D01*
X42236696Y-95037945D01*
X41833787Y-95016390D01*
X41650000Y-94996265D01*
X40752939Y-94797271D01*
X39972978Y-94477143D01*
X39306461Y-94033454D01*
X38749728Y-93463775D01*
X38304354Y-92775663D01*
X38220534Y-92616905D01*
X38145756Y-92470786D01*
X38079505Y-92327214D01*
X38021261Y-92176098D01*
X37970508Y-92007344D01*
X37926729Y-91810859D01*
X37889406Y-91576551D01*
X37858023Y-91294328D01*
X37832060Y-90954097D01*
X37811002Y-90545764D01*
X37794331Y-90059239D01*
X37781530Y-89484427D01*
X37772080Y-88811237D01*
X37765466Y-88029576D01*
X37761169Y-87129351D01*
X37758673Y-86100470D01*
X37757459Y-84932839D01*
X37757011Y-83616367D01*
X37756811Y-82140961D01*
X37756804Y-82093588D01*
X37755334Y-73133510D01*
X36252500Y-73908897D01*
X35753492Y-74163597D01*
X35269839Y-74405453D01*
X34835154Y-74618027D01*
X34483046Y-74784885D01*
X34247127Y-74889591D01*
X34246367Y-74889901D01*
X33327160Y-75178960D01*
X32366974Y-75319863D01*
X31619975Y-75321597D01*
X30917992Y-75249294D01*
X30296564Y-75117994D01*
X29685188Y-74908623D01*
X29077000Y-74633609D01*
X28187555Y-74108716D01*
X27422988Y-73469828D01*
X26782347Y-72715844D01*
X26264684Y-71845665D01*
X25902257Y-70959596D01*
X25657181Y-69970366D01*
X25585320Y-69093589D01*
X27447628Y-69093589D01*
X27544384Y-69917595D01*
X27788930Y-70698309D01*
X28170593Y-71418140D01*
X28678697Y-72059493D01*
X29302570Y-72604778D01*
X30031535Y-73036402D01*
X30542543Y-73242928D01*
X31089556Y-73374654D01*
X31708373Y-73438085D01*
X32335783Y-73432279D01*
X32908575Y-73356296D01*
X33183334Y-73282262D01*
X33374837Y-73204417D01*
X33693758Y-73059562D01*
X34117245Y-72858740D01*
X34622441Y-72612995D01*
X35186494Y-72333367D01*
X35786550Y-72030899D01*
X36027564Y-71908021D01*
X36749271Y-71540395D01*
X37337978Y-71246326D01*
X37810672Y-71020778D01*
X38184343Y-70858715D01*
X38475981Y-70755104D01*
X38702573Y-70704908D01*
X38881110Y-70703091D01*
X39028579Y-70744619D01*
X39161971Y-70824457D01*
X39298275Y-70937568D01*
X39299164Y-70938363D01*
X39575667Y-71185393D01*
X39618000Y-81246530D01*
X39660334Y-91307667D01*
X39860955Y-91751459D01*
X40133155Y-92195951D01*
X40505830Y-92589146D01*
X40927344Y-92879398D01*
X41042603Y-92933323D01*
X41443115Y-93053600D01*
X41977685Y-93133622D01*
X42656143Y-93174297D01*
X43488318Y-93176533D01*
X43639667Y-93173305D01*
X44159382Y-93156035D01*
X44550351Y-93129737D01*
X44853118Y-93089151D01*
X45108228Y-93029014D01*
X45330376Y-92953908D01*
X45864119Y-92670957D01*
X46337243Y-92264102D01*
X46709604Y-91773233D01*
X46886313Y-91407700D01*
X46931114Y-91282213D01*
X46967915Y-91156471D01*
X46997504Y-91013149D01*
X47020669Y-90834921D01*
X47038199Y-90604462D01*
X47050881Y-90304447D01*
X47059504Y-89917550D01*
X47064855Y-89426445D01*
X47067723Y-88813807D01*
X47068896Y-88062310D01*
X47069139Y-87388657D01*
X47071414Y-86480422D01*
X47077797Y-85670834D01*
X47088011Y-84972091D01*
X47101779Y-84396390D01*
X47118822Y-83955928D01*
X47138863Y-83662902D01*
X47156722Y-83543351D01*
X47329691Y-83194872D01*
X47613118Y-82971859D01*
X47993640Y-82884273D01*
X48042333Y-82883334D01*
X48433024Y-82954931D01*
X48728135Y-83163084D01*
X48914303Y-83497835D01*
X48927945Y-83543351D01*
X48950168Y-83710656D01*
X48969613Y-84035079D01*
X48986004Y-84504423D01*
X48999062Y-85106491D01*
X49008509Y-85829086D01*
X49014068Y-86660012D01*
X49015528Y-87388657D01*
X49016017Y-88259211D01*
X49017725Y-88977654D01*
X49021398Y-89561208D01*
X49027779Y-90027095D01*
X49037615Y-90392537D01*
X49051649Y-90674757D01*
X49070626Y-90890975D01*
X49095292Y-91058414D01*
X49126390Y-91194297D01*
X49164666Y-91315844D01*
X49188157Y-91380445D01*
X49494825Y-91972018D01*
X49926856Y-92453568D01*
X50475610Y-92818599D01*
X51132449Y-93060612D01*
X51523895Y-93137131D01*
X51952442Y-93177056D01*
X52473549Y-93193338D01*
X53041893Y-93187818D01*
X53612150Y-93162338D01*
X54138995Y-93118738D01*
X54577105Y-93058859D01*
X54824729Y-93003037D01*
X55310262Y-92778626D01*
X55750783Y-92424972D01*
X56101395Y-91982166D01*
X56222035Y-91755357D01*
X56424334Y-91307667D01*
X56509000Y-71185393D01*
X56785503Y-70938363D01*
X56921877Y-70825061D01*
X57055235Y-70745002D01*
X57202565Y-70703220D01*
X57380856Y-70704752D01*
X57607098Y-70754633D01*
X57898280Y-70857898D01*
X58271390Y-71019582D01*
X58743418Y-71244721D01*
X59331353Y-71538350D01*
X60052183Y-71905504D01*
X60057103Y-71908021D01*
X60665061Y-72216449D01*
X61246009Y-72506383D01*
X61777095Y-72766780D01*
X62235464Y-72986599D01*
X62598262Y-73154796D01*
X62842636Y-73260329D01*
X62901334Y-73282262D01*
X63415544Y-73398182D01*
X64019971Y-73443392D01*
X64651402Y-73418836D01*
X65246628Y-73325455D01*
X65542124Y-73242928D01*
X66339802Y-72887877D01*
X67040174Y-72402301D01*
X67630578Y-71802047D01*
X68098352Y-71102958D01*
X68430834Y-70320882D01*
X68615362Y-69471663D01*
X68625074Y-69384794D01*
X68623847Y-68605432D01*
X68472840Y-67818880D01*
X68185693Y-67062299D01*
X67776049Y-66372850D01*
X67329488Y-65855453D01*
X67173638Y-65725438D01*
X66890643Y-65511400D01*
X66494503Y-65222869D01*
X65999216Y-64869375D01*
X65418783Y-64460447D01*
X64767202Y-64005614D01*
X64058474Y-63514406D01*
X63306597Y-62996353D01*
X62525571Y-62460984D01*
X61729396Y-61917829D01*
X60932071Y-61376417D01*
X60147595Y-60846277D01*
X59389969Y-60336940D01*
X58673190Y-59857935D01*
X58011260Y-59418791D01*
X57418176Y-59029039D01*
X56907940Y-58698206D01*
X56494549Y-58435824D01*
X56192004Y-58251421D01*
X56020733Y-58157485D01*
X55347080Y-57885810D01*
X54658880Y-57703011D01*
X53908276Y-57599573D01*
X53047410Y-57565984D01*
X53045290Y-57565980D01*
X52436530Y-57557345D01*
X51971535Y-57530603D01*
X51625240Y-57480733D01*
X51372583Y-57402713D01*
X51188500Y-57291521D01*
X51069587Y-57170134D01*
X50926378Y-56881574D01*
X50879211Y-56538238D01*
X50932444Y-56213369D01*
X51004245Y-56071724D01*
X51142741Y-55936891D01*
X51377564Y-55765353D01*
X51618078Y-55617485D01*
X52572098Y-54990206D01*
X53405508Y-54256457D01*
X54111180Y-53428795D01*
X54681985Y-52519774D01*
X55110796Y-51541950D01*
X55390485Y-50507879D01*
X55513922Y-49430117D01*
X55509761Y-48762667D01*
X55373742Y-47620631D01*
X55086194Y-46553895D01*
X54645897Y-45559776D01*
X54051630Y-44635594D01*
X53302172Y-43778664D01*
X53193228Y-43672012D01*
X52321047Y-42946389D01*
X51365692Y-42368222D01*
X50326437Y-41937114D01*
X49721181Y-41763123D01*
X49253475Y-41682411D01*
X48674988Y-41634008D01*
X48041161Y-41617913D01*
X47407435Y-41634126D01*
X46829251Y-41682647D01*
X46363486Y-41763123D01*
X45297054Y-42110376D01*
X44299149Y-42604970D01*
X43385388Y-43234479D01*
X42571390Y-43986479D01*
X41872770Y-44848543D01*
X41322088Y-45774223D01*
X40929166Y-46741202D01*
X40677993Y-47773357D01*
X40570065Y-48840987D01*
X40606874Y-49914390D01*
X40789914Y-50963863D01*
X41023317Y-51715427D01*
X41444820Y-52612376D01*
X42013092Y-53470966D01*
X42706103Y-54266230D01*
X43501817Y-54973199D01*
X44378204Y-55566905D01*
X44466589Y-55617485D01*
X44740922Y-55788148D01*
X44966373Y-55957214D01*
X45080422Y-56071724D01*
X45189537Y-56356298D01*
X45195905Y-56698788D01*
X45103884Y-57025952D01*
X45015080Y-57170134D01*
X44868946Y-57312747D01*
X44675089Y-57418011D01*
X44408443Y-57490948D01*
X44043946Y-57536579D01*
X43556536Y-57559926D01*
X43039377Y-57565980D01*
X42211688Y-57595976D01*
X41495600Y-57689730D01*
X40841949Y-57857812D01*
X40201572Y-58110792D01*
X39956667Y-58228776D01*
X39748251Y-58346512D01*
X39418217Y-58549655D01*
X38980647Y-58828614D01*
X38449620Y-59173804D01*
X37839219Y-59575634D01*
X37163523Y-60024518D01*
X36436614Y-60510866D01*
X35672572Y-61025091D01*
X34885479Y-61557604D01*
X34089415Y-62098817D01*
X33298461Y-62639143D01*
X32526698Y-63168992D01*
X31788207Y-63678776D01*
X31097069Y-64158908D01*
X30467364Y-64599799D01*
X29913174Y-64991860D01*
X29448579Y-65325504D01*
X29087660Y-65591143D01*
X28844498Y-65779188D01*
X28755179Y-65856308D01*
X28268047Y-66432594D01*
X27873426Y-67113371D01*
X27598256Y-67847010D01*
X27509337Y-68243883D01*
X27447628Y-69093589D01*
X25585320Y-69093589D01*
X25575412Y-68972715D01*
X25652880Y-67983878D01*
X25885514Y-67021088D01*
X26269243Y-66101580D01*
X26799996Y-65242586D01*
X27425977Y-64509088D01*
X27607408Y-64351365D01*
X27928938Y-64102936D01*
X28388576Y-63765207D01*
X28984331Y-63339584D01*
X29714213Y-62827471D01*
X30576230Y-62230274D01*
X31568392Y-61549397D01*
X32688708Y-60786244D01*
X33014000Y-60565528D01*
X33863045Y-59990555D01*
X34682020Y-59437235D01*
X35458471Y-58913904D01*
X36179945Y-58428894D01*
X36833988Y-57990542D01*
X37408149Y-57607181D01*
X37889972Y-57287145D01*
X38267005Y-57038770D01*
X38526794Y-56870389D01*
X38644334Y-56797427D01*
X39295405Y-56452262D01*
X39946962Y-56182482D01*
X40679679Y-55955108D01*
X40753532Y-55935287D01*
X41468090Y-55745599D01*
X40917679Y-55111633D01*
X40168943Y-54126798D01*
X39569176Y-53065899D01*
X39112733Y-51918277D01*
X38968052Y-51428946D01*
X38883383Y-51098868D01*
X38822643Y-50811170D01*
X38781932Y-50525911D01*
X38757351Y-50203148D01*
X38745000Y-49802942D01*
X38740981Y-49285349D01*
X38740817Y-49101334D01*
X38743197Y-48538693D01*
X38752863Y-48105760D01*
X38773609Y-47762943D01*
X38809225Y-47470654D01*
X38863504Y-47189301D01*
X38940237Y-46879294D01*
X38961137Y-46800979D01*
X39377264Y-45561510D01*
X39928878Y-44420821D01*
X40609722Y-43385047D01*
X41413542Y-42460322D01*
X42334084Y-41652781D01*
X43365090Y-40968559D01*
X44500308Y-40413789D01*
X45733481Y-39994606D01*
X45962253Y-39934805D01*
X46553398Y-39826729D01*
X47254909Y-39761543D01*
X48013356Y-39739176D01*
X48775313Y-39759560D01*
X48775313Y-39759560D01*
G37*
X48775313Y-39759560D02*
X49487350Y-39822624D01*
X50096041Y-39928298D01*
X50145446Y-39940275D01*
X51386105Y-40332635D01*
X52532998Y-40863443D01*
X53579202Y-41525777D01*
X54517795Y-42312718D01*
X55341853Y-43217345D01*
X56044455Y-44232737D01*
X56618676Y-45351973D01*
X57057595Y-46568132D01*
X57163125Y-46955888D01*
X57236779Y-47273481D01*
X57288621Y-47574158D01*
X57322056Y-47898353D01*
X57340485Y-48286502D01*
X57347313Y-48779041D01*
X57347249Y-49143667D01*
X57342754Y-49701170D01*
X57330679Y-50130962D01*
X57306813Y-50474633D01*
X57266947Y-50773773D01*
X57206871Y-51069969D01*
X57122376Y-51404812D01*
X57115927Y-51428946D01*
X56716567Y-52613736D01*
X56175416Y-53708391D01*
X55487042Y-54723175D01*
X55166988Y-55111633D01*
X54616577Y-55745599D01*
X55331135Y-55935287D01*
X55700941Y-56037426D01*
X56036138Y-56141753D01*
X56354974Y-56258261D01*
X56675699Y-56396946D01*
X57016560Y-56567802D01*
X57395807Y-56780824D01*
X57831688Y-57046007D01*
X58342451Y-57373346D01*
X58946346Y-57772837D01*
X59661620Y-58254472D01*
X60065000Y-58528045D01*
X60629751Y-58911465D01*
X61303197Y-59368404D01*
X62053797Y-59877478D01*
X62850007Y-60417300D01*
X63660284Y-60966485D01*
X64453086Y-61503646D01*
X65187334Y-62000941D01*
X65986543Y-62546119D01*
X66704522Y-63043983D01*
X67330414Y-63486694D01*
X67853363Y-63866411D01*
X68262514Y-64175295D01*
X68547009Y-64405504D01*
X68658690Y-64507966D01*
X69318255Y-65285969D01*
X69828045Y-66118947D01*
X70192647Y-66992259D01*
X70416649Y-67891267D01*
X70504636Y-68801330D01*
X70461197Y-69707809D01*
X70290918Y-70596065D01*
X69998387Y-71451458D01*
X69588191Y-72259348D01*
X69064916Y-73005096D01*
X68433150Y-73674062D01*
X67697480Y-74251607D01*
X66862493Y-74723091D01*
X65932776Y-75073875D01*
X65300234Y-75226352D01*
X64299355Y-75335023D01*
X63303690Y-75281556D01*
X62337046Y-75068174D01*
X61885334Y-74907580D01*
X61664672Y-74810258D01*
X61325844Y-74650278D01*
X60900843Y-74443244D01*
X60421666Y-74204759D01*
X59920307Y-73950428D01*
X59874500Y-73926940D01*
X58329334Y-73133886D01*
X58327863Y-82093777D01*
X58327636Y-83571812D01*
X58327145Y-84890608D01*
X58325905Y-86060262D01*
X58323433Y-87090868D01*
X58319243Y-87992520D01*
X58312852Y-88775314D01*
X58303776Y-89449346D01*
X58291531Y-90024709D01*
X58275632Y-90511499D01*
X58255595Y-90919811D01*
X58230936Y-91259740D01*
X58201171Y-91541381D01*
X58165815Y-91774829D01*
X58124386Y-91970179D01*
X58076397Y-92137526D01*
X58021366Y-92286965D01*
X57958807Y-92428591D01*
X57888237Y-92572499D01*
X57818694Y-92709895D01*
X57376344Y-93402495D01*
X56807537Y-93989908D01*
X56127119Y-94460268D01*
X55349934Y-94801705D01*
X55112000Y-94873969D01*
X54765142Y-94940654D01*
X54293370Y-94990797D01*
X53733453Y-95024366D01*
X53122161Y-95041334D01*
X52496261Y-95041670D01*
X51892522Y-95025345D01*
X51347713Y-94992329D01*
X50898603Y-94942593D01*
X50586760Y-94877602D01*
X49751713Y-94548947D01*
X49023561Y-94105680D01*
X48575399Y-93731699D01*
X48042334Y-93233233D01*
X47482371Y-93753601D01*
X46795951Y-94297980D01*
X46066373Y-94689168D01*
X45533540Y-94875066D01*
X45272281Y-94923814D01*
X44879027Y-94966007D01*
X44391032Y-95000481D01*
X43845548Y-95026074D01*
X43279829Y-95041625D01*
X42731127Y-95045969D01*
X42236696Y-95037945D01*
X41833787Y-95016390D01*
X41650000Y-94996265D01*
X40752939Y-94797271D01*
X39972978Y-94477143D01*
X39306461Y-94033454D01*
X38749728Y-93463775D01*
X38304354Y-92775663D01*
X38220534Y-92616905D01*
X38145756Y-92470786D01*
X38079505Y-92327214D01*
X38021261Y-92176098D01*
X37970508Y-92007344D01*
X37926729Y-91810859D01*
X37889406Y-91576551D01*
X37858023Y-91294328D01*
X37832060Y-90954097D01*
X37811002Y-90545764D01*
X37794331Y-90059239D01*
X37781530Y-89484427D01*
X37772080Y-88811237D01*
X37765466Y-88029576D01*
X37761169Y-87129351D01*
X37758673Y-86100470D01*
X37757459Y-84932839D01*
X37757011Y-83616367D01*
X37756811Y-82140961D01*
X37756804Y-82093588D01*
X37755334Y-73133510D01*
X36252500Y-73908897D01*
X35753492Y-74163597D01*
X35269839Y-74405453D01*
X34835154Y-74618027D01*
X34483046Y-74784885D01*
X34247127Y-74889591D01*
X34246367Y-74889901D01*
X33327160Y-75178960D01*
X32366974Y-75319863D01*
X31619975Y-75321597D01*
X30917992Y-75249294D01*
X30296564Y-75117994D01*
X29685188Y-74908623D01*
X29077000Y-74633609D01*
X28187555Y-74108716D01*
X27422988Y-73469828D01*
X26782347Y-72715844D01*
X26264684Y-71845665D01*
X25902257Y-70959596D01*
X25657181Y-69970366D01*
X25585320Y-69093589D01*
X27447628Y-69093589D01*
X27544384Y-69917595D01*
X27788930Y-70698309D01*
X28170593Y-71418140D01*
X28678697Y-72059493D01*
X29302570Y-72604778D01*
X30031535Y-73036402D01*
X30542543Y-73242928D01*
X31089556Y-73374654D01*
X31708373Y-73438085D01*
X32335783Y-73432279D01*
X32908575Y-73356296D01*
X33183334Y-73282262D01*
X33374837Y-73204417D01*
X33693758Y-73059562D01*
X34117245Y-72858740D01*
X34622441Y-72612995D01*
X35186494Y-72333367D01*
X35786550Y-72030899D01*
X36027564Y-71908021D01*
X36749271Y-71540395D01*
X37337978Y-71246326D01*
X37810672Y-71020778D01*
X38184343Y-70858715D01*
X38475981Y-70755104D01*
X38702573Y-70704908D01*
X38881110Y-70703091D01*
X39028579Y-70744619D01*
X39161971Y-70824457D01*
X39298275Y-70937568D01*
X39299164Y-70938363D01*
X39575667Y-71185393D01*
X39618000Y-81246530D01*
X39660334Y-91307667D01*
X39860955Y-91751459D01*
X40133155Y-92195951D01*
X40505830Y-92589146D01*
X40927344Y-92879398D01*
X41042603Y-92933323D01*
X41443115Y-93053600D01*
X41977685Y-93133622D01*
X42656143Y-93174297D01*
X43488318Y-93176533D01*
X43639667Y-93173305D01*
X44159382Y-93156035D01*
X44550351Y-93129737D01*
X44853118Y-93089151D01*
X45108228Y-93029014D01*
X45330376Y-92953908D01*
X45864119Y-92670957D01*
X46337243Y-92264102D01*
X46709604Y-91773233D01*
X46886313Y-91407700D01*
X46931114Y-91282213D01*
X46967915Y-91156471D01*
X46997504Y-91013149D01*
X47020669Y-90834921D01*
X47038199Y-90604462D01*
X47050881Y-90304447D01*
X47059504Y-89917550D01*
X47064855Y-89426445D01*
X47067723Y-88813807D01*
X47068896Y-88062310D01*
X47069139Y-87388657D01*
X47071414Y-86480422D01*
X47077797Y-85670834D01*
X47088011Y-84972091D01*
X47101779Y-84396390D01*
X47118822Y-83955928D01*
X47138863Y-83662902D01*
X47156722Y-83543351D01*
X47329691Y-83194872D01*
X47613118Y-82971859D01*
X47993640Y-82884273D01*
X48042333Y-82883334D01*
X48433024Y-82954931D01*
X48728135Y-83163084D01*
X48914303Y-83497835D01*
X48927945Y-83543351D01*
X48950168Y-83710656D01*
X48969613Y-84035079D01*
X48986004Y-84504423D01*
X48999062Y-85106491D01*
X49008509Y-85829086D01*
X49014068Y-86660012D01*
X49015528Y-87388657D01*
X49016017Y-88259211D01*
X49017725Y-88977654D01*
X49021398Y-89561208D01*
X49027779Y-90027095D01*
X49037615Y-90392537D01*
X49051649Y-90674757D01*
X49070626Y-90890975D01*
X49095292Y-91058414D01*
X49126390Y-91194297D01*
X49164666Y-91315844D01*
X49188157Y-91380445D01*
X49494825Y-91972018D01*
X49926856Y-92453568D01*
X50475610Y-92818599D01*
X51132449Y-93060612D01*
X51523895Y-93137131D01*
X51952442Y-93177056D01*
X52473549Y-93193338D01*
X53041893Y-93187818D01*
X53612150Y-93162338D01*
X54138995Y-93118738D01*
X54577105Y-93058859D01*
X54824729Y-93003037D01*
X55310262Y-92778626D01*
X55750783Y-92424972D01*
X56101395Y-91982166D01*
X56222035Y-91755357D01*
X56424334Y-91307667D01*
X56509000Y-71185393D01*
X56785503Y-70938363D01*
X56921877Y-70825061D01*
X57055235Y-70745002D01*
X57202565Y-70703220D01*
X57380856Y-70704752D01*
X57607098Y-70754633D01*
X57898280Y-70857898D01*
X58271390Y-71019582D01*
X58743418Y-71244721D01*
X59331353Y-71538350D01*
X60052183Y-71905504D01*
X60057103Y-71908021D01*
X60665061Y-72216449D01*
X61246009Y-72506383D01*
X61777095Y-72766780D01*
X62235464Y-72986599D01*
X62598262Y-73154796D01*
X62842636Y-73260329D01*
X62901334Y-73282262D01*
X63415544Y-73398182D01*
X64019971Y-73443392D01*
X64651402Y-73418836D01*
X65246628Y-73325455D01*
X65542124Y-73242928D01*
X66339802Y-72887877D01*
X67040174Y-72402301D01*
X67630578Y-71802047D01*
X68098352Y-71102958D01*
X68430834Y-70320882D01*
X68615362Y-69471663D01*
X68625074Y-69384794D01*
X68623847Y-68605432D01*
X68472840Y-67818880D01*
X68185693Y-67062299D01*
X67776049Y-66372850D01*
X67329488Y-65855453D01*
X67173638Y-65725438D01*
X66890643Y-65511400D01*
X66494503Y-65222869D01*
X65999216Y-64869375D01*
X65418783Y-64460447D01*
X64767202Y-64005614D01*
X64058474Y-63514406D01*
X63306597Y-62996353D01*
X62525571Y-62460984D01*
X61729396Y-61917829D01*
X60932071Y-61376417D01*
X60147595Y-60846277D01*
X59389969Y-60336940D01*
X58673190Y-59857935D01*
X58011260Y-59418791D01*
X57418176Y-59029039D01*
X56907940Y-58698206D01*
X56494549Y-58435824D01*
X56192004Y-58251421D01*
X56020733Y-58157485D01*
X55347080Y-57885810D01*
X54658880Y-57703011D01*
X53908276Y-57599573D01*
X53047410Y-57565984D01*
X53045290Y-57565980D01*
X52436530Y-57557345D01*
X51971535Y-57530603D01*
X51625240Y-57480733D01*
X51372583Y-57402713D01*
X51188500Y-57291521D01*
X51069587Y-57170134D01*
X50926378Y-56881574D01*
X50879211Y-56538238D01*
X50932444Y-56213369D01*
X51004245Y-56071724D01*
X51142741Y-55936891D01*
X51377564Y-55765353D01*
X51618078Y-55617485D01*
X52572098Y-54990206D01*
X53405508Y-54256457D01*
X54111180Y-53428795D01*
X54681985Y-52519774D01*
X55110796Y-51541950D01*
X55390485Y-50507879D01*
X55513922Y-49430117D01*
X55509761Y-48762667D01*
X55373742Y-47620631D01*
X55086194Y-46553895D01*
X54645897Y-45559776D01*
X54051630Y-44635594D01*
X53302172Y-43778664D01*
X53193228Y-43672012D01*
X52321047Y-42946389D01*
X51365692Y-42368222D01*
X50326437Y-41937114D01*
X49721181Y-41763123D01*
X49253475Y-41682411D01*
X48674988Y-41634008D01*
X48041161Y-41617913D01*
X47407435Y-41634126D01*
X46829251Y-41682647D01*
X46363486Y-41763123D01*
X45297054Y-42110376D01*
X44299149Y-42604970D01*
X43385388Y-43234479D01*
X42571390Y-43986479D01*
X41872770Y-44848543D01*
X41322088Y-45774223D01*
X40929166Y-46741202D01*
X40677993Y-47773357D01*
X40570065Y-48840987D01*
X40606874Y-49914390D01*
X40789914Y-50963863D01*
X41023317Y-51715427D01*
X41444820Y-52612376D01*
X42013092Y-53470966D01*
X42706103Y-54266230D01*
X43501817Y-54973199D01*
X44378204Y-55566905D01*
X44466589Y-55617485D01*
X44740922Y-55788148D01*
X44966373Y-55957214D01*
X45080422Y-56071724D01*
X45189537Y-56356298D01*
X45195905Y-56698788D01*
X45103884Y-57025952D01*
X45015080Y-57170134D01*
X44868946Y-57312747D01*
X44675089Y-57418011D01*
X44408443Y-57490948D01*
X44043946Y-57536579D01*
X43556536Y-57559926D01*
X43039377Y-57565980D01*
X42211688Y-57595976D01*
X41495600Y-57689730D01*
X40841949Y-57857812D01*
X40201572Y-58110792D01*
X39956667Y-58228776D01*
X39748251Y-58346512D01*
X39418217Y-58549655D01*
X38980647Y-58828614D01*
X38449620Y-59173804D01*
X37839219Y-59575634D01*
X37163523Y-60024518D01*
X36436614Y-60510866D01*
X35672572Y-61025091D01*
X34885479Y-61557604D01*
X34089415Y-62098817D01*
X33298461Y-62639143D01*
X32526698Y-63168992D01*
X31788207Y-63678776D01*
X31097069Y-64158908D01*
X30467364Y-64599799D01*
X29913174Y-64991860D01*
X29448579Y-65325504D01*
X29087660Y-65591143D01*
X28844498Y-65779188D01*
X28755179Y-65856308D01*
X28268047Y-66432594D01*
X27873426Y-67113371D01*
X27598256Y-67847010D01*
X27509337Y-68243883D01*
X27447628Y-69093589D01*
X25585320Y-69093589D01*
X25575412Y-68972715D01*
X25652880Y-67983878D01*
X25885514Y-67021088D01*
X26269243Y-66101580D01*
X26799996Y-65242586D01*
X27425977Y-64509088D01*
X27607408Y-64351365D01*
X27928938Y-64102936D01*
X28388576Y-63765207D01*
X28984331Y-63339584D01*
X29714213Y-62827471D01*
X30576230Y-62230274D01*
X31568392Y-61549397D01*
X32688708Y-60786244D01*
X33014000Y-60565528D01*
X33863045Y-59990555D01*
X34682020Y-59437235D01*
X35458471Y-58913904D01*
X36179945Y-58428894D01*
X36833988Y-57990542D01*
X37408149Y-57607181D01*
X37889972Y-57287145D01*
X38267005Y-57038770D01*
X38526794Y-56870389D01*
X38644334Y-56797427D01*
X39295405Y-56452262D01*
X39946962Y-56182482D01*
X40679679Y-55955108D01*
X40753532Y-55935287D01*
X41468090Y-55745599D01*
X40917679Y-55111633D01*
X40168943Y-54126798D01*
X39569176Y-53065899D01*
X39112733Y-51918277D01*
X38968052Y-51428946D01*
X38883383Y-51098868D01*
X38822643Y-50811170D01*
X38781932Y-50525911D01*
X38757351Y-50203148D01*
X38745000Y-49802942D01*
X38740981Y-49285349D01*
X38740817Y-49101334D01*
X38743197Y-48538693D01*
X38752863Y-48105760D01*
X38773609Y-47762943D01*
X38809225Y-47470654D01*
X38863504Y-47189301D01*
X38940237Y-46879294D01*
X38961137Y-46800979D01*
X39377264Y-45561510D01*
X39928878Y-44420821D01*
X40609722Y-43385047D01*
X41413542Y-42460322D01*
X42334084Y-41652781D01*
X43365090Y-40968559D01*
X44500308Y-40413789D01*
X45733481Y-39994606D01*
X45962253Y-39934805D01*
X46553398Y-39826729D01*
X47254909Y-39761543D01*
X48013356Y-39739176D01*
X48775313Y-39759560D01*
G36*
X28540448Y-42554120D02*
X28616631Y-42573584D01*
X28699551Y-42610085D01*
X28804002Y-42681175D01*
X28939211Y-42796857D01*
X29114405Y-42967131D01*
X29338809Y-43202000D01*
X29621651Y-43511463D01*
X29972156Y-43905523D01*
X30399550Y-44394180D01*
X30913061Y-44987437D01*
X31521915Y-45695294D01*
X31858219Y-46087436D01*
X32419547Y-46744682D01*
X32948720Y-47368624D01*
X33435167Y-47946499D01*
X33868316Y-48465541D01*
X34237594Y-48912985D01*
X34532429Y-49276067D01*
X34742250Y-49542022D01*
X34856485Y-49698084D01*
X34873575Y-49728202D01*
X34927669Y-50088657D01*
X34821316Y-50432852D01*
X34563272Y-50737918D01*
X34455661Y-50819719D01*
X34377729Y-50862447D01*
X34269223Y-50895930D01*
X34110383Y-50921263D01*
X33881451Y-50939541D01*
X33562666Y-50951858D01*
X33134269Y-50959310D01*
X32576501Y-50962993D01*
X31869603Y-50964000D01*
X31852161Y-50964000D01*
X31235165Y-50965538D01*
X30677114Y-50969881D01*
X30199324Y-50976625D01*
X29823111Y-50985367D01*
X29569791Y-50995702D01*
X29460680Y-51007227D01*
X29458000Y-51009379D01*
X29508643Y-51085758D01*
X29650445Y-51274367D01*
X29868217Y-51555666D01*
X30146770Y-51910113D01*
X30470917Y-52318168D01*
X30626117Y-52512213D01*
X31055730Y-53048521D01*
X31391313Y-53470275D01*
X31644476Y-53795263D01*
X31826826Y-54041270D01*
X31949972Y-54226086D01*
X32025524Y-54367496D01*
X32065089Y-54483288D01*
X32080277Y-54591251D01*
X32082697Y-54709170D01*
X32082667Y-54743993D01*
X32008478Y-55114090D01*
X31804384Y-55399859D01*
X31498090Y-55573731D01*
X31208321Y-55613983D01*
X30958117Y-55599397D01*
X30771821Y-55571354D01*
X30741650Y-55562088D01*
X30659940Y-55485282D01*
X30488623Y-55292364D01*
X30241830Y-55001058D01*
X29933691Y-54629091D01*
X29578337Y-54194186D01*
X29189897Y-53714071D01*
X28782502Y-53206468D01*
X28370282Y-52689104D01*
X27967369Y-52179703D01*
X27587891Y-51695991D01*
X27245980Y-51255693D01*
X26955765Y-50876534D01*
X26731377Y-50576238D01*
X26586947Y-50372532D01*
X26537584Y-50288505D01*
X26511783Y-49959896D01*
X26608514Y-49618449D01*
X26798972Y-49347708D01*
X26864651Y-49288872D01*
X26935386Y-49242256D01*
X27030910Y-49206044D01*
X27170954Y-49178421D01*
X27375252Y-49157571D01*
X27663535Y-49141679D01*
X28055536Y-49128930D01*
X28570987Y-49117508D01*
X29229620Y-49105599D01*
X29477035Y-49101334D01*
X31938052Y-49059000D01*
X29724385Y-46476667D01*
X29122680Y-45771616D01*
X28626717Y-45183154D01*
X28229075Y-44701899D01*
X27922336Y-44318471D01*
X27699079Y-44023487D01*
X27551887Y-43807565D01*
X27473340Y-43661325D01*
X27457169Y-43609748D01*
X27463279Y-43240465D01*
X27605889Y-42922354D01*
X27853773Y-42683322D01*
X28175701Y-42551275D01*
X28540448Y-42554120D01*
X28540448Y-42554120D01*
G37*
X28540448Y-42554120D02*
X28616631Y-42573584D01*
X28699551Y-42610085D01*
X28804002Y-42681175D01*
X28939211Y-42796857D01*
X29114405Y-42967131D01*
X29338809Y-43202000D01*
X29621651Y-43511463D01*
X29972156Y-43905523D01*
X30399550Y-44394180D01*
X30913061Y-44987437D01*
X31521915Y-45695294D01*
X31858219Y-46087436D01*
X32419547Y-46744682D01*
X32948720Y-47368624D01*
X33435167Y-47946499D01*
X33868316Y-48465541D01*
X34237594Y-48912985D01*
X34532429Y-49276067D01*
X34742250Y-49542022D01*
X34856485Y-49698084D01*
X34873575Y-49728202D01*
X34927669Y-50088657D01*
X34821316Y-50432852D01*
X34563272Y-50737918D01*
X34455661Y-50819719D01*
X34377729Y-50862447D01*
X34269223Y-50895930D01*
X34110383Y-50921263D01*
X33881451Y-50939541D01*
X33562666Y-50951858D01*
X33134269Y-50959310D01*
X32576501Y-50962993D01*
X31869603Y-50964000D01*
X31852161Y-50964000D01*
X31235165Y-50965538D01*
X30677114Y-50969881D01*
X30199324Y-50976625D01*
X29823111Y-50985367D01*
X29569791Y-50995702D01*
X29460680Y-51007227D01*
X29458000Y-51009379D01*
X29508643Y-51085758D01*
X29650445Y-51274367D01*
X29868217Y-51555666D01*
X30146770Y-51910113D01*
X30470917Y-52318168D01*
X30626117Y-52512213D01*
X31055730Y-53048521D01*
X31391313Y-53470275D01*
X31644476Y-53795263D01*
X31826826Y-54041270D01*
X31949972Y-54226086D01*
X32025524Y-54367496D01*
X32065089Y-54483288D01*
X32080277Y-54591251D01*
X32082697Y-54709170D01*
X32082667Y-54743993D01*
X32008478Y-55114090D01*
X31804384Y-55399859D01*
X31498090Y-55573731D01*
X31208321Y-55613983D01*
X30958117Y-55599397D01*
X30771821Y-55571354D01*
X30741650Y-55562088D01*
X30659940Y-55485282D01*
X30488623Y-55292364D01*
X30241830Y-55001058D01*
X29933691Y-54629091D01*
X29578337Y-54194186D01*
X29189897Y-53714071D01*
X28782502Y-53206468D01*
X28370282Y-52689104D01*
X27967369Y-52179703D01*
X27587891Y-51695991D01*
X27245980Y-51255693D01*
X26955765Y-50876534D01*
X26731377Y-50576238D01*
X26586947Y-50372532D01*
X26537584Y-50288505D01*
X26511783Y-49959896D01*
X26608514Y-49618449D01*
X26798972Y-49347708D01*
X26864651Y-49288872D01*
X26935386Y-49242256D01*
X27030910Y-49206044D01*
X27170954Y-49178421D01*
X27375252Y-49157571D01*
X27663535Y-49141679D01*
X28055536Y-49128930D01*
X28570987Y-49117508D01*
X29229620Y-49105599D01*
X29477035Y-49101334D01*
X31938052Y-49059000D01*
X29724385Y-46476667D01*
X29122680Y-45771616D01*
X28626717Y-45183154D01*
X28229075Y-44701899D01*
X27922336Y-44318471D01*
X27699079Y-44023487D01*
X27551887Y-43807565D01*
X27473340Y-43661325D01*
X27457169Y-43609748D01*
X27463279Y-43240465D01*
X27605889Y-42922354D01*
X27853773Y-42683322D01*
X28175701Y-42551275D01*
X28540448Y-42554120D01*
G36*
X68170753Y-42647085D02*
X68436129Y-42866732D01*
X68602549Y-43171101D01*
X68638783Y-43532287D01*
X68627498Y-43609748D01*
X68581682Y-43723493D01*
X68471075Y-43902047D01*
X68288257Y-44154789D01*
X68025811Y-44491102D01*
X67676317Y-44920368D01*
X67232354Y-45451968D01*
X66686506Y-46095283D01*
X66360282Y-46476667D01*
X64146615Y-49059000D01*
X66607632Y-49101334D01*
X67316895Y-49113790D01*
X67876581Y-49125171D01*
X68306423Y-49137291D01*
X68626153Y-49151966D01*
X68855504Y-49171010D01*
X69014207Y-49196240D01*
X69121996Y-49229470D01*
X69198603Y-49272516D01*
X69263759Y-49327194D01*
X69285695Y-49347708D01*
X69480834Y-49628585D01*
X69574047Y-49970793D01*
X69547083Y-50288505D01*
X69479735Y-50401754D01*
X69320097Y-50625912D01*
X69082381Y-50943249D01*
X68780798Y-51336036D01*
X68429560Y-51786540D01*
X68042876Y-52277033D01*
X67634958Y-52789784D01*
X67220018Y-53307062D01*
X66812265Y-53811137D01*
X66425911Y-54284279D01*
X66075168Y-54708756D01*
X65774245Y-55066840D01*
X65537354Y-55340799D01*
X65378707Y-55512903D01*
X65317673Y-55565337D01*
X65139327Y-55602081D01*
X64889196Y-55620251D01*
X64848255Y-55620667D01*
X64576777Y-55581619D01*
X64346980Y-55439479D01*
X64262513Y-55360154D01*
X64081191Y-55135768D01*
X64009269Y-54898735D01*
X64002000Y-54743993D01*
X64002991Y-54620513D01*
X64013704Y-54511659D01*
X64045748Y-54399644D01*
X64110730Y-54266679D01*
X64220261Y-54094978D01*
X64385947Y-53866754D01*
X64619400Y-53564219D01*
X64932226Y-53169585D01*
X65336035Y-52665066D01*
X65458550Y-52512213D01*
X65798126Y-52086558D01*
X66098881Y-51705799D01*
X66345624Y-51389478D01*
X66523168Y-51157135D01*
X66616324Y-51028313D01*
X66626667Y-51009379D01*
X66545554Y-50997685D01*
X66316424Y-50987107D01*
X65960595Y-50978051D01*
X65499382Y-50970920D01*
X64954101Y-50966119D01*
X64346068Y-50964051D01*
X64232506Y-50964000D01*
X63522092Y-50963040D01*
X62961244Y-50959428D01*
X62530204Y-50952071D01*
X62209212Y-50939873D01*
X61978509Y-50921739D01*
X61818335Y-50896574D01*
X61708931Y-50863282D01*
X61630537Y-50820770D01*
X61629006Y-50819719D01*
X61326416Y-50531148D01*
X61172845Y-50196468D01*
X61177050Y-49838550D01*
X61211092Y-49728202D01*
X61281031Y-49623251D01*
X61451098Y-49402926D01*
X61710719Y-49079991D01*
X62049323Y-48667213D01*
X62456337Y-48177355D01*
X62921190Y-47623182D01*
X63433310Y-47017459D01*
X63982124Y-46372952D01*
X64226448Y-46087436D01*
X64885441Y-45319710D01*
X65444566Y-44671490D01*
X65913049Y-44132775D01*
X66300116Y-43693563D01*
X66614995Y-43343854D01*
X66866910Y-43073645D01*
X67065090Y-42872936D01*
X67218759Y-42731726D01*
X67337145Y-42640013D01*
X67429473Y-42587795D01*
X67468036Y-42573584D01*
X67837646Y-42540067D01*
X68170753Y-42647085D01*
X68170753Y-42647085D01*
G37*
X68170753Y-42647085D02*
X68436129Y-42866732D01*
X68602549Y-43171101D01*
X68638783Y-43532287D01*
X68627498Y-43609748D01*
X68581682Y-43723493D01*
X68471075Y-43902047D01*
X68288257Y-44154789D01*
X68025811Y-44491102D01*
X67676317Y-44920368D01*
X67232354Y-45451968D01*
X66686506Y-46095283D01*
X66360282Y-46476667D01*
X64146615Y-49059000D01*
X66607632Y-49101334D01*
X67316895Y-49113790D01*
X67876581Y-49125171D01*
X68306423Y-49137291D01*
X68626153Y-49151966D01*
X68855504Y-49171010D01*
X69014207Y-49196240D01*
X69121996Y-49229470D01*
X69198603Y-49272516D01*
X69263759Y-49327194D01*
X69285695Y-49347708D01*
X69480834Y-49628585D01*
X69574047Y-49970793D01*
X69547083Y-50288505D01*
X69479735Y-50401754D01*
X69320097Y-50625912D01*
X69082381Y-50943249D01*
X68780798Y-51336036D01*
X68429560Y-51786540D01*
X68042876Y-52277033D01*
X67634958Y-52789784D01*
X67220018Y-53307062D01*
X66812265Y-53811137D01*
X66425911Y-54284279D01*
X66075168Y-54708756D01*
X65774245Y-55066840D01*
X65537354Y-55340799D01*
X65378707Y-55512903D01*
X65317673Y-55565337D01*
X65139327Y-55602081D01*
X64889196Y-55620251D01*
X64848255Y-55620667D01*
X64576777Y-55581619D01*
X64346980Y-55439479D01*
X64262513Y-55360154D01*
X64081191Y-55135768D01*
X64009269Y-54898735D01*
X64002000Y-54743993D01*
X64002991Y-54620513D01*
X64013704Y-54511659D01*
X64045748Y-54399644D01*
X64110730Y-54266679D01*
X64220261Y-54094978D01*
X64385947Y-53866754D01*
X64619400Y-53564219D01*
X64932226Y-53169585D01*
X65336035Y-52665066D01*
X65458550Y-52512213D01*
X65798126Y-52086558D01*
X66098881Y-51705799D01*
X66345624Y-51389478D01*
X66523168Y-51157135D01*
X66616324Y-51028313D01*
X66626667Y-51009379D01*
X66545554Y-50997685D01*
X66316424Y-50987107D01*
X65960595Y-50978051D01*
X65499382Y-50970920D01*
X64954101Y-50966119D01*
X64346068Y-50964051D01*
X64232506Y-50964000D01*
X63522092Y-50963040D01*
X62961244Y-50959428D01*
X62530204Y-50952071D01*
X62209212Y-50939873D01*
X61978509Y-50921739D01*
X61818335Y-50896574D01*
X61708931Y-50863282D01*
X61630537Y-50820770D01*
X61629006Y-50819719D01*
X61326416Y-50531148D01*
X61172845Y-50196468D01*
X61177050Y-49838550D01*
X61211092Y-49728202D01*
X61281031Y-49623251D01*
X61451098Y-49402926D01*
X61710719Y-49079991D01*
X62049323Y-48667213D01*
X62456337Y-48177355D01*
X62921190Y-47623182D01*
X63433310Y-47017459D01*
X63982124Y-46372952D01*
X64226448Y-46087436D01*
X64885441Y-45319710D01*
X65444566Y-44671490D01*
X65913049Y-44132775D01*
X66300116Y-43693563D01*
X66614995Y-43343854D01*
X66866910Y-43073645D01*
X67065090Y-42872936D01*
X67218759Y-42731726D01*
X67337145Y-42640013D01*
X67429473Y-42587795D01*
X67468036Y-42573584D01*
X67837646Y-42540067D01*
X68170753Y-42647085D01*
G36*
X41184154Y-109401775D02*
X41211587Y-109625533D01*
X41249684Y-109981782D01*
X41296682Y-110452399D01*
X41350816Y-111019260D01*
X41410323Y-111664241D01*
X41473438Y-112369220D01*
X41538399Y-113116073D01*
X41543259Y-113172834D01*
X41588517Y-113702000D01*
X40625592Y-113702000D01*
X40680311Y-113172834D01*
X40717660Y-112830082D01*
X40767028Y-112403676D01*
X40824868Y-111921518D01*
X40887632Y-111411505D01*
X40951772Y-110901538D01*
X41013740Y-110419517D01*
X41069989Y-109993341D01*
X41116971Y-109650911D01*
X41151137Y-109420125D01*
X41168941Y-109328884D01*
X41169148Y-109328630D01*
X41184154Y-109401775D01*
X41184154Y-109401775D01*
G37*
X41184154Y-109401775D02*
X41211587Y-109625533D01*
X41249684Y-109981782D01*
X41296682Y-110452399D01*
X41350816Y-111019260D01*
X41410323Y-111664241D01*
X41473438Y-112369220D01*
X41538399Y-113116073D01*
X41543259Y-113172834D01*
X41588517Y-113702000D01*
X40625592Y-113702000D01*
X40680311Y-113172834D01*
X40717660Y-112830082D01*
X40767028Y-112403676D01*
X40824868Y-111921518D01*
X40887632Y-111411505D01*
X40951772Y-110901538D01*
X41013740Y-110419517D01*
X41069989Y-109993341D01*
X41116971Y-109650911D01*
X41151137Y-109420125D01*
X41168941Y-109328884D01*
X41169148Y-109328630D01*
X41184154Y-109401775D01*
G36*
X61483167Y-108581444D02*
X61703236Y-108641320D01*
X61852483Y-108732329D01*
X61944428Y-108884711D01*
X61992590Y-109128705D01*
X62010489Y-109494550D01*
X62012334Y-109765000D01*
X62004964Y-110217086D01*
X61974049Y-110529902D01*
X61906375Y-110733196D01*
X61788732Y-110856715D01*
X61607907Y-110930207D01*
X61482033Y-110959027D01*
X61208000Y-111013834D01*
X61208000Y-108523879D01*
X61483167Y-108581444D01*
X61483167Y-108581444D01*
G37*
X61483167Y-108581444D02*
X61703236Y-108641320D01*
X61852483Y-108732329D01*
X61944428Y-108884711D01*
X61992590Y-109128705D01*
X62010489Y-109494550D01*
X62012334Y-109765000D01*
X62004964Y-110217086D01*
X61974049Y-110529902D01*
X61906375Y-110733196D01*
X61788732Y-110856715D01*
X61607907Y-110930207D01*
X61482033Y-110959027D01*
X61208000Y-111013834D01*
X61208000Y-108523879D01*
X61483167Y-108581444D01*
G36*
X29000493Y-103702341D02*
X29030782Y-103893805D01*
X29034667Y-104007667D01*
X29017850Y-104234886D01*
X28975303Y-104371184D01*
X28950000Y-104388667D01*
X28899507Y-104312993D01*
X28869218Y-104121529D01*
X28865334Y-104007667D01*
X28882150Y-103780447D01*
X28924697Y-103644149D01*
X28950000Y-103626667D01*
X29000493Y-103702341D01*
X29000493Y-103702341D01*
G37*
X29000493Y-103702341D02*
X29030782Y-103893805D01*
X29034667Y-104007667D01*
X29017850Y-104234886D01*
X28975303Y-104371184D01*
X28950000Y-104388667D01*
X28899507Y-104312993D01*
X28869218Y-104121529D01*
X28865334Y-104007667D01*
X28882150Y-103780447D01*
X28924697Y-103644149D01*
X28950000Y-103626667D01*
X29000493Y-103702341D01*
G36*
X30700946Y-104466770D02*
X30727375Y-104639257D01*
X30728000Y-104680003D01*
X30707063Y-104877847D01*
X30655472Y-104978223D01*
X30643334Y-104981334D01*
X30583432Y-104907877D01*
X30558667Y-104732330D01*
X30584766Y-104536802D01*
X30643334Y-104431000D01*
X30700946Y-104466770D01*
X30700946Y-104466770D01*
G37*
X30700946Y-104466770D02*
X30727375Y-104639257D01*
X30728000Y-104680003D01*
X30707063Y-104877847D01*
X30655472Y-104978223D01*
X30643334Y-104981334D01*
X30583432Y-104907877D01*
X30558667Y-104732330D01*
X30584766Y-104536802D01*
X30643334Y-104431000D01*
X30700946Y-104466770D01*
G36*
X48650279Y-104466770D02*
X48676709Y-104639257D01*
X48677334Y-104680003D01*
X48656396Y-104877847D01*
X48604805Y-104978223D01*
X48592667Y-104981334D01*
X48532765Y-104907877D01*
X48508000Y-104732330D01*
X48534099Y-104536802D01*
X48592667Y-104431000D01*
X48650279Y-104466770D01*
X48650279Y-104466770D01*
G37*
X48650279Y-104466770D02*
X48676709Y-104639257D01*
X48677334Y-104680003D01*
X48656396Y-104877847D01*
X48604805Y-104978223D01*
X48592667Y-104981334D01*
X48532765Y-104907877D01*
X48508000Y-104732330D01*
X48534099Y-104536802D01*
X48592667Y-104431000D01*
X48650279Y-104466770D01*
G36*
X52042979Y-103614456D02*
X52064000Y-103753667D01*
X52035018Y-103912782D01*
X51979334Y-103965334D01*
X51915688Y-103892877D01*
X51894667Y-103753667D01*
X51923649Y-103594552D01*
X51979334Y-103542000D01*
X52042979Y-103614456D01*
X52042979Y-103614456D01*
G37*
X52042979Y-103614456D02*
X52064000Y-103753667D01*
X52035018Y-103912782D01*
X51979334Y-103965334D01*
X51915688Y-103892877D01*
X51894667Y-103753667D01*
X51923649Y-103594552D01*
X51979334Y-103542000D01*
X52042979Y-103614456D01*
G36*
X56102375Y-104463124D02*
X56127350Y-104646199D01*
X56128000Y-104685000D01*
X56100460Y-104904173D01*
X56012567Y-104980798D01*
X56001000Y-104981334D01*
X55896673Y-104911256D01*
X55874000Y-104818925D01*
X55905046Y-104589815D01*
X55981994Y-104429120D01*
X56052392Y-104388667D01*
X56102375Y-104463124D01*
X56102375Y-104463124D01*
G37*
X56102375Y-104463124D02*
X56127350Y-104646199D01*
X56128000Y-104685000D01*
X56100460Y-104904173D01*
X56012567Y-104980798D01*
X56001000Y-104981334D01*
X55896673Y-104911256D01*
X55874000Y-104818925D01*
X55905046Y-104589815D01*
X55981994Y-104429120D01*
X56052392Y-104388667D01*
X56102375Y-104463124D01*
G36*
X60001646Y-103614456D02*
X60022667Y-103753667D01*
X59993684Y-103912782D01*
X59938000Y-103965334D01*
X59874354Y-103892877D01*
X59853334Y-103753667D01*
X59882316Y-103594552D01*
X59938000Y-103542000D01*
X60001646Y-103614456D01*
X60001646Y-103614456D01*
G37*
X60001646Y-103614456D02*
X60022667Y-103753667D01*
X59993684Y-103912782D01*
X59938000Y-103965334D01*
X59874354Y-103892877D01*
X59853334Y-103753667D01*
X59882316Y-103594552D01*
X59938000Y-103542000D01*
X60001646Y-103614456D01*
G36*
X64100103Y-103060012D02*
X64137236Y-103155622D01*
X64159171Y-103347192D01*
X64169347Y-103661084D01*
X64171334Y-104007667D01*
X64167941Y-104435231D01*
X64155470Y-104719918D01*
X64130482Y-104888089D01*
X64089540Y-104966106D01*
X64044334Y-104981334D01*
X63988564Y-104955322D01*
X63951431Y-104859712D01*
X63929496Y-104668142D01*
X63919320Y-104354250D01*
X63917334Y-104007667D01*
X63920726Y-103580102D01*
X63933197Y-103295416D01*
X63958185Y-103127245D01*
X63999127Y-103049227D01*
X64044334Y-103034000D01*
X64100103Y-103060012D01*
X64100103Y-103060012D01*
G37*
X64100103Y-103060012D02*
X64137236Y-103155622D01*
X64159171Y-103347192D01*
X64169347Y-103661084D01*
X64171334Y-104007667D01*
X64167941Y-104435231D01*
X64155470Y-104719918D01*
X64130482Y-104888089D01*
X64089540Y-104966106D01*
X64044334Y-104981334D01*
X63988564Y-104955322D01*
X63951431Y-104859712D01*
X63929496Y-104668142D01*
X63919320Y-104354250D01*
X63917334Y-104007667D01*
X63920726Y-103580102D01*
X63933197Y-103295416D01*
X63958185Y-103127245D01*
X63999127Y-103049227D01*
X64044334Y-103034000D01*
X64100103Y-103060012D01*
G36*
X67260674Y-104017880D02*
X67294453Y-104178493D01*
X67304000Y-104466278D01*
X67286192Y-104762314D01*
X67239137Y-104943395D01*
X67172396Y-104992216D01*
X67095524Y-104891470D01*
X67084335Y-104864020D01*
X67054520Y-104680398D01*
X67061963Y-104438204D01*
X67098497Y-104200428D01*
X67155956Y-104030062D01*
X67198167Y-103986025D01*
X67260674Y-104017880D01*
X67260674Y-104017880D01*
G37*
X67260674Y-104017880D02*
X67294453Y-104178493D01*
X67304000Y-104466278D01*
X67286192Y-104762314D01*
X67239137Y-104943395D01*
X67172396Y-104992216D01*
X67095524Y-104891470D01*
X67084335Y-104864020D01*
X67054520Y-104680398D01*
X67061963Y-104438204D01*
X67098497Y-104200428D01*
X67155956Y-104030062D01*
X67198167Y-103986025D01*
X67260674Y-104017880D01*
G36*
X48198337Y-56605441D02*
X48361448Y-56665374D01*
X48559518Y-56759702D01*
X48710040Y-56871062D01*
X48820043Y-57023031D01*
X48896556Y-57239186D01*
X48946605Y-57543105D01*
X48977219Y-57958364D01*
X48995425Y-58508541D01*
X49001558Y-58812812D01*
X49029449Y-60362000D01*
X52109005Y-60362000D01*
X56976003Y-63582324D01*
X57799328Y-64128495D01*
X58585549Y-64652770D01*
X59322503Y-65146866D01*
X59998030Y-65602503D01*
X60599966Y-66011399D01*
X61116151Y-66365273D01*
X61534422Y-66655842D01*
X61842618Y-66874827D01*
X62028576Y-67013945D01*
X62075834Y-67054993D01*
X62277867Y-67380205D01*
X62317118Y-67725562D01*
X62194604Y-68068275D01*
X62020800Y-68286800D01*
X61776614Y-68487466D01*
X61543279Y-68568545D01*
X61440377Y-68574667D01*
X61373701Y-68571389D01*
X61298992Y-68557642D01*
X61206885Y-68527550D01*
X61088018Y-68475243D01*
X60933027Y-68394845D01*
X60732550Y-68280484D01*
X60477223Y-68126287D01*
X60157683Y-67926380D01*
X59764568Y-67674891D01*
X59288513Y-67365946D01*
X58720157Y-66993672D01*
X58050136Y-66552196D01*
X57269086Y-66035644D01*
X56367646Y-65438144D01*
X55336451Y-64753822D01*
X55118606Y-64609201D01*
X51526878Y-62224667D01*
X49016000Y-62224667D01*
X49016000Y-65950000D01*
X50923720Y-65950000D01*
X51627581Y-65952776D01*
X52182612Y-65963882D01*
X52609261Y-65987484D01*
X52927981Y-66027747D01*
X53159222Y-66088839D01*
X53323435Y-66174925D01*
X53441070Y-66290171D01*
X53532578Y-66438743D01*
X53555994Y-66486234D01*
X53653738Y-66866558D01*
X53592389Y-67231376D01*
X53379040Y-67546675D01*
X53324625Y-67595896D01*
X53067008Y-67812667D01*
X49016000Y-67812667D01*
X49016000Y-70691334D01*
X50575837Y-70691334D01*
X51125385Y-70691936D01*
X51532178Y-70695858D01*
X51822796Y-70706269D01*
X52023818Y-70726340D01*
X52161821Y-70759240D01*
X52263386Y-70808139D01*
X52355092Y-70876208D01*
X52393292Y-70908104D01*
X52633011Y-71208080D01*
X52716325Y-71559583D01*
X52638234Y-71938303D01*
X52615669Y-71988893D01*
X52509821Y-72175645D01*
X52377407Y-72316741D01*
X52194834Y-72418371D01*
X51938507Y-72486721D01*
X51584833Y-72527983D01*
X51110216Y-72548344D01*
X50491063Y-72553993D01*
X50461247Y-72554000D01*
X49011085Y-72554000D01*
X49034709Y-73658996D01*
X49058334Y-74763991D01*
X51132667Y-75826791D01*
X51688810Y-76115175D01*
X52204270Y-76388975D01*
X52656975Y-76635952D01*
X53024854Y-76843869D01*
X53285836Y-77000487D01*
X53417847Y-77093567D01*
X53418667Y-77094352D01*
X53630334Y-77299115D01*
X53653282Y-82948054D01*
X53657335Y-84168915D01*
X53658830Y-85228410D01*
X53657665Y-86134489D01*
X53653740Y-86895099D01*
X53646953Y-87518192D01*
X53637203Y-88011715D01*
X53624389Y-88383619D01*
X53608409Y-88641853D01*
X53589162Y-88794366D01*
X53578321Y-88833367D01*
X53360987Y-89153923D01*
X53040968Y-89349587D01*
X52721449Y-89402667D01*
X52468236Y-89372823D01*
X52257651Y-89259309D01*
X52097867Y-89114800D01*
X51810000Y-88826934D01*
X51810000Y-78267237D01*
X49926167Y-77326440D01*
X48042334Y-76385644D01*
X46158500Y-77326448D01*
X44274667Y-78267252D01*
X44274667Y-88826934D01*
X43986800Y-89114800D01*
X43760463Y-89306333D01*
X43544845Y-89389569D01*
X43363218Y-89402667D01*
X43028428Y-89347110D01*
X42815879Y-89236203D01*
X42626921Y-89035044D01*
X42506346Y-88833367D01*
X42485421Y-88730517D01*
X42467817Y-88525884D01*
X42453434Y-88211515D01*
X42442169Y-87779456D01*
X42433922Y-87221756D01*
X42428591Y-86530460D01*
X42426074Y-85697617D01*
X42426270Y-84715274D01*
X42429078Y-83575477D01*
X42431385Y-82955015D01*
X42436068Y-81839152D01*
X42440635Y-80880259D01*
X42445484Y-80065974D01*
X42451015Y-79383936D01*
X42457625Y-78821783D01*
X42465715Y-78367153D01*
X42475684Y-78007683D01*
X42487930Y-77731013D01*
X42502852Y-77524779D01*
X42520849Y-77376620D01*
X42542321Y-77274174D01*
X42567666Y-77205079D01*
X42597284Y-77156973D01*
X42619374Y-77130707D01*
X42735873Y-77045460D01*
X42982542Y-76895646D01*
X43338368Y-76692968D01*
X43782338Y-76449131D01*
X44293439Y-76175838D01*
X44850658Y-75884793D01*
X44926541Y-75845670D01*
X47068667Y-74742963D01*
X47068667Y-72554000D01*
X45620962Y-72554000D01*
X44995546Y-72548818D01*
X44515648Y-72529139D01*
X44157656Y-72488763D01*
X43897959Y-72421488D01*
X43712944Y-72321115D01*
X43579000Y-72181442D01*
X43472515Y-71996270D01*
X43468998Y-71988893D01*
X43369288Y-71608401D01*
X43431644Y-71251926D01*
X43651062Y-70943779D01*
X43691375Y-70908104D01*
X43786356Y-70831833D01*
X43880992Y-70775949D01*
X44001863Y-70737281D01*
X44175546Y-70712660D01*
X44428622Y-70698915D01*
X44787668Y-70692877D01*
X45279265Y-70691374D01*
X45508830Y-70691334D01*
X47068667Y-70691334D01*
X47068667Y-67812667D01*
X45521172Y-67812667D01*
X44923741Y-67810186D01*
X44471020Y-67798674D01*
X44138412Y-67772028D01*
X43901320Y-67724147D01*
X43735145Y-67648927D01*
X43615290Y-67540265D01*
X43517159Y-67392059D01*
X43469850Y-67303732D01*
X43364417Y-67039018D01*
X43363789Y-66802435D01*
X43468646Y-66515970D01*
X43476876Y-66498505D01*
X43581550Y-66316748D01*
X43715698Y-66179445D01*
X43902744Y-66080602D01*
X44166109Y-66014230D01*
X44529217Y-65974334D01*
X45015490Y-65954924D01*
X45620962Y-65950000D01*
X47068667Y-65950000D01*
X47068667Y-62224667D01*
X45819834Y-62224884D01*
X44571000Y-62225101D01*
X40295334Y-65059682D01*
X39513140Y-65577781D01*
X38758668Y-66076631D01*
X38046235Y-66546827D01*
X37390155Y-66978961D01*
X36804743Y-67363625D01*
X36304314Y-67691412D01*
X35903184Y-67952915D01*
X35615668Y-68138726D01*
X35464244Y-68234465D01*
X35052927Y-68458921D01*
X34727954Y-68563315D01*
X34457464Y-68548840D01*
X34209599Y-68416684D01*
X34063867Y-68286800D01*
X33832656Y-67958787D01*
X33762500Y-67612749D01*
X33854418Y-67271494D01*
X34008834Y-67055093D01*
X34117654Y-66966575D01*
X34355850Y-66793380D01*
X34711259Y-66543784D01*
X35171716Y-66226066D01*
X35725059Y-65848503D01*
X36359126Y-65419373D01*
X37061751Y-64946954D01*
X37820774Y-64439522D01*
X38624030Y-63905356D01*
X39110000Y-63583505D01*
X43978334Y-60364161D01*
X45516776Y-60363081D01*
X47055218Y-60362000D01*
X47083109Y-58801632D01*
X47094447Y-58244846D01*
X47107711Y-57830898D01*
X47125941Y-57533294D01*
X47152174Y-57325543D01*
X47189449Y-57181152D01*
X47240803Y-57073628D01*
X47289428Y-57002523D01*
X47496419Y-56805208D01*
X47752207Y-56655674D01*
X47763295Y-56651337D01*
X47996639Y-56585288D01*
X48198337Y-56605441D01*
X48198337Y-56605441D01*
G37*
X48198337Y-56605441D02*
X48361448Y-56665374D01*
X48559518Y-56759702D01*
X48710040Y-56871062D01*
X48820043Y-57023031D01*
X48896556Y-57239186D01*
X48946605Y-57543105D01*
X48977219Y-57958364D01*
X48995425Y-58508541D01*
X49001558Y-58812812D01*
X49029449Y-60362000D01*
X52109005Y-60362000D01*
X56976003Y-63582324D01*
X57799328Y-64128495D01*
X58585549Y-64652770D01*
X59322503Y-65146866D01*
X59998030Y-65602503D01*
X60599966Y-66011399D01*
X61116151Y-66365273D01*
X61534422Y-66655842D01*
X61842618Y-66874827D01*
X62028576Y-67013945D01*
X62075834Y-67054993D01*
X62277867Y-67380205D01*
X62317118Y-67725562D01*
X62194604Y-68068275D01*
X62020800Y-68286800D01*
X61776614Y-68487466D01*
X61543279Y-68568545D01*
X61440377Y-68574667D01*
X61373701Y-68571389D01*
X61298992Y-68557642D01*
X61206885Y-68527550D01*
X61088018Y-68475243D01*
X60933027Y-68394845D01*
X60732550Y-68280484D01*
X60477223Y-68126287D01*
X60157683Y-67926380D01*
X59764568Y-67674891D01*
X59288513Y-67365946D01*
X58720157Y-66993672D01*
X58050136Y-66552196D01*
X57269086Y-66035644D01*
X56367646Y-65438144D01*
X55336451Y-64753822D01*
X55118606Y-64609201D01*
X51526878Y-62224667D01*
X49016000Y-62224667D01*
X49016000Y-65950000D01*
X50923720Y-65950000D01*
X51627581Y-65952776D01*
X52182612Y-65963882D01*
X52609261Y-65987484D01*
X52927981Y-66027747D01*
X53159222Y-66088839D01*
X53323435Y-66174925D01*
X53441070Y-66290171D01*
X53532578Y-66438743D01*
X53555994Y-66486234D01*
X53653738Y-66866558D01*
X53592389Y-67231376D01*
X53379040Y-67546675D01*
X53324625Y-67595896D01*
X53067008Y-67812667D01*
X49016000Y-67812667D01*
X49016000Y-70691334D01*
X50575837Y-70691334D01*
X51125385Y-70691936D01*
X51532178Y-70695858D01*
X51822796Y-70706269D01*
X52023818Y-70726340D01*
X52161821Y-70759240D01*
X52263386Y-70808139D01*
X52355092Y-70876208D01*
X52393292Y-70908104D01*
X52633011Y-71208080D01*
X52716325Y-71559583D01*
X52638234Y-71938303D01*
X52615669Y-71988893D01*
X52509821Y-72175645D01*
X52377407Y-72316741D01*
X52194834Y-72418371D01*
X51938507Y-72486721D01*
X51584833Y-72527983D01*
X51110216Y-72548344D01*
X50491063Y-72553993D01*
X50461247Y-72554000D01*
X49011085Y-72554000D01*
X49034709Y-73658996D01*
X49058334Y-74763991D01*
X51132667Y-75826791D01*
X51688810Y-76115175D01*
X52204270Y-76388975D01*
X52656975Y-76635952D01*
X53024854Y-76843869D01*
X53285836Y-77000487D01*
X53417847Y-77093567D01*
X53418667Y-77094352D01*
X53630334Y-77299115D01*
X53653282Y-82948054D01*
X53657335Y-84168915D01*
X53658830Y-85228410D01*
X53657665Y-86134489D01*
X53653740Y-86895099D01*
X53646953Y-87518192D01*
X53637203Y-88011715D01*
X53624389Y-88383619D01*
X53608409Y-88641853D01*
X53589162Y-88794366D01*
X53578321Y-88833367D01*
X53360987Y-89153923D01*
X53040968Y-89349587D01*
X52721449Y-89402667D01*
X52468236Y-89372823D01*
X52257651Y-89259309D01*
X52097867Y-89114800D01*
X51810000Y-88826934D01*
X51810000Y-78267237D01*
X49926167Y-77326440D01*
X48042334Y-76385644D01*
X46158500Y-77326448D01*
X44274667Y-78267252D01*
X44274667Y-88826934D01*
X43986800Y-89114800D01*
X43760463Y-89306333D01*
X43544845Y-89389569D01*
X43363218Y-89402667D01*
X43028428Y-89347110D01*
X42815879Y-89236203D01*
X42626921Y-89035044D01*
X42506346Y-88833367D01*
X42485421Y-88730517D01*
X42467817Y-88525884D01*
X42453434Y-88211515D01*
X42442169Y-87779456D01*
X42433922Y-87221756D01*
X42428591Y-86530460D01*
X42426074Y-85697617D01*
X42426270Y-84715274D01*
X42429078Y-83575477D01*
X42431385Y-82955015D01*
X42436068Y-81839152D01*
X42440635Y-80880259D01*
X42445484Y-80065974D01*
X42451015Y-79383936D01*
X42457625Y-78821783D01*
X42465715Y-78367153D01*
X42475684Y-78007683D01*
X42487930Y-77731013D01*
X42502852Y-77524779D01*
X42520849Y-77376620D01*
X42542321Y-77274174D01*
X42567666Y-77205079D01*
X42597284Y-77156973D01*
X42619374Y-77130707D01*
X42735873Y-77045460D01*
X42982542Y-76895646D01*
X43338368Y-76692968D01*
X43782338Y-76449131D01*
X44293439Y-76175838D01*
X44850658Y-75884793D01*
X44926541Y-75845670D01*
X47068667Y-74742963D01*
X47068667Y-72554000D01*
X45620962Y-72554000D01*
X44995546Y-72548818D01*
X44515648Y-72529139D01*
X44157656Y-72488763D01*
X43897959Y-72421488D01*
X43712944Y-72321115D01*
X43579000Y-72181442D01*
X43472515Y-71996270D01*
X43468998Y-71988893D01*
X43369288Y-71608401D01*
X43431644Y-71251926D01*
X43651062Y-70943779D01*
X43691375Y-70908104D01*
X43786356Y-70831833D01*
X43880992Y-70775949D01*
X44001863Y-70737281D01*
X44175546Y-70712660D01*
X44428622Y-70698915D01*
X44787668Y-70692877D01*
X45279265Y-70691374D01*
X45508830Y-70691334D01*
X47068667Y-70691334D01*
X47068667Y-67812667D01*
X45521172Y-67812667D01*
X44923741Y-67810186D01*
X44471020Y-67798674D01*
X44138412Y-67772028D01*
X43901320Y-67724147D01*
X43735145Y-67648927D01*
X43615290Y-67540265D01*
X43517159Y-67392059D01*
X43469850Y-67303732D01*
X43364417Y-67039018D01*
X43363789Y-66802435D01*
X43468646Y-66515970D01*
X43476876Y-66498505D01*
X43581550Y-66316748D01*
X43715698Y-66179445D01*
X43902744Y-66080602D01*
X44166109Y-66014230D01*
X44529217Y-65974334D01*
X45015490Y-65954924D01*
X45620962Y-65950000D01*
X47068667Y-65950000D01*
X47068667Y-62224667D01*
X45819834Y-62224884D01*
X44571000Y-62225101D01*
X40295334Y-65059682D01*
X39513140Y-65577781D01*
X38758668Y-66076631D01*
X38046235Y-66546827D01*
X37390155Y-66978961D01*
X36804743Y-67363625D01*
X36304314Y-67691412D01*
X35903184Y-67952915D01*
X35615668Y-68138726D01*
X35464244Y-68234465D01*
X35052927Y-68458921D01*
X34727954Y-68563315D01*
X34457464Y-68548840D01*
X34209599Y-68416684D01*
X34063867Y-68286800D01*
X33832656Y-67958787D01*
X33762500Y-67612749D01*
X33854418Y-67271494D01*
X34008834Y-67055093D01*
X34117654Y-66966575D01*
X34355850Y-66793380D01*
X34711259Y-66543784D01*
X35171716Y-66226066D01*
X35725059Y-65848503D01*
X36359126Y-65419373D01*
X37061751Y-64946954D01*
X37820774Y-64439522D01*
X38624030Y-63905356D01*
X39110000Y-63583505D01*
X43978334Y-60364161D01*
X45516776Y-60363081D01*
X47055218Y-60362000D01*
X47083109Y-58801632D01*
X47094447Y-58244846D01*
X47107711Y-57830898D01*
X47125941Y-57533294D01*
X47152174Y-57325543D01*
X47189449Y-57181152D01*
X47240803Y-57073628D01*
X47289428Y-57002523D01*
X47496419Y-56805208D01*
X47752207Y-56655674D01*
X47763295Y-56651337D01*
X47996639Y-56585288D01*
X48198337Y-56605441D01*
G36*
X44759349Y-47053096D02*
X45138685Y-47223542D01*
X45467950Y-47464201D01*
X45562060Y-47563135D01*
X45821239Y-47986949D01*
X45935062Y-48443379D01*
X45909745Y-48900461D01*
X45751506Y-49326233D01*
X45466562Y-49688732D01*
X45100189Y-49937743D01*
X44605103Y-50093723D01*
X44113261Y-50080423D01*
X43696247Y-49935662D01*
X43306708Y-49658283D01*
X43031583Y-49288919D01*
X42878185Y-48861945D01*
X42853821Y-48411736D01*
X42965802Y-47972665D01*
X43200164Y-47602803D01*
X43528952Y-47312932D01*
X43916507Y-47099603D01*
X44301354Y-46994253D01*
X44401667Y-46988386D01*
X44759349Y-47053096D01*
X44759349Y-47053096D01*
G37*
X44759349Y-47053096D02*
X45138685Y-47223542D01*
X45467950Y-47464201D01*
X45562060Y-47563135D01*
X45821239Y-47986949D01*
X45935062Y-48443379D01*
X45909745Y-48900461D01*
X45751506Y-49326233D01*
X45466562Y-49688732D01*
X45100189Y-49937743D01*
X44605103Y-50093723D01*
X44113261Y-50080423D01*
X43696247Y-49935662D01*
X43306708Y-49658283D01*
X43031583Y-49288919D01*
X42878185Y-48861945D01*
X42853821Y-48411736D01*
X42965802Y-47972665D01*
X43200164Y-47602803D01*
X43528952Y-47312932D01*
X43916507Y-47099603D01*
X44301354Y-46994253D01*
X44401667Y-46988386D01*
X44759349Y-47053096D01*
G36*
X51926135Y-47022609D02*
X52276393Y-47142569D01*
X52696450Y-47412244D01*
X52996628Y-47765905D01*
X53175820Y-48174181D01*
X53232922Y-48607697D01*
X53166830Y-49037081D01*
X52976439Y-49432961D01*
X52660644Y-49765963D01*
X52381522Y-49937743D01*
X51886436Y-50093723D01*
X51394594Y-50080423D01*
X50977581Y-49935662D01*
X50585152Y-49658764D01*
X50317547Y-49298742D01*
X50173590Y-48885601D01*
X50152109Y-48449347D01*
X50251928Y-48019986D01*
X50471874Y-47627524D01*
X50810772Y-47301967D01*
X51086831Y-47143812D01*
X51518243Y-47008598D01*
X51926135Y-47022609D01*
X51926135Y-47022609D01*
G37*
X51926135Y-47022609D02*
X52276393Y-47142569D01*
X52696450Y-47412244D01*
X52996628Y-47765905D01*
X53175820Y-48174181D01*
X53232922Y-48607697D01*
X53166830Y-49037081D01*
X52976439Y-49432961D01*
X52660644Y-49765963D01*
X52381522Y-49937743D01*
X51886436Y-50093723D01*
X51394594Y-50080423D01*
X50977581Y-49935662D01*
X50585152Y-49658764D01*
X50317547Y-49298742D01*
X50173590Y-48885601D01*
X50152109Y-48449347D01*
X50251928Y-48019986D01*
X50471874Y-47627524D01*
X50810772Y-47301967D01*
X51086831Y-47143812D01*
X51518243Y-47008598D01*
X51926135Y-47022609D01*
%LPC*%
D12*
X57370000Y-41430000D03*
X57370000Y-43970000D03*
X57370000Y-38890000D03*
X70070000Y-61750000D03*
X67530000Y-61750000D03*
X70070000Y-59210000D03*
X67530000Y-59210000D03*
X64990000Y-59210000D03*
X70070000Y-56670000D03*
X67530000Y-56670000D03*
X64990000Y-56670000D03*
X62450000Y-56670000D03*
X59910000Y-56670000D03*
X70070000Y-54130000D03*
X67530000Y-54130000D03*
X64990000Y-54130000D03*
X62450000Y-54130000D03*
X59910000Y-54130000D03*
X70070000Y-51590000D03*
X67530000Y-51590000D03*
X64990000Y-51590000D03*
X62450000Y-51590000D03*
X59910000Y-51590000D03*
X70070000Y-49050000D03*
X67530000Y-49050000D03*
X64990000Y-49050000D03*
X62450000Y-49050000D03*
X59910000Y-49050000D03*
X70070000Y-46510000D03*
X67530000Y-46510000D03*
X64990000Y-46510000D03*
X62450000Y-46510000D03*
X59910000Y-46510000D03*
X70070000Y-43970000D03*
X67530000Y-43970000D03*
X64990000Y-43970000D03*
X62450000Y-43970000D03*
X59910000Y-43970000D03*
X70070000Y-41430000D03*
X67530000Y-41430000D03*
X64990000Y-41430000D03*
X62450000Y-41430000D03*
X59910000Y-41430000D03*
X70070000Y-38890000D03*
X67530000Y-38890000D03*
X64990000Y-38890000D03*
X62450000Y-38890000D03*
X59910000Y-38890000D03*
X28160000Y-61750000D03*
X25620000Y-61750000D03*
X33240000Y-59210000D03*
X30700000Y-59210000D03*
X28160000Y-59210000D03*
X25620000Y-59210000D03*
X35780000Y-56670000D03*
X33240000Y-56670000D03*
X30700000Y-56670000D03*
X28160000Y-56670000D03*
X25620000Y-56670000D03*
X35780000Y-54130000D03*
X33240000Y-54130000D03*
X30700000Y-54130000D03*
X28160000Y-54130000D03*
X25620000Y-54130000D03*
X35780000Y-51590000D03*
X33240000Y-51590000D03*
X30700000Y-51590000D03*
X28160000Y-51590000D03*
X25620000Y-51590000D03*
X35780000Y-49050000D03*
X33240000Y-49050000D03*
X30700000Y-49050000D03*
X28160000Y-49050000D03*
X25620000Y-49050000D03*
X35780000Y-46510000D03*
X33240000Y-46510000D03*
X30700000Y-46510000D03*
X28160000Y-46510000D03*
X25620000Y-46510000D03*
X38320000Y-43970000D03*
X35780000Y-43970000D03*
X33240000Y-43970000D03*
X30700000Y-43970000D03*
X28160000Y-43970000D03*
X25620000Y-43970000D03*
X38320000Y-41430000D03*
X35780000Y-41430000D03*
X33240000Y-41430000D03*
X30700000Y-41430000D03*
X28160000Y-41430000D03*
X25620000Y-41430000D03*
X38320000Y-38890000D03*
X35780000Y-38890000D03*
X33240000Y-38890000D03*
X30700000Y-38890000D03*
X28160000Y-38890000D03*
X70070000Y-98580000D03*
X67530000Y-98580000D03*
X64990000Y-98580000D03*
X62450000Y-98580000D03*
X59910000Y-98580000D03*
X70070000Y-96040000D03*
X67530000Y-96040000D03*
X64990000Y-96040000D03*
X62450000Y-96040000D03*
X59910000Y-96040000D03*
X70070000Y-93500000D03*
X67530000Y-93500000D03*
X64990000Y-93500000D03*
X62450000Y-93500000D03*
X59910000Y-93500000D03*
X70070000Y-90960000D03*
X67530000Y-90960000D03*
X64990000Y-90960000D03*
X62450000Y-90960000D03*
X59910000Y-90960000D03*
X70070000Y-88420000D03*
X67530000Y-88420000D03*
X64990000Y-88420000D03*
X62450000Y-88420000D03*
X59910000Y-88420000D03*
X70070000Y-85880000D03*
X67530000Y-85880000D03*
X64990000Y-85880000D03*
X62450000Y-85880000D03*
X59910000Y-85880000D03*
X70070000Y-83340000D03*
X67530000Y-83340000D03*
X64990000Y-83340000D03*
X62450000Y-83340000D03*
X59910000Y-83340000D03*
X70070000Y-80800000D03*
X67530000Y-80800000D03*
X64990000Y-80800000D03*
X62450000Y-80800000D03*
X59910000Y-80800000D03*
X70070000Y-78260000D03*
X67530000Y-78260000D03*
X64990000Y-78260000D03*
X62450000Y-78260000D03*
X35780000Y-98580000D03*
X33240000Y-98580000D03*
X30700000Y-98580000D03*
X28160000Y-98580000D03*
X25620000Y-98580000D03*
X35780000Y-96040000D03*
X33240000Y-96040000D03*
X30700000Y-96040000D03*
X28160000Y-96040000D03*
X25620000Y-96040000D03*
X35780000Y-93500000D03*
X33240000Y-93500000D03*
X30700000Y-93500000D03*
X28160000Y-93500000D03*
X25620000Y-93500000D03*
X35780000Y-90960000D03*
X33240000Y-90960000D03*
X30700000Y-90960000D03*
X28160000Y-90960000D03*
X25620000Y-90960000D03*
X35780000Y-88420000D03*
X33240000Y-88420000D03*
X30700000Y-88420000D03*
X28160000Y-88420000D03*
X25620000Y-88420000D03*
X35780000Y-85880000D03*
X33240000Y-85880000D03*
X30700000Y-85880000D03*
X28160000Y-85880000D03*
X25620000Y-85880000D03*
X35780000Y-83340000D03*
X33240000Y-83340000D03*
X30700000Y-83340000D03*
X28160000Y-83340000D03*
X25620000Y-83340000D03*
X35780000Y-80800000D03*
X33240000Y-80800000D03*
X30700000Y-80800000D03*
X28160000Y-80800000D03*
X25620000Y-80800000D03*
X35780000Y-78260000D03*
X33240000Y-78260000D03*
X30700000Y-78260000D03*
X28160000Y-78260000D03*
X25620000Y-78260000D03*
X59910000Y-78260000D03*
X25620000Y-38890000D03*
M02*
