G04 #@! TF.FileFunction,Copper,L1,Top,Signal*
%FSLAX46Y46*%
G04 Gerber Fmt 4.6, Leading zero omitted, Abs format (unit mm)*
G04 Created by KiCad (PCBNEW 4.0.2+dfsg1-stable) date tor 22 sep 2016 18:21:24 CEST*
%MOMM*%
G01*
G04 APERTURE LIST*
%ADD10C,0.100000*%
%ADD11C,1.800000*%
G04 APERTURE END LIST*
D10*
D11*
X57370000Y-41430000D03*
X57370000Y-43970000D03*
X57370000Y-38890000D03*
X70070000Y-61750000D03*
X67530000Y-61750000D03*
X70070000Y-59210000D03*
X67530000Y-59210000D03*
X64990000Y-59210000D03*
X70070000Y-56670000D03*
X67530000Y-56670000D03*
X64990000Y-56670000D03*
X62450000Y-56670000D03*
X59910000Y-56670000D03*
X70070000Y-54130000D03*
X67530000Y-54130000D03*
X64990000Y-54130000D03*
X62450000Y-54130000D03*
X59910000Y-54130000D03*
X70070000Y-51590000D03*
X67530000Y-51590000D03*
X64990000Y-51590000D03*
X62450000Y-51590000D03*
X59910000Y-51590000D03*
X70070000Y-49050000D03*
X67530000Y-49050000D03*
X64990000Y-49050000D03*
X62450000Y-49050000D03*
X59910000Y-49050000D03*
X70070000Y-46510000D03*
X67530000Y-46510000D03*
X64990000Y-46510000D03*
X62450000Y-46510000D03*
X59910000Y-46510000D03*
X70070000Y-43970000D03*
X67530000Y-43970000D03*
X64990000Y-43970000D03*
X62450000Y-43970000D03*
X59910000Y-43970000D03*
X70070000Y-41430000D03*
X67530000Y-41430000D03*
X64990000Y-41430000D03*
X62450000Y-41430000D03*
X59910000Y-41430000D03*
X70070000Y-38890000D03*
X67530000Y-38890000D03*
X64990000Y-38890000D03*
X62450000Y-38890000D03*
X59910000Y-38890000D03*
X28160000Y-61750000D03*
X25620000Y-61750000D03*
X33240000Y-59210000D03*
X30700000Y-59210000D03*
X28160000Y-59210000D03*
X25620000Y-59210000D03*
X35780000Y-56670000D03*
X33240000Y-56670000D03*
X30700000Y-56670000D03*
X28160000Y-56670000D03*
X25620000Y-56670000D03*
X35780000Y-54130000D03*
X33240000Y-54130000D03*
X30700000Y-54130000D03*
X28160000Y-54130000D03*
X25620000Y-54130000D03*
X35780000Y-51590000D03*
X33240000Y-51590000D03*
X30700000Y-51590000D03*
X28160000Y-51590000D03*
X25620000Y-51590000D03*
X35780000Y-49050000D03*
X33240000Y-49050000D03*
X30700000Y-49050000D03*
X28160000Y-49050000D03*
X25620000Y-49050000D03*
X35780000Y-46510000D03*
X33240000Y-46510000D03*
X30700000Y-46510000D03*
X28160000Y-46510000D03*
X25620000Y-46510000D03*
X38320000Y-43970000D03*
X35780000Y-43970000D03*
X33240000Y-43970000D03*
X30700000Y-43970000D03*
X28160000Y-43970000D03*
X25620000Y-43970000D03*
X38320000Y-41430000D03*
X35780000Y-41430000D03*
X33240000Y-41430000D03*
X30700000Y-41430000D03*
X28160000Y-41430000D03*
X25620000Y-41430000D03*
X38320000Y-38890000D03*
X35780000Y-38890000D03*
X33240000Y-38890000D03*
X30700000Y-38890000D03*
X28160000Y-38890000D03*
X70070000Y-98580000D03*
X67530000Y-98580000D03*
X64990000Y-98580000D03*
X62450000Y-98580000D03*
X59910000Y-98580000D03*
X70070000Y-96040000D03*
X67530000Y-96040000D03*
X64990000Y-96040000D03*
X62450000Y-96040000D03*
X59910000Y-96040000D03*
X70070000Y-93500000D03*
X67530000Y-93500000D03*
X64990000Y-93500000D03*
X62450000Y-93500000D03*
X59910000Y-93500000D03*
X70070000Y-90960000D03*
X67530000Y-90960000D03*
X64990000Y-90960000D03*
X62450000Y-90960000D03*
X59910000Y-90960000D03*
X70070000Y-88420000D03*
X67530000Y-88420000D03*
X64990000Y-88420000D03*
X62450000Y-88420000D03*
X59910000Y-88420000D03*
X70070000Y-85880000D03*
X67530000Y-85880000D03*
X64990000Y-85880000D03*
X62450000Y-85880000D03*
X59910000Y-85880000D03*
X70070000Y-83340000D03*
X67530000Y-83340000D03*
X64990000Y-83340000D03*
X62450000Y-83340000D03*
X59910000Y-83340000D03*
X70070000Y-80800000D03*
X67530000Y-80800000D03*
X64990000Y-80800000D03*
X62450000Y-80800000D03*
X59910000Y-80800000D03*
X70070000Y-78260000D03*
X67530000Y-78260000D03*
X64990000Y-78260000D03*
X62450000Y-78260000D03*
X35780000Y-98580000D03*
X33240000Y-98580000D03*
X30700000Y-98580000D03*
X28160000Y-98580000D03*
X25620000Y-98580000D03*
X35780000Y-96040000D03*
X33240000Y-96040000D03*
X30700000Y-96040000D03*
X28160000Y-96040000D03*
X25620000Y-96040000D03*
X35780000Y-93500000D03*
X33240000Y-93500000D03*
X30700000Y-93500000D03*
X28160000Y-93500000D03*
X25620000Y-93500000D03*
X35780000Y-90960000D03*
X33240000Y-90960000D03*
X30700000Y-90960000D03*
X28160000Y-90960000D03*
X25620000Y-90960000D03*
X35780000Y-88420000D03*
X33240000Y-88420000D03*
X30700000Y-88420000D03*
X28160000Y-88420000D03*
X25620000Y-88420000D03*
X35780000Y-85880000D03*
X33240000Y-85880000D03*
X30700000Y-85880000D03*
X28160000Y-85880000D03*
X25620000Y-85880000D03*
X35780000Y-83340000D03*
X33240000Y-83340000D03*
X30700000Y-83340000D03*
X28160000Y-83340000D03*
X25620000Y-83340000D03*
X35780000Y-80800000D03*
X33240000Y-80800000D03*
X30700000Y-80800000D03*
X28160000Y-80800000D03*
X25620000Y-80800000D03*
X35780000Y-78260000D03*
X33240000Y-78260000D03*
X30700000Y-78260000D03*
X28160000Y-78260000D03*
X25620000Y-78260000D03*
X59910000Y-78260000D03*
X25620000Y-38890000D03*
M02*
